<?xml version="1.0" encoding="us-ascii" standalone="no"?><svg xmlns="http://www.w3.org/2000/svg" xmlns:xlink="http://www.w3.org/1999/xlink" contentStyleType="text/css" height="1301px" preserveAspectRatio="none" style="width:1299px;height:1301px;background:#FFFFFF;" version="1.1" viewBox="0 0 1299 1301" width="1299px" zoomAndPan="magnify"><defs/><g><text fill="#000000" font-family="sans-serif" font-size="14" font-weight="bold" lengthAdjust="spacing" textLength="409" x="446.5" y="29.5332">UC5 - Main Success Scenario: Licenziamento con sostituto</text><rect fill="#FFFFFF" height="816.4922" style="stroke:#181818;stroke-width:1.0;" width="10" x="557.5" y="311.3281"/><rect fill="#FFFFFF" height="91.0547" style="stroke:#181818;stroke-width:1.0;" width="10" x="747.5" y="341.6797"/><rect fill="#FFFFFF" height="91.0547" style="stroke:#181818;stroke-width:1.0;" width="10" x="747.5" y="463.0859"/><rect fill="#FFFFFF" height="123.7578" style="stroke:#181818;stroke-width:1.0;" width="10" x="747.5" y="973.7109"/><rect fill="#FFFFFF" height="358.8672" style="stroke:#181818;stroke-width:1.0;" width="10" x="933.5" y="584.4922"/><rect fill="#FFFFFF" height="30.3516" style="stroke:#181818;stroke-width:1.0;" width="10" x="1242.5" y="372.0313"/><rect fill="#FFFFFF" height="30.3516" style="stroke:#181818;stroke-width:1.0;" width="10" x="1242.5" y="493.4375"/><rect fill="#FFFFFF" height="30.3516" style="stroke:#181818;stroke-width:1.0;" width="10" x="1242.5" y="614.8438"/><rect fill="#FFFFFF" height="30.3516" style="stroke:#181818;stroke-width:1.0;" width="10" x="1242.5" y="805.6016"/><rect fill="#FFFFFF" height="30.3516" style="stroke:#181818;stroke-width:1.0;" width="10" x="1242.5" y="882.6563"/><rect fill="#FFFFFF" height="30.3516" style="stroke:#181818;stroke-width:1.0;" width="10" x="1242.5" y="1036.7656"/><line style="stroke:#181818;stroke-width:0.5;stroke-dasharray:5.0,5.0;" x1="35" x2="35" y1="121.2188" y2="1219.5234"/><line style="stroke:#181818;stroke-width:0.5;stroke-dasharray:5.0,5.0;" x1="245.5" x2="245.5" y1="121.2188" y2="1219.5234"/><line style="stroke:#181818;stroke-width:0.5;stroke-dasharray:5.0,5.0;" x1="562" x2="562" y1="121.2188" y2="1219.5234"/><line style="stroke:#181818;stroke-width:0.5;stroke-dasharray:5.0,5.0;" x1="752.5" x2="752.5" y1="121.2188" y2="1219.5234"/><line style="stroke:#181818;stroke-width:0.5;stroke-dasharray:5.0,5.0;" x1="938.5" x2="938.5" y1="121.2188" y2="1219.5234"/><line style="stroke:#181818;stroke-width:0.5;stroke-dasharray:5.0,5.0;" x1="1247" x2="1247" y1="121.2188" y2="1219.5234"/><text fill="#000000" font-family="sans-serif" font-size="14" lengthAdjust="spacing" textLength="55" x="5" y="118.1426">Direttore</text><ellipse cx="35.5" cy="52.1094" fill="#E2E2F0" rx="8" ry="8" style="stroke:#181818;stroke-width:0.5;"/><path d="M35.5,60.1094 L35.5,87.1094 M22.5,68.1094 L48.5,68.1094 M35.5,87.1094 L22.5,102.1094 M35.5,87.1094 L48.5,102.1094 " fill="none" style="stroke:#181818;stroke-width:0.5;"/><text fill="#000000" font-family="sans-serif" font-size="14" lengthAdjust="spacing" textLength="55" x="5" y="1233.0566">Direttore</text><ellipse cx="35.5" cy="1244.6328" fill="#E2E2F0" rx="8" ry="8" style="stroke:#181818;stroke-width:0.5;"/><path d="M35.5,1252.6328 L35.5,1279.6328 M22.5,1260.6328 L48.5,1260.6328 M35.5,1279.6328 L22.5,1294.6328 M35.5,1279.6328 L48.5,1294.6328 " fill="none" style="stroke:#181818;stroke-width:0.5;"/><text fill="#000000" font-family="sans-serif" font-size="14" lengthAdjust="spacing" textLength="150" x="167.5" y="100.5332">GestionePersonaleView</text><text fill="#000000" font-family="sans-serif" font-size="14" lengthAdjust="spacing" textLength="77" x="204" y="118.1426">&#171;Boundary&#187;</text><path d="M225,58 L225,82 M225,70 L242,70 " fill="none" style="stroke:#181818;stroke-width:0.5;"/><ellipse cx="254" cy="70" fill="#E2E2F0" rx="12" ry="12" style="stroke:#181818;stroke-width:0.5;"/><text fill="#000000" font-family="sans-serif" font-size="14" lengthAdjust="spacing" textLength="150" x="167.5" y="1233.0566">GestionePersonaleView</text><text fill="#000000" font-family="sans-serif" font-size="14" lengthAdjust="spacing" textLength="77" x="204" y="1250.666">&#171;Boundary&#187;</text><path d="M225,1257.7422 L225,1281.7422 M225,1269.7422 L242,1269.7422 " fill="none" style="stroke:#181818;stroke-width:0.5;"/><ellipse cx="254" cy="1269.7422" fill="#E2E2F0" rx="12" ry="12" style="stroke:#181818;stroke-width:0.5;"/><text fill="#000000" font-family="sans-serif" font-size="14" lengthAdjust="spacing" textLength="115" x="502" y="100.5332">GestorePersonale</text><text fill="#000000" font-family="sans-serif" font-size="14" lengthAdjust="spacing" textLength="78" x="520.5" y="118.1426">&#171;Controller&#187;</text><ellipse cx="562.5" cy="70" fill="#E2E2F0" rx="12" ry="12" style="stroke:#181818;stroke-width:0.5;"/><polygon fill="#181818" points="558.5,58,564.5,53,562.5,58,564.5,63,558.5,58" style="stroke:#181818;stroke-width:1.0;"/><text fill="#000000" font-family="sans-serif" font-size="14" lengthAdjust="spacing" textLength="115" x="502" y="1233.0566">GestorePersonale</text><text fill="#000000" font-family="sans-serif" font-size="14" lengthAdjust="spacing" textLength="78" x="520.5" y="1250.666">&#171;Controller&#187;</text><ellipse cx="562.5" cy="1269.7422" fill="#E2E2F0" rx="12" ry="12" style="stroke:#181818;stroke-width:0.5;"/><polygon fill="#181818" points="558.5,1257.7422,564.5,1252.7422,562.5,1257.7422,564.5,1262.7422,558.5,1257.7422" style="stroke:#181818;stroke-width:1.0;"/><text fill="#000000" font-family="sans-serif" font-size="14" lengthAdjust="spacing" textLength="164" x="667.5" y="100.5332">dao: PersonalTrainerDAO</text><text fill="#000000" font-family="sans-serif" font-size="14" lengthAdjust="spacing" textLength="71" x="714" y="118.1426">&#171;Interface&#187;</text><ellipse cx="752.5" cy="70" fill="#E2E2F0" rx="12" ry="12" style="stroke:#181818;stroke-width:0.5;"/><line style="stroke:#181818;stroke-width:0.5;" x1="740.5" x2="764.5" y1="84" y2="84"/><text fill="#000000" font-family="sans-serif" font-size="14" lengthAdjust="spacing" textLength="164" x="667.5" y="1233.0566">dao: PersonalTrainerDAO</text><text fill="#000000" font-family="sans-serif" font-size="14" lengthAdjust="spacing" textLength="71" x="714" y="1250.666">&#171;Interface&#187;</text><ellipse cx="752.5" cy="1269.7422" fill="#E2E2F0" rx="12" ry="12" style="stroke:#181818;stroke-width:0.5;"/><line style="stroke:#181818;stroke-width:0.5;" x1="740.5" x2="764.5" y1="1283.7422" y2="1283.7422"/><text fill="#000000" font-family="sans-serif" font-size="14" lengthAdjust="spacing" textLength="162" x="854.5" y="100.5332">ServizioSwapCorsiMySQL</text><text fill="#000000" font-family="sans-serif" font-size="14" lengthAdjust="spacing" textLength="63" x="904" y="118.1426">&#171;Service&#187;</text><ellipse cx="938.5" cy="70" fill="#E2E2F0" rx="12" ry="12" style="stroke:#181818;stroke-width:0.5;"/><polygon fill="#181818" points="934.5,58,940.5,53,938.5,58,940.5,63,934.5,58" style="stroke:#181818;stroke-width:1.0;"/><text fill="#000000" font-family="sans-serif" font-size="14" lengthAdjust="spacing" textLength="162" x="854.5" y="1233.0566">ServizioSwapCorsiMySQL</text><text fill="#000000" font-family="sans-serif" font-size="14" lengthAdjust="spacing" textLength="63" x="904" y="1250.666">&#171;Service&#187;</text><ellipse cx="938.5" cy="1269.7422" fill="#E2E2F0" rx="12" ry="12" style="stroke:#181818;stroke-width:0.5;"/><polygon fill="#181818" points="934.5,1257.7422,940.5,1252.7422,938.5,1257.7422,940.5,1262.7422,934.5,1257.7422" style="stroke:#181818;stroke-width:1.0;"/><text fill="#000000" font-family="sans-serif" font-size="14" lengthAdjust="spacing" textLength="95" x="1197" y="118.1426">scriptactive_db</text><path d="M1229.5,67.6094 C1229.5,57.6094 1247.5,57.6094 1247.5,57.6094 C1247.5,57.6094 1265.5,57.6094 1265.5,67.6094 L1265.5,93.6094 C1265.5,103.6094 1247.5,103.6094 1247.5,103.6094 C1247.5,103.6094 1229.5,103.6094 1229.5,93.6094 L1229.5,67.6094 " fill="#E2E2F0" style="stroke:#181818;stroke-width:1.5;"/><path d="M1229.5,67.6094 C1229.5,77.6094 1247.5,77.6094 1247.5,77.6094 C1247.5,77.6094 1265.5,77.6094 1265.5,67.6094 " fill="none" style="stroke:#181818;stroke-width:1.5;"/><text fill="#000000" font-family="sans-serif" font-size="14" lengthAdjust="spacing" textLength="95" x="1197" y="1233.0566">scriptactive_db</text><path d="M1229.5,1246.1328 C1229.5,1236.1328 1247.5,1236.1328 1247.5,1236.1328 C1247.5,1236.1328 1265.5,1236.1328 1265.5,1246.1328 L1265.5,1272.1328 C1265.5,1282.1328 1247.5,1282.1328 1247.5,1282.1328 C1247.5,1282.1328 1229.5,1282.1328 1229.5,1272.1328 L1229.5,1246.1328 " fill="#E2E2F0" style="stroke:#181818;stroke-width:1.5;"/><path d="M1229.5,1246.1328 C1229.5,1256.1328 1247.5,1256.1328 1247.5,1256.1328 C1247.5,1256.1328 1265.5,1256.1328 1265.5,1246.1328 " fill="none" style="stroke:#181818;stroke-width:1.5;"/><rect fill="#FFFFFF" height="816.4922" style="stroke:#181818;stroke-width:1.0;" width="10" x="557.5" y="311.3281"/><rect fill="#FFFFFF" height="91.0547" style="stroke:#181818;stroke-width:1.0;" width="10" x="747.5" y="341.6797"/><rect fill="#FFFFFF" height="91.0547" style="stroke:#181818;stroke-width:1.0;" width="10" x="747.5" y="463.0859"/><rect fill="#FFFFFF" height="123.7578" style="stroke:#181818;stroke-width:1.0;" width="10" x="747.5" y="973.7109"/><rect fill="#FFFFFF" height="358.8672" style="stroke:#181818;stroke-width:1.0;" width="10" x="933.5" y="584.4922"/><rect fill="#FFFFFF" height="30.3516" style="stroke:#181818;stroke-width:1.0;" width="10" x="1242.5" y="372.0313"/><rect fill="#FFFFFF" height="30.3516" style="stroke:#181818;stroke-width:1.0;" width="10" x="1242.5" y="493.4375"/><rect fill="#FFFFFF" height="30.3516" style="stroke:#181818;stroke-width:1.0;" width="10" x="1242.5" y="614.8438"/><rect fill="#FFFFFF" height="30.3516" style="stroke:#181818;stroke-width:1.0;" width="10" x="1242.5" y="805.6016"/><rect fill="#FFFFFF" height="30.3516" style="stroke:#181818;stroke-width:1.0;" width="10" x="1242.5" y="882.6563"/><rect fill="#FFFFFF" height="30.3516" style="stroke:#181818;stroke-width:1.0;" width="10" x="1242.5" y="1036.7656"/><polygon fill="#181818" points="233.5,149.5703,243.5,153.5703,233.5,157.5703,237.5,153.5703" style="stroke:#181818;stroke-width:1.0;"/><line style="stroke:#181818;stroke-width:1.0;" x1="35.5" x2="239.5" y1="153.5703" y2="153.5703"/><text fill="#000000" font-family="sans-serif" font-size="13" font-weight="bold" lengthAdjust="spacing" textLength="7" x="42.5" y="148.7139">1</text><text fill="#000000" font-family="sans-serif" font-size="13" lengthAdjust="spacing" textLength="152" x="53.5" y="148.7139">seleziona PT da licenziare</text><polygon fill="#181818" points="233.5,179.9219,243.5,183.9219,233.5,187.9219,237.5,183.9219" style="stroke:#181818;stroke-width:1.0;"/><line style="stroke:#181818;stroke-width:1.0;" x1="35.5" x2="239.5" y1="183.9219" y2="183.9219"/><text fill="#000000" font-family="sans-serif" font-size="13" font-weight="bold" lengthAdjust="spacing" textLength="7" x="42.5" y="179.0654">2</text><text fill="#000000" font-family="sans-serif" font-size="13" lengthAdjust="spacing" textLength="129" x="53.5" y="179.0654">seleziona PT sostituto</text><polygon fill="#181818" points="233.5,210.2734,243.5,214.2734,233.5,218.2734,237.5,214.2734" style="stroke:#181818;stroke-width:1.0;"/><line style="stroke:#181818;stroke-width:1.0;" x1="35.5" x2="239.5" y1="214.2734" y2="214.2734"/><text fill="#000000" font-family="sans-serif" font-size="13" font-weight="bold" lengthAdjust="spacing" textLength="7" x="42.5" y="209.417">3</text><text fill="#000000" font-family="sans-serif" font-size="13" lengthAdjust="spacing" textLength="175" x="53.5" y="209.417">clicca "Licenzia con sostituto"</text><polygon fill="#181818" points="550.5,240.625,560.5,244.625,550.5,248.625,554.5,244.625" style="stroke:#181818;stroke-width:1.0;"/><line style="stroke:#181818;stroke-width:1.0;" x1="245.5" x2="556.5" y1="244.625" y2="244.625"/><text fill="#000000" font-family="sans-serif" font-size="13" font-weight="bold" lengthAdjust="spacing" textLength="7" x="252.5" y="239.7686">4</text><text fill="#000000" font-family="sans-serif" font-size="13" lengthAdjust="spacing" textLength="75" x="263.5" y="239.7686">getInstance()</text><path d="M567,257.625 L567,283.625 L688,283.625 L688,267.625 L678,257.625 L567,257.625 " fill="#FEFFDD" style="stroke:#181818;stroke-width:0.5;"/><path d="M678,257.625 L678,267.625 L688,267.625 L678,257.625 " fill="#FEFFDD" style="stroke:#181818;stroke-width:0.5;"/><text fill="#000000" font-family="sans-serif" font-size="13" lengthAdjust="spacing" textLength="100" x="573" y="276.1201">Pattern Singleton</text><polygon fill="#181818" points="545.5,307.3281,555.5,311.3281,545.5,315.3281,549.5,311.3281" style="stroke:#181818;stroke-width:1.0;"/><line style="stroke:#181818;stroke-width:1.0;" x1="245.5" x2="551.5" y1="311.3281" y2="311.3281"/><text fill="#000000" font-family="sans-serif" font-size="13" font-weight="bold" lengthAdjust="spacing" textLength="7" x="252.5" y="306.4717">5</text><text fill="#000000" font-family="sans-serif" font-size="13" lengthAdjust="spacing" textLength="282" x="263.5" y="306.4717">licenziaConSostituto(idDaLicenziare, idSostituto)</text><polygon fill="#181818" points="735.5,337.6797,745.5,341.6797,735.5,345.6797,739.5,341.6797" style="stroke:#181818;stroke-width:1.0;"/><line style="stroke:#181818;stroke-width:1.0;" x1="567.5" x2="741.5" y1="341.6797" y2="341.6797"/><text fill="#000000" font-family="sans-serif" font-size="13" font-weight="bold" lengthAdjust="spacing" textLength="7" x="574.5" y="336.8232">6</text><text fill="#000000" font-family="sans-serif" font-size="13" lengthAdjust="spacing" textLength="150" x="585.5" y="336.8232">trovaPerId(idDaLicenziare)</text><polygon fill="#181818" points="1230.5,368.0313,1240.5,372.0313,1230.5,376.0313,1234.5,372.0313" style="stroke:#181818;stroke-width:1.0;"/><line style="stroke:#181818;stroke-width:1.0;" x1="757.5" x2="1236.5" y1="372.0313" y2="372.0313"/><text fill="#000000" font-family="sans-serif" font-size="13" font-weight="bold" lengthAdjust="spacing" textLength="7" x="764.5" y="367.1748">7</text><text fill="#000000" font-family="sans-serif" font-size="13" lengthAdjust="spacing" textLength="147" x="775.5" y="367.1748">SELECT PT da licenziare</text><polygon fill="#181818" points="768.5,398.3828,758.5,402.3828,768.5,406.3828,764.5,402.3828" style="stroke:#181818;stroke-width:1.0;"/><line style="stroke:#181818;stroke-width:1.0;stroke-dasharray:2.0,2.0;" x1="762.5" x2="1246.5" y1="402.3828" y2="402.3828"/><text fill="#000000" font-family="sans-serif" font-size="13" font-weight="bold" lengthAdjust="spacing" textLength="7" x="774.5" y="397.5264">8</text><text fill="#000000" font-family="sans-serif" font-size="13" lengthAdjust="spacing" textLength="118" x="785.5" y="397.5264">dati PT da licenziare</text><polygon fill="#181818" points="578.5,428.7344,568.5,432.7344,578.5,436.7344,574.5,432.7344" style="stroke:#181818;stroke-width:1.0;"/><line style="stroke:#181818;stroke-width:1.0;stroke-dasharray:2.0,2.0;" x1="572.5" x2="751.5" y1="432.7344" y2="432.7344"/><text fill="#000000" font-family="sans-serif" font-size="13" font-weight="bold" lengthAdjust="spacing" textLength="7" x="584.5" y="427.8779">9</text><text fill="#000000" font-family="sans-serif" font-size="13" lengthAdjust="spacing" textLength="86" x="595.5" y="427.8779">ptDaLicenziare</text><polygon fill="#181818" points="735.5,459.0859,745.5,463.0859,735.5,467.0859,739.5,463.0859" style="stroke:#181818;stroke-width:1.0;"/><line style="stroke:#181818;stroke-width:1.0;" x1="567.5" x2="741.5" y1="463.0859" y2="463.0859"/><text fill="#000000" font-family="sans-serif" font-size="13" font-weight="bold" lengthAdjust="spacing" textLength="14" x="574.5" y="458.2295">10</text><text fill="#000000" font-family="sans-serif" font-size="13" lengthAdjust="spacing" textLength="127" x="592.5" y="458.2295">trovaPerId(idSostituto)</text><polygon fill="#181818" points="1230.5,489.4375,1240.5,493.4375,1230.5,497.4375,1234.5,493.4375" style="stroke:#181818;stroke-width:1.0;"/><line style="stroke:#181818;stroke-width:1.0;" x1="757.5" x2="1236.5" y1="493.4375" y2="493.4375"/><text fill="#000000" font-family="sans-serif" font-size="13" font-weight="bold" lengthAdjust="spacing" textLength="14" x="764.5" y="488.5811">11</text><text fill="#000000" font-family="sans-serif" font-size="13" lengthAdjust="spacing" textLength="124" x="782.5" y="488.5811">SELECT PT sostituto</text><polygon fill="#181818" points="768.5,519.7891,758.5,523.7891,768.5,527.7891,764.5,523.7891" style="stroke:#181818;stroke-width:1.0;"/><line style="stroke:#181818;stroke-width:1.0;stroke-dasharray:2.0,2.0;" x1="762.5" x2="1246.5" y1="523.7891" y2="523.7891"/><text fill="#000000" font-family="sans-serif" font-size="13" font-weight="bold" lengthAdjust="spacing" textLength="14" x="774.5" y="518.9326">12</text><text fill="#000000" font-family="sans-serif" font-size="13" lengthAdjust="spacing" textLength="95" x="792.5" y="518.9326">dati PT sostituto</text><polygon fill="#181818" points="578.5,550.1406,568.5,554.1406,578.5,558.1406,574.5,554.1406" style="stroke:#181818;stroke-width:1.0;"/><line style="stroke:#181818;stroke-width:1.0;stroke-dasharray:2.0,2.0;" x1="572.5" x2="751.5" y1="554.1406" y2="554.1406"/><text fill="#000000" font-family="sans-serif" font-size="13" font-weight="bold" lengthAdjust="spacing" textLength="14" x="584.5" y="549.2842">13</text><text fill="#000000" font-family="sans-serif" font-size="13" lengthAdjust="spacing" textLength="63" x="602.5" y="549.2842">ptSostituto</text><polygon fill="#181818" points="921.5,580.4922,931.5,584.4922,921.5,588.4922,925.5,584.4922" style="stroke:#181818;stroke-width:1.0;"/><line style="stroke:#181818;stroke-width:1.0;" x1="567.5" x2="927.5" y1="584.4922" y2="584.4922"/><text fill="#000000" font-family="sans-serif" font-size="13" font-weight="bold" lengthAdjust="spacing" textLength="14" x="574.5" y="579.6357">14</text><text fill="#000000" font-family="sans-serif" font-size="13" lengthAdjust="spacing" textLength="329" x="592.5" y="579.6357">swapCorsiPerLicenziamento(ptDaLicenziare, ptSostituto)</text><polygon fill="#181818" points="1230.5,610.8438,1240.5,614.8438,1230.5,618.8438,1234.5,614.8438" style="stroke:#181818;stroke-width:1.0;"/><line style="stroke:#181818;stroke-width:1.0;" x1="943.5" x2="1236.5" y1="614.8438" y2="614.8438"/><text fill="#000000" font-family="sans-serif" font-size="13" font-weight="bold" lengthAdjust="spacing" textLength="14" x="950.5" y="609.9873">15</text><text fill="#000000" font-family="sans-serif" font-size="13" lengthAdjust="spacing" textLength="262" x="968.5" y="609.9873">SELECT corsi attivi/futuri del PT da licenziare</text><polygon fill="#181818" points="954.5,641.1953,944.5,645.1953,954.5,649.1953,950.5,645.1953" style="stroke:#181818;stroke-width:1.0;"/><line style="stroke:#181818;stroke-width:1.0;stroke-dasharray:2.0,2.0;" x1="948.5" x2="1246.5" y1="645.1953" y2="645.1953"/><text fill="#000000" font-family="sans-serif" font-size="13" font-weight="bold" lengthAdjust="spacing" textLength="14" x="960.5" y="640.3389">16</text><text fill="#000000" font-family="sans-serif" font-size="13" lengthAdjust="spacing" textLength="117" x="978.5" y="640.3389">corsi da riassegnare</text><line style="stroke:#181818;stroke-width:1.0;" x1="943.5" x2="985.5" y1="675.5469" y2="675.5469"/><line style="stroke:#181818;stroke-width:1.0;" x1="985.5" x2="985.5" y1="675.5469" y2="688.5469"/><line style="stroke:#181818;stroke-width:1.0;" x1="944.5" x2="985.5" y1="688.5469" y2="688.5469"/><polygon fill="#181818" points="954.5,684.5469,944.5,688.5469,954.5,692.5469,950.5,688.5469" style="stroke:#181818;stroke-width:1.0;"/><text fill="#000000" font-family="sans-serif" font-size="13" font-weight="bold" lengthAdjust="spacing" textLength="14" x="950.5" y="670.6904">17</text><text fill="#000000" font-family="sans-serif" font-size="13" lengthAdjust="spacing" textLength="182" x="968.5" y="670.6904">verifica stessa specializzazione</text><line style="stroke:#181818;stroke-width:1.0;" x1="943.5" x2="985.5" y1="718.8984" y2="718.8984"/><line style="stroke:#181818;stroke-width:1.0;" x1="985.5" x2="985.5" y1="718.8984" y2="731.8984"/><line style="stroke:#181818;stroke-width:1.0;" x1="944.5" x2="985.5" y1="731.8984" y2="731.8984"/><polygon fill="#181818" points="954.5,727.8984,944.5,731.8984,954.5,735.8984,950.5,731.8984" style="stroke:#181818;stroke-width:1.0;"/><text fill="#000000" font-family="sans-serif" font-size="13" font-weight="bold" lengthAdjust="spacing" textLength="14" x="950.5" y="714.042">18</text><text fill="#000000" font-family="sans-serif" font-size="13" lengthAdjust="spacing" textLength="127" x="968.5" y="714.042">verifica sostituto attivo</text><line style="stroke:#181818;stroke-width:1.0;" x1="943.5" x2="985.5" y1="762.25" y2="762.25"/><line style="stroke:#181818;stroke-width:1.0;" x1="985.5" x2="985.5" y1="762.25" y2="775.25"/><line style="stroke:#181818;stroke-width:1.0;" x1="944.5" x2="985.5" y1="775.25" y2="775.25"/><polygon fill="#181818" points="954.5,771.25,944.5,775.25,954.5,779.25,950.5,775.25" style="stroke:#181818;stroke-width:1.0;"/><text fill="#000000" font-family="sans-serif" font-size="13" font-weight="bold" lengthAdjust="spacing" textLength="14" x="950.5" y="757.3936">19</text><text fill="#000000" font-family="sans-serif" font-size="13" lengthAdjust="spacing" textLength="99" x="968.5" y="757.3936">verifica PT diversi</text><polygon fill="#181818" points="1230.5,801.6016,1240.5,805.6016,1230.5,809.6016,1234.5,805.6016" style="stroke:#181818;stroke-width:1.0;"/><line style="stroke:#181818;stroke-width:1.0;" x1="943.5" x2="1236.5" y1="805.6016" y2="805.6016"/><text fill="#000000" font-family="sans-serif" font-size="13" font-weight="bold" lengthAdjust="spacing" textLength="14" x="950.5" y="800.7451">20</text><text fill="#000000" font-family="sans-serif" font-size="13" lengthAdjust="spacing" textLength="188" x="968.5" y="800.7451">verifica conflitti orari del sostituto</text><polygon fill="#181818" points="954.5,831.9531,944.5,835.9531,954.5,839.9531,950.5,835.9531" style="stroke:#181818;stroke-width:1.0;"/><line style="stroke:#181818;stroke-width:1.0;stroke-dasharray:2.0,2.0;" x1="948.5" x2="1246.5" y1="835.9531" y2="835.9531"/><text fill="#000000" font-family="sans-serif" font-size="13" font-weight="bold" lengthAdjust="spacing" textLength="14" x="960.5" y="831.0967">21</text><text fill="#000000" font-family="sans-serif" font-size="13" lengthAdjust="spacing" textLength="133" x="978.5" y="831.0967">nessun conflitto trovato</text><polygon fill="#181818" points="1230.5,878.6563,1240.5,882.6563,1230.5,886.6563,1234.5,882.6563" style="stroke:#181818;stroke-width:1.0;"/><line style="stroke:#181818;stroke-width:1.0;" x1="943.5" x2="1236.5" y1="882.6563" y2="882.6563"/><text fill="#000000" font-family="sans-serif" font-size="13" font-weight="bold" lengthAdjust="spacing" textLength="14" x="950.5" y="869.624">22</text><text fill="#000000" font-family="sans-serif" font-size="13" lengthAdjust="spacing" textLength="90" x="968.5" y="861.4482">UPDATE Corso</text><text fill="#000000" font-family="sans-serif" font-size="13" lengthAdjust="spacing" textLength="156" x="968.5" y="877.7998">SET idTrainer = idSostituto</text><polygon fill="#181818" points="954.5,909.0078,944.5,913.0078,954.5,917.0078,950.5,913.0078" style="stroke:#181818;stroke-width:1.0;"/><line style="stroke:#181818;stroke-width:1.0;stroke-dasharray:2.0,2.0;" x1="948.5" x2="1246.5" y1="913.0078" y2="913.0078"/><text fill="#000000" font-family="sans-serif" font-size="13" font-weight="bold" lengthAdjust="spacing" textLength="14" x="960.5" y="908.1514">23</text><text fill="#000000" font-family="sans-serif" font-size="13" lengthAdjust="spacing" textLength="88" x="978.5" y="908.1514">corsi aggiornati</text><polygon fill="#181818" points="578.5,939.3594,568.5,943.3594,578.5,947.3594,574.5,943.3594" style="stroke:#181818;stroke-width:1.0;"/><line style="stroke:#181818;stroke-width:1.0;stroke-dasharray:2.0,2.0;" x1="572.5" x2="937.5" y1="943.3594" y2="943.3594"/><text fill="#000000" font-family="sans-serif" font-size="13" font-weight="bold" lengthAdjust="spacing" textLength="14" x="584.5" y="938.5029">24</text><text fill="#000000" font-family="sans-serif" font-size="13" lengthAdjust="spacing" textLength="98" x="602.5" y="938.5029">swap completato</text><polygon fill="#181818" points="735.5,969.7109,745.5,973.7109,735.5,977.7109,739.5,973.7109" style="stroke:#181818;stroke-width:1.0;"/><line style="stroke:#181818;stroke-width:1.0;" x1="567.5" x2="741.5" y1="973.7109" y2="973.7109"/><text fill="#000000" font-family="sans-serif" font-size="13" font-weight="bold" lengthAdjust="spacing" textLength="14" x="574.5" y="968.8545">25</text><text fill="#000000" font-family="sans-serif" font-size="13" lengthAdjust="spacing" textLength="135" x="592.5" y="968.8545">elimina(ptDaLicenziare)</text><polygon fill="#181818" points="1230.5,1032.7656,1240.5,1036.7656,1230.5,1040.7656,1234.5,1036.7656" style="stroke:#181818;stroke-width:1.0;"/><line style="stroke:#181818;stroke-width:1.0;" x1="757.5" x2="1236.5" y1="1036.7656" y2="1036.7656"/><text fill="#000000" font-family="sans-serif" font-size="13" font-weight="bold" lengthAdjust="spacing" textLength="14" x="764.5" y="1015.5576">26</text><text fill="#000000" font-family="sans-serif" font-size="13" lengthAdjust="spacing" textLength="146" x="782.5" y="999.2061">UPDATE PersonalTrainer</text><text fill="#000000" font-family="sans-serif" font-size="13" lengthAdjust="spacing" textLength="108" x="782.5" y="1015.5576">SET Attivo = false,</text><text fill="#000000" font-family="sans-serif" font-size="13" lengthAdjust="spacing" textLength="177" x="782.5" y="1031.9092">StatoContratto = 'LICENZIATO'</text><polygon fill="#181818" points="768.5,1063.1172,758.5,1067.1172,768.5,1071.1172,764.5,1067.1172" style="stroke:#181818;stroke-width:1.0;"/><line style="stroke:#181818;stroke-width:1.0;stroke-dasharray:2.0,2.0;" x1="762.5" x2="1246.5" y1="1067.1172" y2="1067.1172"/><text fill="#000000" font-family="sans-serif" font-size="13" font-weight="bold" lengthAdjust="spacing" textLength="14" x="774.5" y="1062.2607">27</text><text fill="#000000" font-family="sans-serif" font-size="13" lengthAdjust="spacing" textLength="138" x="792.5" y="1062.2607">licenziamento registrato</text><polygon fill="#181818" points="578.5,1093.4688,568.5,1097.4688,578.5,1101.4688,574.5,1097.4688" style="stroke:#181818;stroke-width:1.0;"/><line style="stroke:#181818;stroke-width:1.0;stroke-dasharray:2.0,2.0;" x1="572.5" x2="751.5" y1="1097.4688" y2="1097.4688"/><text fill="#000000" font-family="sans-serif" font-size="13" font-weight="bold" lengthAdjust="spacing" textLength="14" x="584.5" y="1092.6123">28</text><text fill="#000000" font-family="sans-serif" font-size="13" lengthAdjust="spacing" textLength="14" x="602.5" y="1092.6123">ok</text><polygon fill="#181818" points="256.5,1123.8203,246.5,1127.8203,256.5,1131.8203,252.5,1127.8203" style="stroke:#181818;stroke-width:1.0;"/><line style="stroke:#181818;stroke-width:1.0;stroke-dasharray:2.0,2.0;" x1="250.5" x2="561.5" y1="1127.8203" y2="1127.8203"/><text fill="#000000" font-family="sans-serif" font-size="13" font-weight="bold" lengthAdjust="spacing" textLength="14" x="262.5" y="1122.9639">29</text><text fill="#000000" font-family="sans-serif" font-size="13" lengthAdjust="spacing" textLength="227" x="280.5" y="1122.9639">licenziamento con sostituto completato</text><line style="stroke:#181818;stroke-width:1.0;" x1="245.5" x2="287.5" y1="1158.1719" y2="1158.1719"/><line style="stroke:#181818;stroke-width:1.0;" x1="287.5" x2="287.5" y1="1158.1719" y2="1171.1719"/><line style="stroke:#181818;stroke-width:1.0;" x1="246.5" x2="287.5" y1="1171.1719" y2="1171.1719"/><polygon fill="#181818" points="256.5,1167.1719,246.5,1171.1719,256.5,1175.1719,252.5,1171.1719" style="stroke:#181818;stroke-width:1.0;"/><text fill="#000000" font-family="sans-serif" font-size="13" font-weight="bold" lengthAdjust="spacing" textLength="14" x="252.5" y="1153.3154">30</text><text fill="#000000" font-family="sans-serif" font-size="13" lengthAdjust="spacing" textLength="98" x="270.5" y="1153.3154">aggiornaTabella()</text><polygon fill="#181818" points="46.5,1197.5234,36.5,1201.5234,46.5,1205.5234,42.5,1201.5234" style="stroke:#181818;stroke-width:1.0;"/><line style="stroke:#181818;stroke-width:1.0;stroke-dasharray:2.0,2.0;" x1="40.5" x2="244.5" y1="1201.5234" y2="1201.5234"/><text fill="#000000" font-family="sans-serif" font-size="13" font-weight="bold" lengthAdjust="spacing" textLength="14" x="52.5" y="1196.667">31</text><text fill="#000000" font-family="sans-serif" font-size="13" lengthAdjust="spacing" textLength="164" x="70.5" y="1196.667">mostra conferma operazione</text><!--SRC=[ZLPDJnin4BtlhnZb0aYWddf1W1IIg8eKIgfDUwYGgidk91tLiIFR2IA_lkFztcKXUu75dZSpxys7yUmLmS_9LxY19sGDyI59o3c84z9esTp2WkNpnBWZxGqaHeCpphC_U1D5A3_rORScAz-9DnP6KxRavOj6W0wglwArEUWKxHkClf7WZQObMMSqAlh5zFgYx-uU2vE7XmmRZYC9wArHEKhyLA00cEINYcm1gGyYIPUzH4jHI9IebHMIPAVZvm2VQqzsWmaLwELABkg8CTaZdzZ4hxYV6EluwIt-iGZ0xAQ2XVlY94hHuneTmSWbblTUHE4Z_KdNkHgFKLGf0ZSF6KMu1KUA9916IG5I15LeBhATDQ-hqMUQYAi4OLHMiLt0KHHbTc9VAoUeBVcvTXvrGfTNaJQUmFBshmUpQKgyH2y2IjEmtYgIJX3HKmZc7_WjUSbXNEPmoUaK5nNXQ-2qkhkAClrGuZV2HWsV4Y6hcZYNeoDAeUTfnsN3IrxXA8S8Tleem7Ysc4rMxwMlK58sCRnfn98oytj0Iar86QKhmjutask2Ykm6qEjJw0otkay6yAgDXtAA-n2zX1hZ4dgv72wXrberbssThfin6goRmnSrNNSKI48Ca8Rb8t_P7Fp1CgIa1bMzdN7kIK2MqJdQwfxITn9fEpYIvGtBL3elgrP-xIbXL7mwOPXg6eekrSXPcO6mG5XMad3erwiob4snKIokmLWirFgqYTe1jN0xwCgBoHluVKVrvV1pEHslPX3wmhpeUBQIfL2iRhXlBeYXrSBjbetLqjsVXk-sTMXEyR3RotRhfDxgk_w99SKxrjXfv7CJMt3ll5Yv2kEiq2B11fMZQpaCQMNHCKXy3nUB-MJs_VTyl7g- -6pGLUjLjxHb5tmCdNVpxyoOro-G-lZ_Xm-aRQxwyXafd9LrNE6Qb49vd7A385xr-jt2pWGsMU-HtI6OFTbYjlu3]--></g></svg>