<?xml version="1.0" encoding="us-ascii" standalone="no"?><svg xmlns="http://www.w3.org/2000/svg" xmlns:xlink="http://www.w3.org/1999/xlink" contentStyleType="text/css" height="869px" preserveAspectRatio="none" style="width:1266px;height:869px;background:#FFFFFF;" version="1.1" viewBox="0 0 1266 869" width="1266px" zoomAndPan="magnify"><defs/><g><text fill="#000000" font-family="sans-serif" font-size="14" font-weight="bold" lengthAdjust="spacing" textLength="349" x="460" y="29.5332">UC5 - Main Success Scenario: Calcolo retribuzioni</text><rect fill="#FFFFFF" height="444.7578" style="stroke:#181818;stroke-width:1.0;" width="10" x="471.5" y="250.625"/><rect fill="#FFFFFF" height="384.0547" style="stroke:#181818;stroke-width:1.0;" width="10" x="696.5" y="280.9766"/><rect fill="#FFFFFF" height="91.0547" style="stroke:#181818;stroke-width:1.0;" width="10" x="879" y="311.3281"/><rect fill="#FFFFFF" height="30.3516" style="stroke:#181818;stroke-width:1.0;" width="10" x="1184.5" y="341.6797"/><rect fill="#FFFFFF" height="30.3516" style="stroke:#181818;stroke-width:1.0;" width="10" x="1184.5" y="559.9766"/><rect fill="none" height="218.2969" style="stroke:#000000;stroke-width:1.5;" width="666" x="594" y="417.3828"/><rect fill="none" height="155.5938" style="stroke:#000000;stroke-width:1.5;" width="646" x="604" y="473.0859"/><line style="stroke:#181818;stroke-width:0.5;stroke-dasharray:5.0,5.0;" x1="35" x2="35" y1="121.2188" y2="787.0859"/><line style="stroke:#181818;stroke-width:0.5;stroke-dasharray:5.0,5.0;" x1="256.5" x2="256.5" y1="121.2188" y2="787.0859"/><line style="stroke:#181818;stroke-width:0.5;stroke-dasharray:5.0,5.0;" x1="476" x2="476" y1="121.2188" y2="787.0859"/><line style="stroke:#181818;stroke-width:0.5;stroke-dasharray:5.0,5.0;" x1="701" x2="701" y1="121.2188" y2="787.0859"/><line style="stroke:#181818;stroke-width:0.5;stroke-dasharray:5.0,5.0;" x1="884" x2="884" y1="121.2188" y2="787.0859"/><line style="stroke:#181818;stroke-width:0.5;stroke-dasharray:5.0,5.0;" x1="1054" x2="1054" y1="121.2188" y2="787.0859"/><line style="stroke:#181818;stroke-width:0.5;stroke-dasharray:5.0,5.0;" x1="1189" x2="1189" y1="121.2188" y2="787.0859"/><text fill="#000000" font-family="sans-serif" font-size="14" lengthAdjust="spacing" textLength="55" x="5" y="118.1426">Direttore</text><ellipse cx="35.5" cy="52.1094" fill="#E2E2F0" rx="8" ry="8" style="stroke:#181818;stroke-width:0.5;"/><path d="M35.5,60.1094 L35.5,87.1094 M22.5,68.1094 L48.5,68.1094 M35.5,87.1094 L22.5,102.1094 M35.5,87.1094 L48.5,102.1094 " fill="none" style="stroke:#181818;stroke-width:0.5;"/><text fill="#000000" font-family="sans-serif" font-size="14" lengthAdjust="spacing" textLength="55" x="5" y="800.6191">Direttore</text><ellipse cx="35.5" cy="812.1953" fill="#E2E2F0" rx="8" ry="8" style="stroke:#181818;stroke-width:0.5;"/><path d="M35.5,820.1953 L35.5,847.1953 M22.5,828.1953 L48.5,828.1953 M35.5,847.1953 L22.5,862.1953 M35.5,847.1953 L48.5,862.1953 " fill="none" style="stroke:#181818;stroke-width:0.5;"/><text fill="#000000" font-family="sans-serif" font-size="14" lengthAdjust="spacing" textLength="150" x="178.5" y="100.5332">GestionePersonaleView</text><text fill="#000000" font-family="sans-serif" font-size="14" lengthAdjust="spacing" textLength="77" x="215" y="118.1426">&#171;Boundary&#187;</text><path d="M236,58 L236,82 M236,70 L253,70 " fill="none" style="stroke:#181818;stroke-width:0.5;"/><ellipse cx="265" cy="70" fill="#E2E2F0" rx="12" ry="12" style="stroke:#181818;stroke-width:0.5;"/><text fill="#000000" font-family="sans-serif" font-size="14" lengthAdjust="spacing" textLength="150" x="178.5" y="800.6191">GestionePersonaleView</text><text fill="#000000" font-family="sans-serif" font-size="14" lengthAdjust="spacing" textLength="77" x="215" y="818.2285">&#171;Boundary&#187;</text><path d="M236,825.3047 L236,849.3047 M236,837.3047 L253,837.3047 " fill="none" style="stroke:#181818;stroke-width:0.5;"/><ellipse cx="265" cy="837.3047" fill="#E2E2F0" rx="12" ry="12" style="stroke:#181818;stroke-width:0.5;"/><text fill="#000000" font-family="sans-serif" font-size="14" lengthAdjust="spacing" textLength="115" x="416" y="100.5332">GestorePersonale</text><text fill="#000000" font-family="sans-serif" font-size="14" lengthAdjust="spacing" textLength="78" x="434.5" y="118.1426">&#171;Controller&#187;</text><ellipse cx="476.5" cy="70" fill="#E2E2F0" rx="12" ry="12" style="stroke:#181818;stroke-width:0.5;"/><polygon fill="#181818" points="472.5,58,478.5,53,476.5,58,478.5,63,472.5,58" style="stroke:#181818;stroke-width:1.0;"/><text fill="#000000" font-family="sans-serif" font-size="14" lengthAdjust="spacing" textLength="115" x="416" y="800.6191">GestorePersonale</text><text fill="#000000" font-family="sans-serif" font-size="14" lengthAdjust="spacing" textLength="78" x="434.5" y="818.2285">&#171;Controller&#187;</text><ellipse cx="476.5" cy="837.3047" fill="#E2E2F0" rx="12" ry="12" style="stroke:#181818;stroke-width:0.5;"/><polygon fill="#181818" points="472.5,825.3047,478.5,820.3047,476.5,825.3047,478.5,830.3047,472.5,825.3047" style="stroke:#181818;stroke-width:1.0;"/><text fill="#000000" font-family="sans-serif" font-size="14" lengthAdjust="spacing" textLength="169" x="614" y="100.5332">ServizioRetribuzioniMySQL</text><text fill="#000000" font-family="sans-serif" font-size="14" lengthAdjust="spacing" textLength="63" x="667" y="118.1426">&#171;Service&#187;</text><ellipse cx="701.5" cy="70" fill="#E2E2F0" rx="12" ry="12" style="stroke:#181818;stroke-width:0.5;"/><polygon fill="#181818" points="697.5,58,703.5,53,701.5,58,703.5,63,697.5,58" style="stroke:#181818;stroke-width:1.0;"/><text fill="#000000" font-family="sans-serif" font-size="14" lengthAdjust="spacing" textLength="169" x="614" y="800.6191">ServizioRetribuzioniMySQL</text><text fill="#000000" font-family="sans-serif" font-size="14" lengthAdjust="spacing" textLength="63" x="667" y="818.2285">&#171;Service&#187;</text><ellipse cx="701.5" cy="837.3047" fill="#E2E2F0" rx="12" ry="12" style="stroke:#181818;stroke-width:0.5;"/><polygon fill="#181818" points="697.5,825.3047,703.5,820.3047,701.5,825.3047,703.5,830.3047,697.5,825.3047" style="stroke:#181818;stroke-width:1.0;"/><text fill="#000000" font-family="sans-serif" font-size="14" lengthAdjust="spacing" textLength="164" x="799" y="100.5332">dao: PersonalTrainerDAO</text><text fill="#000000" font-family="sans-serif" font-size="14" lengthAdjust="spacing" textLength="71" x="845.5" y="118.1426">&#171;Interface&#187;</text><ellipse cx="884" cy="70" fill="#E2E2F0" rx="12" ry="12" style="stroke:#181818;stroke-width:0.5;"/><line style="stroke:#181818;stroke-width:0.5;" x1="872" x2="896" y1="84" y2="84"/><text fill="#000000" font-family="sans-serif" font-size="14" lengthAdjust="spacing" textLength="164" x="799" y="800.6191">dao: PersonalTrainerDAO</text><text fill="#000000" font-family="sans-serif" font-size="14" lengthAdjust="spacing" textLength="71" x="845.5" y="818.2285">&#171;Interface&#187;</text><ellipse cx="884" cy="837.3047" fill="#E2E2F0" rx="12" ry="12" style="stroke:#181818;stroke-width:0.5;"/><line style="stroke:#181818;stroke-width:0.5;" x1="872" x2="896" y1="851.3047" y2="851.3047"/><rect fill="#E2E2F0" height="49.2188" rx="2.5" ry="2.5" style="stroke:#181818;stroke-width:0.5;" width="150" x="979" y="71"/><text fill="#000000" font-family="sans-serif" font-size="14" lengthAdjust="spacing" textLength="136" x="986" y="92.5332">StrategiaRetribuzione</text><text fill="#000000" font-family="sans-serif" font-size="14" lengthAdjust="spacing" textLength="69" x="1019.5" y="110.1426">&#171;Strategy&#187;</text><rect fill="#E2E2F0" height="49.2188" rx="2.5" ry="2.5" style="stroke:#181818;stroke-width:0.5;" width="150" x="979" y="786.0859"/><text fill="#000000" font-family="sans-serif" font-size="14" lengthAdjust="spacing" textLength="136" x="986" y="807.6191">StrategiaRetribuzione</text><text fill="#000000" font-family="sans-serif" font-size="14" lengthAdjust="spacing" textLength="69" x="1019.5" y="825.2285">&#171;Strategy&#187;</text><text fill="#000000" font-family="sans-serif" font-size="14" lengthAdjust="spacing" textLength="95" x="1139" y="118.1426">scriptactive_db</text><path d="M1171.5,67.6094 C1171.5,57.6094 1189.5,57.6094 1189.5,57.6094 C1189.5,57.6094 1207.5,57.6094 1207.5,67.6094 L1207.5,93.6094 C1207.5,103.6094 1189.5,103.6094 1189.5,103.6094 C1189.5,103.6094 1171.5,103.6094 1171.5,93.6094 L1171.5,67.6094 " fill="#E2E2F0" style="stroke:#181818;stroke-width:1.5;"/><path d="M1171.5,67.6094 C1171.5,77.6094 1189.5,77.6094 1189.5,77.6094 C1189.5,77.6094 1207.5,77.6094 1207.5,67.6094 " fill="none" style="stroke:#181818;stroke-width:1.5;"/><text fill="#000000" font-family="sans-serif" font-size="14" lengthAdjust="spacing" textLength="95" x="1139" y="800.6191">scriptactive_db</text><path d="M1171.5,813.6953 C1171.5,803.6953 1189.5,803.6953 1189.5,803.6953 C1189.5,803.6953 1207.5,803.6953 1207.5,813.6953 L1207.5,839.6953 C1207.5,849.6953 1189.5,849.6953 1189.5,849.6953 C1189.5,849.6953 1171.5,849.6953 1171.5,839.6953 L1171.5,813.6953 " fill="#E2E2F0" style="stroke:#181818;stroke-width:1.5;"/><path d="M1171.5,813.6953 C1171.5,823.6953 1189.5,823.6953 1189.5,823.6953 C1189.5,823.6953 1207.5,823.6953 1207.5,813.6953 " fill="none" style="stroke:#181818;stroke-width:1.5;"/><rect fill="#FFFFFF" height="444.7578" style="stroke:#181818;stroke-width:1.0;" width="10" x="471.5" y="250.625"/><rect fill="#FFFFFF" height="384.0547" style="stroke:#181818;stroke-width:1.0;" width="10" x="696.5" y="280.9766"/><rect fill="#FFFFFF" height="91.0547" style="stroke:#181818;stroke-width:1.0;" width="10" x="879" y="311.3281"/><rect fill="#FFFFFF" height="30.3516" style="stroke:#181818;stroke-width:1.0;" width="10" x="1184.5" y="341.6797"/><rect fill="#FFFFFF" height="30.3516" style="stroke:#181818;stroke-width:1.0;" width="10" x="1184.5" y="559.9766"/><polygon fill="#181818" points="244.5,149.5703,254.5,153.5703,244.5,157.5703,248.5,153.5703" style="stroke:#181818;stroke-width:1.0;"/><line style="stroke:#181818;stroke-width:1.0;" x1="35.5" x2="250.5" y1="153.5703" y2="153.5703"/><text fill="#000000" font-family="sans-serif" font-size="13" font-weight="bold" lengthAdjust="spacing" textLength="7" x="42.5" y="148.7139">1</text><text fill="#000000" font-family="sans-serif" font-size="13" lengthAdjust="spacing" textLength="158" x="53.5" y="148.7139">clicca "Calcola retribuzioni"</text><polygon fill="#181818" points="464.5,179.9219,474.5,183.9219,464.5,187.9219,468.5,183.9219" style="stroke:#181818;stroke-width:1.0;"/><line style="stroke:#181818;stroke-width:1.0;" x1="256.5" x2="470.5" y1="183.9219" y2="183.9219"/><text fill="#000000" font-family="sans-serif" font-size="13" font-weight="bold" lengthAdjust="spacing" textLength="7" x="263.5" y="179.0654">2</text><text fill="#000000" font-family="sans-serif" font-size="13" lengthAdjust="spacing" textLength="75" x="274.5" y="179.0654">getInstance()</text><path d="M481,196.9219 L481,222.9219 L602,222.9219 L602,206.9219 L592,196.9219 L481,196.9219 " fill="#FEFFDD" style="stroke:#181818;stroke-width:0.5;"/><path d="M592,196.9219 L592,206.9219 L602,206.9219 L592,196.9219 " fill="#FEFFDD" style="stroke:#181818;stroke-width:0.5;"/><text fill="#000000" font-family="sans-serif" font-size="13" lengthAdjust="spacing" textLength="100" x="487" y="215.417">Pattern Singleton</text><polygon fill="#181818" points="459.5,246.625,469.5,250.625,459.5,254.625,463.5,250.625" style="stroke:#181818;stroke-width:1.0;"/><line style="stroke:#181818;stroke-width:1.0;" x1="256.5" x2="465.5" y1="250.625" y2="250.625"/><text fill="#000000" font-family="sans-serif" font-size="13" font-weight="bold" lengthAdjust="spacing" textLength="7" x="263.5" y="245.7686">3</text><text fill="#000000" font-family="sans-serif" font-size="13" lengthAdjust="spacing" textLength="185" x="274.5" y="245.7686">calcolaRetribuzioni(mese, anno)</text><polygon fill="#181818" points="684.5,276.9766,694.5,280.9766,684.5,284.9766,688.5,280.9766" style="stroke:#181818;stroke-width:1.0;"/><line style="stroke:#181818;stroke-width:1.0;" x1="481.5" x2="690.5" y1="280.9766" y2="280.9766"/><text fill="#000000" font-family="sans-serif" font-size="13" font-weight="bold" lengthAdjust="spacing" textLength="7" x="488.5" y="276.1201">4</text><text fill="#000000" font-family="sans-serif" font-size="13" lengthAdjust="spacing" textLength="185" x="499.5" y="276.1201">calcolaRetribuzioni(mese, anno)</text><polygon fill="#181818" points="867,307.3281,877,311.3281,867,315.3281,871,311.3281" style="stroke:#181818;stroke-width:1.0;"/><line style="stroke:#181818;stroke-width:1.0;" x1="706.5" x2="873" y1="311.3281" y2="311.3281"/><text fill="#000000" font-family="sans-serif" font-size="13" font-weight="bold" lengthAdjust="spacing" textLength="7" x="713.5" y="306.4717">5</text><text fill="#000000" font-family="sans-serif" font-size="13" lengthAdjust="spacing" textLength="60" x="724.5" y="306.4717">trovaTutti()</text><polygon fill="#181818" points="1172.5,337.6797,1182.5,341.6797,1172.5,345.6797,1176.5,341.6797" style="stroke:#181818;stroke-width:1.0;"/><line style="stroke:#181818;stroke-width:1.0;" x1="889" x2="1178.5" y1="341.6797" y2="341.6797"/><text fill="#000000" font-family="sans-serif" font-size="13" font-weight="bold" lengthAdjust="spacing" textLength="7" x="896" y="336.8232">6</text><text fill="#000000" font-family="sans-serif" font-size="13" lengthAdjust="spacing" textLength="174" x="907" y="336.8232">SELECT PersonalTrainer attivi</text><polygon fill="#181818" points="900,368.0313,890,372.0313,900,376.0313,896,372.0313" style="stroke:#181818;stroke-width:1.0;"/><line style="stroke:#181818;stroke-width:1.0;stroke-dasharray:2.0,2.0;" x1="894" x2="1188.5" y1="372.0313" y2="372.0313"/><text fill="#000000" font-family="sans-serif" font-size="13" font-weight="bold" lengthAdjust="spacing" textLength="7" x="906" y="367.1748">7</text><text fill="#000000" font-family="sans-serif" font-size="13" lengthAdjust="spacing" textLength="88" x="917" y="367.1748">elenco PT attivi</text><polygon fill="#181818" points="717.5,398.3828,707.5,402.3828,717.5,406.3828,713.5,402.3828" style="stroke:#181818;stroke-width:1.0;"/><line style="stroke:#181818;stroke-width:1.0;stroke-dasharray:2.0,2.0;" x1="711.5" x2="883" y1="402.3828" y2="402.3828"/><text fill="#000000" font-family="sans-serif" font-size="13" font-weight="bold" lengthAdjust="spacing" textLength="7" x="723.5" y="397.5264">8</text><text fill="#000000" font-family="sans-serif" font-size="13" lengthAdjust="spacing" textLength="74" x="734.5" y="397.5264">lista PT attivi</text><path d="M594,417.3828 L667,417.3828 L667,425.7344 L657,435.7344 L594,435.7344 L594,417.3828 " fill="#EEEEEE" style="stroke:#000000;stroke-width:1.5;"/><rect fill="none" height="218.2969" style="stroke:#000000;stroke-width:1.5;" width="666" x="594" y="417.3828"/><text fill="#000000" font-family="sans-serif" font-size="13" font-weight="bold" lengthAdjust="spacing" textLength="28" x="609" y="431.8779">loop</text><text fill="#000000" font-family="sans-serif" font-size="11" font-weight="bold" lengthAdjust="spacing" textLength="179" x="682" y="430.8018">[per ogni PersonalTrainer attivo]</text><polygon fill="#181818" points="1042,454.0859,1052,458.0859,1042,462.0859,1046,458.0859" style="stroke:#181818;stroke-width:1.0;"/><line style="stroke:#181818;stroke-width:1.0;" x1="706.5" x2="1048" y1="458.0859" y2="458.0859"/><text fill="#000000" font-family="sans-serif" font-size="13" font-weight="bold" lengthAdjust="spacing" textLength="7" x="713.5" y="453.2295">9</text><text fill="#000000" font-family="sans-serif" font-size="13" lengthAdjust="spacing" textLength="132" x="724.5" y="453.2295">calcolaRetribuzione(pt)</text><path d="M604,473.0859 L665,473.0859 L665,481.4375 L655,491.4375 L604,491.4375 L604,473.0859 " fill="#EEEEEE" style="stroke:#000000;stroke-width:1.5;"/><rect fill="none" height="155.5938" style="stroke:#000000;stroke-width:1.5;" width="646" x="604" y="473.0859"/><text fill="#000000" font-family="sans-serif" font-size="13" font-weight="bold" lengthAdjust="spacing" textLength="16" x="619" y="487.5811">alt</text><text fill="#000000" font-family="sans-serif" font-size="11" font-weight="bold" lengthAdjust="spacing" textLength="197" x="680" y="486.5049">[TipoRetribuzione = FISSA_MENSILE]</text><polygon fill="#181818" points="717.5,509.7891,707.5,513.7891,717.5,517.7891,713.5,513.7891" style="stroke:#181818;stroke-width:1.0;"/><line style="stroke:#181818;stroke-width:1.0;stroke-dasharray:2.0,2.0;" x1="711.5" x2="1053" y1="513.7891" y2="513.7891"/><text fill="#000000" font-family="sans-serif" font-size="13" font-weight="bold" lengthAdjust="spacing" textLength="14" x="723.5" y="508.9326">10</text><text fill="#000000" font-family="sans-serif" font-size="13" lengthAdjust="spacing" textLength="101" x="741.5" y="508.9326">stipendio mensile</text><line style="stroke:#000000;stroke-width:1.0;stroke-dasharray:2.0,2.0;" x1="604" x2="1250" y1="522.7891" y2="522.7891"/><text fill="#000000" font-family="sans-serif" font-size="11" font-weight="bold" lengthAdjust="spacing" textLength="172" x="609" y="534.208">[TipoRetribuzione = A_LEZIONE]</text><polygon fill="#181818" points="1172.5,555.9766,1182.5,559.9766,1172.5,563.9766,1176.5,559.9766" style="stroke:#181818;stroke-width:1.0;"/><line style="stroke:#181818;stroke-width:1.0;" x1="706.5" x2="1178.5" y1="559.9766" y2="559.9766"/><text fill="#000000" font-family="sans-serif" font-size="13" font-weight="bold" lengthAdjust="spacing" textLength="14" x="713.5" y="555.1201">11</text><text fill="#000000" font-family="sans-serif" font-size="13" lengthAdjust="spacing" textLength="203" x="731.5" y="555.1201">SELECT corsi completati nel mese</text><polygon fill="#181818" points="717.5,586.3281,707.5,590.3281,717.5,594.3281,713.5,590.3281" style="stroke:#181818;stroke-width:1.0;"/><line style="stroke:#181818;stroke-width:1.0;stroke-dasharray:2.0,2.0;" x1="711.5" x2="1188.5" y1="590.3281" y2="590.3281"/><text fill="#000000" font-family="sans-serif" font-size="13" font-weight="bold" lengthAdjust="spacing" textLength="14" x="723.5" y="585.4717">12</text><text fill="#000000" font-family="sans-serif" font-size="13" lengthAdjust="spacing" textLength="152" x="741.5" y="585.4717">numero lezioni completate</text><polygon fill="#181818" points="717.5,616.6797,707.5,620.6797,717.5,624.6797,713.5,620.6797" style="stroke:#181818;stroke-width:1.0;"/><line style="stroke:#181818;stroke-width:1.0;stroke-dasharray:2.0,2.0;" x1="711.5" x2="1053" y1="620.6797" y2="620.6797"/><text fill="#000000" font-family="sans-serif" font-size="13" font-weight="bold" lengthAdjust="spacing" textLength="14" x="723.5" y="615.8232">13</text><text fill="#000000" font-family="sans-serif" font-size="13" lengthAdjust="spacing" textLength="177" x="741.5" y="615.8232">compenso per lezione * lezioni</text><polygon fill="#181818" points="492.5,661.0313,482.5,665.0313,492.5,669.0313,488.5,665.0313" style="stroke:#181818;stroke-width:1.0;"/><line style="stroke:#181818;stroke-width:1.0;stroke-dasharray:2.0,2.0;" x1="486.5" x2="700.5" y1="665.0313" y2="665.0313"/><text fill="#000000" font-family="sans-serif" font-size="13" font-weight="bold" lengthAdjust="spacing" textLength="14" x="498.5" y="660.1748">14</text><text fill="#000000" font-family="sans-serif" font-size="13" lengthAdjust="spacing" textLength="106" x="516.5" y="660.1748">mappa retribuzioni</text><polygon fill="#181818" points="267.5,691.3828,257.5,695.3828,267.5,699.3828,263.5,695.3828" style="stroke:#181818;stroke-width:1.0;"/><line style="stroke:#181818;stroke-width:1.0;stroke-dasharray:2.0,2.0;" x1="261.5" x2="475.5" y1="695.3828" y2="695.3828"/><text fill="#000000" font-family="sans-serif" font-size="13" font-weight="bold" lengthAdjust="spacing" textLength="14" x="273.5" y="690.5264">15</text><text fill="#000000" font-family="sans-serif" font-size="13" lengthAdjust="spacing" textLength="91" x="291.5" y="690.5264">risultato calcolo</text><line style="stroke:#181818;stroke-width:1.0;" x1="256.5" x2="298.5" y1="725.7344" y2="725.7344"/><line style="stroke:#181818;stroke-width:1.0;" x1="298.5" x2="298.5" y1="725.7344" y2="738.7344"/><line style="stroke:#181818;stroke-width:1.0;" x1="257.5" x2="298.5" y1="738.7344" y2="738.7344"/><polygon fill="#181818" points="267.5,734.7344,257.5,738.7344,267.5,742.7344,263.5,738.7344" style="stroke:#181818;stroke-width:1.0;"/><text fill="#000000" font-family="sans-serif" font-size="13" font-weight="bold" lengthAdjust="spacing" textLength="14" x="263.5" y="720.8779">16</text><text fill="#000000" font-family="sans-serif" font-size="13" lengthAdjust="spacing" textLength="116" x="281.5" y="720.8779">mostraRetribuzioni()</text><polygon fill="#181818" points="46.5,765.0859,36.5,769.0859,46.5,773.0859,42.5,769.0859" style="stroke:#181818;stroke-width:1.0;"/><line style="stroke:#181818;stroke-width:1.0;stroke-dasharray:2.0,2.0;" x1="40.5" x2="255.5" y1="769.0859" y2="769.0859"/><text fill="#000000" font-family="sans-serif" font-size="13" font-weight="bold" lengthAdjust="spacing" textLength="14" x="52.5" y="764.2295">17</text><text fill="#000000" font-family="sans-serif" font-size="13" lengthAdjust="spacing" textLength="179" x="70.5" y="764.2295">visualizza retribuzioni calcolate</text><!--SRC=[bLHDRzim3BthLn0v9SDwtANe2hHfDWH8FpPdEmm32aPcCmAAPCXqXlNNZ_vM2kTG7uBOUdmatoCbB8xWn_8JNC0zieUiifRA4Z9B7YE7IrYYiy45Y2IHTzKh1y_6O2N1LuSTHVrl9KIOtR52z1_D04iOtimkL3x7-0zcNwaK3QSdYcNmwEWdqz_V_khgjeDSNpUnzMTZWvSON1kbF4DG7R1i3nt5BcJyC0Pc58-izNvFAh__bttRr0pDeQKkF8Lq9uQyi6ZLEQeAVVPjL9KetjqyrYHhBnHVSA1vskg1AJ0AMoxGYnOX4ONsZ4cAfeNkeEzvm9aS1NTO4inA6xaGbPUFz9plMbrlZHcqXOlhHYou1ElOMeHPQnUUs3Kpfa4fUjH9O_OaQryAUalpXV5122Bl_mY4brJG9nHjKsU3_TwH-gxIv533p_3QjePKrFc1Ile8w7rOcAOZxJPDOX86vPimv3t4KtwQAKvDrPYcv9hzYDjAXES9KskfQK6AlhjLQBRQh9RRjqC1gXCVUOnLhnH-aUGWHzu6VUsnEQNeFirP0HohNTFXNQ4kX08ABIRiFKzN60peSqQDOGudvQPv8GlJnACJs7AHRXV1P_YophARv_lLGxRUh1fW_OoivtlJkw7GmU801_8bEsgYoUacJEIvUTwiVgqV7yOSPnfA3RCXbgo_XqBd68N1auDwW0QIr8t-M-VXTDLw2L8CuAZvFdAFb6yiVeyaDPjg4Hf3snG47_fahJu-hzVnp7I_tSm35iNftP2EqEJMf7ivNZUHoyffcw4Raf3of6lTNn1Tt26KslV90YywJEtLSB5Tmb4peEFNrzDw-w5KWVy3]--></g></svg>