<?xml version="1.0" encoding="us-ascii" standalone="no"?><svg xmlns="http://www.w3.org/2000/svg" xmlns:xlink="http://www.w3.org/1999/xlink" contentStyleType="text/css" height="839px" preserveAspectRatio="none" style="width:1214px;height:839px;background:#FFFFFF;" version="1.1" viewBox="0 0 1214 839" width="1214px" zoomAndPan="magnify"><defs/><g><text fill="#000000" font-family="sans-serif" font-size="14" font-weight="bold" lengthAdjust="spacing" textLength="388" x="414.5" y="29.5332">UC5 - Alternative Flow A3: SostitutoNonValidoException</text><rect fill="#FFFFFF" height="463.9219" style="stroke:#181818;stroke-width:1.0;" width="10" x="557.5" y="244.625"/><rect fill="#FFFFFF" height="91.0547" style="stroke:#181818;stroke-width:1.0;" width="10" x="747.5" y="274.9766"/><rect fill="#FFFFFF" height="91.0547" style="stroke:#181818;stroke-width:1.0;" width="10" x="747.5" y="396.3828"/><rect fill="#FFFFFF" height="160.4063" style="stroke:#181818;stroke-width:1.0;" width="10" x="933.5" y="517.7891"/><rect fill="#FFFFFF" height="30.3516" style="stroke:#181818;stroke-width:1.0;" width="10" x="1157.5" y="305.3281"/><rect fill="#FFFFFF" height="30.3516" style="stroke:#181818;stroke-width:1.0;" width="10" x="1157.5" y="426.7344"/><line style="stroke:#181818;stroke-width:0.5;stroke-dasharray:5.0,5.0;" x1="35" x2="35" y1="121.2188" y2="756.8984"/><line style="stroke:#181818;stroke-width:0.5;stroke-dasharray:5.0,5.0;" x1="245.5" x2="245.5" y1="121.2188" y2="756.8984"/><line style="stroke:#181818;stroke-width:0.5;stroke-dasharray:5.0,5.0;" x1="562" x2="562" y1="121.2188" y2="756.8984"/><line style="stroke:#181818;stroke-width:0.5;stroke-dasharray:5.0,5.0;" x1="752.5" x2="752.5" y1="121.2188" y2="756.8984"/><line style="stroke:#181818;stroke-width:0.5;stroke-dasharray:5.0,5.0;" x1="938.5" x2="938.5" y1="121.2188" y2="756.8984"/><line style="stroke:#181818;stroke-width:0.5;stroke-dasharray:5.0,5.0;" x1="1162" x2="1162" y1="121.2188" y2="756.8984"/><text fill="#000000" font-family="sans-serif" font-size="14" lengthAdjust="spacing" textLength="55" x="5" y="118.1426">Direttore</text><ellipse cx="35.5" cy="52.1094" fill="#E2E2F0" rx="8" ry="8" style="stroke:#181818;stroke-width:0.5;"/><path d="M35.5,60.1094 L35.5,87.1094 M22.5,68.1094 L48.5,68.1094 M35.5,87.1094 L22.5,102.1094 M35.5,87.1094 L48.5,102.1094 " fill="none" style="stroke:#181818;stroke-width:0.5;"/><text fill="#000000" font-family="sans-serif" font-size="14" lengthAdjust="spacing" textLength="55" x="5" y="770.4316">Direttore</text><ellipse cx="35.5" cy="782.0078" fill="#E2E2F0" rx="8" ry="8" style="stroke:#181818;stroke-width:0.5;"/><path d="M35.5,790.0078 L35.5,817.0078 M22.5,798.0078 L48.5,798.0078 M35.5,817.0078 L22.5,832.0078 M35.5,817.0078 L48.5,832.0078 " fill="none" style="stroke:#181818;stroke-width:0.5;"/><text fill="#000000" font-family="sans-serif" font-size="14" lengthAdjust="spacing" textLength="150" x="167.5" y="100.5332">GestionePersonaleView</text><text fill="#000000" font-family="sans-serif" font-size="14" lengthAdjust="spacing" textLength="77" x="204" y="118.1426">&#171;Boundary&#187;</text><path d="M225,58 L225,82 M225,70 L242,70 " fill="none" style="stroke:#181818;stroke-width:0.5;"/><ellipse cx="254" cy="70" fill="#E2E2F0" rx="12" ry="12" style="stroke:#181818;stroke-width:0.5;"/><text fill="#000000" font-family="sans-serif" font-size="14" lengthAdjust="spacing" textLength="150" x="167.5" y="770.4316">GestionePersonaleView</text><text fill="#000000" font-family="sans-serif" font-size="14" lengthAdjust="spacing" textLength="77" x="204" y="788.041">&#171;Boundary&#187;</text><path d="M225,795.1172 L225,819.1172 M225,807.1172 L242,807.1172 " fill="none" style="stroke:#181818;stroke-width:0.5;"/><ellipse cx="254" cy="807.1172" fill="#E2E2F0" rx="12" ry="12" style="stroke:#181818;stroke-width:0.5;"/><text fill="#000000" font-family="sans-serif" font-size="14" lengthAdjust="spacing" textLength="115" x="502" y="100.5332">GestorePersonale</text><text fill="#000000" font-family="sans-serif" font-size="14" lengthAdjust="spacing" textLength="78" x="520.5" y="118.1426">&#171;Controller&#187;</text><ellipse cx="562.5" cy="70" fill="#E2E2F0" rx="12" ry="12" style="stroke:#181818;stroke-width:0.5;"/><polygon fill="#181818" points="558.5,58,564.5,53,562.5,58,564.5,63,558.5,58" style="stroke:#181818;stroke-width:1.0;"/><text fill="#000000" font-family="sans-serif" font-size="14" lengthAdjust="spacing" textLength="115" x="502" y="770.4316">GestorePersonale</text><text fill="#000000" font-family="sans-serif" font-size="14" lengthAdjust="spacing" textLength="78" x="520.5" y="788.041">&#171;Controller&#187;</text><ellipse cx="562.5" cy="807.1172" fill="#E2E2F0" rx="12" ry="12" style="stroke:#181818;stroke-width:0.5;"/><polygon fill="#181818" points="558.5,795.1172,564.5,790.1172,562.5,795.1172,564.5,800.1172,558.5,795.1172" style="stroke:#181818;stroke-width:1.0;"/><text fill="#000000" font-family="sans-serif" font-size="14" lengthAdjust="spacing" textLength="164" x="667.5" y="100.5332">dao: PersonalTrainerDAO</text><text fill="#000000" font-family="sans-serif" font-size="14" lengthAdjust="spacing" textLength="71" x="714" y="118.1426">&#171;Interface&#187;</text><ellipse cx="752.5" cy="70" fill="#E2E2F0" rx="12" ry="12" style="stroke:#181818;stroke-width:0.5;"/><line style="stroke:#181818;stroke-width:0.5;" x1="740.5" x2="764.5" y1="84" y2="84"/><text fill="#000000" font-family="sans-serif" font-size="14" lengthAdjust="spacing" textLength="164" x="667.5" y="770.4316">dao: PersonalTrainerDAO</text><text fill="#000000" font-family="sans-serif" font-size="14" lengthAdjust="spacing" textLength="71" x="714" y="788.041">&#171;Interface&#187;</text><ellipse cx="752.5" cy="807.1172" fill="#E2E2F0" rx="12" ry="12" style="stroke:#181818;stroke-width:0.5;"/><line style="stroke:#181818;stroke-width:0.5;" x1="740.5" x2="764.5" y1="821.1172" y2="821.1172"/><text fill="#000000" font-family="sans-serif" font-size="14" lengthAdjust="spacing" textLength="162" x="854.5" y="100.5332">ServizioSwapCorsiMySQL</text><text fill="#000000" font-family="sans-serif" font-size="14" lengthAdjust="spacing" textLength="63" x="904" y="118.1426">&#171;Service&#187;</text><ellipse cx="938.5" cy="70" fill="#E2E2F0" rx="12" ry="12" style="stroke:#181818;stroke-width:0.5;"/><polygon fill="#181818" points="934.5,58,940.5,53,938.5,58,940.5,63,934.5,58" style="stroke:#181818;stroke-width:1.0;"/><text fill="#000000" font-family="sans-serif" font-size="14" lengthAdjust="spacing" textLength="162" x="854.5" y="770.4316">ServizioSwapCorsiMySQL</text><text fill="#000000" font-family="sans-serif" font-size="14" lengthAdjust="spacing" textLength="63" x="904" y="788.041">&#171;Service&#187;</text><ellipse cx="938.5" cy="807.1172" fill="#E2E2F0" rx="12" ry="12" style="stroke:#181818;stroke-width:0.5;"/><polygon fill="#181818" points="934.5,795.1172,940.5,790.1172,938.5,795.1172,940.5,800.1172,934.5,795.1172" style="stroke:#181818;stroke-width:1.0;"/><text fill="#000000" font-family="sans-serif" font-size="14" lengthAdjust="spacing" textLength="95" x="1112" y="118.1426">scriptactive_db</text><path d="M1144.5,67.6094 C1144.5,57.6094 1162.5,57.6094 1162.5,57.6094 C1162.5,57.6094 1180.5,57.6094 1180.5,67.6094 L1180.5,93.6094 C1180.5,103.6094 1162.5,103.6094 1162.5,103.6094 C1162.5,103.6094 1144.5,103.6094 1144.5,93.6094 L1144.5,67.6094 " fill="#E2E2F0" style="stroke:#181818;stroke-width:1.5;"/><path d="M1144.5,67.6094 C1144.5,77.6094 1162.5,77.6094 1162.5,77.6094 C1162.5,77.6094 1180.5,77.6094 1180.5,67.6094 " fill="none" style="stroke:#181818;stroke-width:1.5;"/><text fill="#000000" font-family="sans-serif" font-size="14" lengthAdjust="spacing" textLength="95" x="1112" y="770.4316">scriptactive_db</text><path d="M1144.5,783.5078 C1144.5,773.5078 1162.5,773.5078 1162.5,773.5078 C1162.5,773.5078 1180.5,773.5078 1180.5,783.5078 L1180.5,809.5078 C1180.5,819.5078 1162.5,819.5078 1162.5,819.5078 C1162.5,819.5078 1144.5,819.5078 1144.5,809.5078 L1144.5,783.5078 " fill="#E2E2F0" style="stroke:#181818;stroke-width:1.5;"/><path d="M1144.5,783.5078 C1144.5,793.5078 1162.5,793.5078 1162.5,793.5078 C1162.5,793.5078 1180.5,793.5078 1180.5,783.5078 " fill="none" style="stroke:#181818;stroke-width:1.5;"/><rect fill="#FFFFFF" height="463.9219" style="stroke:#181818;stroke-width:1.0;" width="10" x="557.5" y="244.625"/><rect fill="#FFFFFF" height="91.0547" style="stroke:#181818;stroke-width:1.0;" width="10" x="747.5" y="274.9766"/><rect fill="#FFFFFF" height="91.0547" style="stroke:#181818;stroke-width:1.0;" width="10" x="747.5" y="396.3828"/><rect fill="#FFFFFF" height="160.4063" style="stroke:#181818;stroke-width:1.0;" width="10" x="933.5" y="517.7891"/><rect fill="#FFFFFF" height="30.3516" style="stroke:#181818;stroke-width:1.0;" width="10" x="1157.5" y="305.3281"/><rect fill="#FFFFFF" height="30.3516" style="stroke:#181818;stroke-width:1.0;" width="10" x="1157.5" y="426.7344"/><polygon fill="#181818" points="233.5,149.5703,243.5,153.5703,233.5,157.5703,237.5,153.5703" style="stroke:#181818;stroke-width:1.0;"/><line style="stroke:#181818;stroke-width:1.0;" x1="35.5" x2="239.5" y1="153.5703" y2="153.5703"/><text fill="#000000" font-family="sans-serif" font-size="13" font-weight="bold" lengthAdjust="spacing" textLength="7" x="42.5" y="148.7139">1</text><text fill="#000000" font-family="sans-serif" font-size="13" lengthAdjust="spacing" textLength="152" x="53.5" y="148.7139">seleziona PT da licenziare</text><polygon fill="#181818" points="233.5,179.9219,243.5,183.9219,233.5,187.9219,237.5,183.9219" style="stroke:#181818;stroke-width:1.0;"/><line style="stroke:#181818;stroke-width:1.0;" x1="35.5" x2="239.5" y1="183.9219" y2="183.9219"/><text fill="#000000" font-family="sans-serif" font-size="13" font-weight="bold" lengthAdjust="spacing" textLength="7" x="42.5" y="179.0654">2</text><text fill="#000000" font-family="sans-serif" font-size="13" lengthAdjust="spacing" textLength="129" x="53.5" y="179.0654">seleziona PT sostituto</text><polygon fill="#181818" points="233.5,210.2734,243.5,214.2734,233.5,218.2734,237.5,214.2734" style="stroke:#181818;stroke-width:1.0;"/><line style="stroke:#181818;stroke-width:1.0;" x1="35.5" x2="239.5" y1="214.2734" y2="214.2734"/><text fill="#000000" font-family="sans-serif" font-size="13" font-weight="bold" lengthAdjust="spacing" textLength="7" x="42.5" y="209.417">3</text><text fill="#000000" font-family="sans-serif" font-size="13" lengthAdjust="spacing" textLength="175" x="53.5" y="209.417">clicca "Licenzia con sostituto"</text><polygon fill="#181818" points="545.5,240.625,555.5,244.625,545.5,248.625,549.5,244.625" style="stroke:#181818;stroke-width:1.0;"/><line style="stroke:#181818;stroke-width:1.0;" x1="245.5" x2="551.5" y1="244.625" y2="244.625"/><text fill="#000000" font-family="sans-serif" font-size="13" font-weight="bold" lengthAdjust="spacing" textLength="7" x="252.5" y="239.7686">4</text><text fill="#000000" font-family="sans-serif" font-size="13" lengthAdjust="spacing" textLength="282" x="263.5" y="239.7686">licenziaConSostituto(idDaLicenziare, idSostituto)</text><polygon fill="#181818" points="735.5,270.9766,745.5,274.9766,735.5,278.9766,739.5,274.9766" style="stroke:#181818;stroke-width:1.0;"/><line style="stroke:#181818;stroke-width:1.0;" x1="567.5" x2="741.5" y1="274.9766" y2="274.9766"/><text fill="#000000" font-family="sans-serif" font-size="13" font-weight="bold" lengthAdjust="spacing" textLength="7" x="574.5" y="270.1201">5</text><text fill="#000000" font-family="sans-serif" font-size="13" lengthAdjust="spacing" textLength="150" x="585.5" y="270.1201">trovaPerId(idDaLicenziare)</text><polygon fill="#181818" points="1145.5,301.3281,1155.5,305.3281,1145.5,309.3281,1149.5,305.3281" style="stroke:#181818;stroke-width:1.0;"/><line style="stroke:#181818;stroke-width:1.0;" x1="757.5" x2="1151.5" y1="305.3281" y2="305.3281"/><text fill="#000000" font-family="sans-serif" font-size="13" font-weight="bold" lengthAdjust="spacing" textLength="7" x="764.5" y="300.4717">6</text><text fill="#000000" font-family="sans-serif" font-size="13" lengthAdjust="spacing" textLength="147" x="775.5" y="300.4717">SELECT PT da licenziare</text><polygon fill="#181818" points="768.5,331.6797,758.5,335.6797,768.5,339.6797,764.5,335.6797" style="stroke:#181818;stroke-width:1.0;"/><line style="stroke:#181818;stroke-width:1.0;stroke-dasharray:2.0,2.0;" x1="762.5" x2="1161.5" y1="335.6797" y2="335.6797"/><text fill="#000000" font-family="sans-serif" font-size="13" font-weight="bold" lengthAdjust="spacing" textLength="7" x="774.5" y="330.8232">7</text><text fill="#000000" font-family="sans-serif" font-size="13" lengthAdjust="spacing" textLength="118" x="785.5" y="330.8232">dati PT da licenziare</text><polygon fill="#181818" points="578.5,362.0313,568.5,366.0313,578.5,370.0313,574.5,366.0313" style="stroke:#181818;stroke-width:1.0;"/><line style="stroke:#181818;stroke-width:1.0;stroke-dasharray:2.0,2.0;" x1="572.5" x2="751.5" y1="366.0313" y2="366.0313"/><text fill="#000000" font-family="sans-serif" font-size="13" font-weight="bold" lengthAdjust="spacing" textLength="7" x="584.5" y="361.1748">8</text><text fill="#000000" font-family="sans-serif" font-size="13" lengthAdjust="spacing" textLength="86" x="595.5" y="361.1748">ptDaLicenziare</text><polygon fill="#181818" points="735.5,392.3828,745.5,396.3828,735.5,400.3828,739.5,396.3828" style="stroke:#181818;stroke-width:1.0;"/><line style="stroke:#181818;stroke-width:1.0;" x1="567.5" x2="741.5" y1="396.3828" y2="396.3828"/><text fill="#000000" font-family="sans-serif" font-size="13" font-weight="bold" lengthAdjust="spacing" textLength="7" x="574.5" y="391.5264">9</text><text fill="#000000" font-family="sans-serif" font-size="13" lengthAdjust="spacing" textLength="127" x="585.5" y="391.5264">trovaPerId(idSostituto)</text><polygon fill="#181818" points="1145.5,422.7344,1155.5,426.7344,1145.5,430.7344,1149.5,426.7344" style="stroke:#181818;stroke-width:1.0;"/><line style="stroke:#181818;stroke-width:1.0;" x1="757.5" x2="1151.5" y1="426.7344" y2="426.7344"/><text fill="#000000" font-family="sans-serif" font-size="13" font-weight="bold" lengthAdjust="spacing" textLength="14" x="764.5" y="421.8779">10</text><text fill="#000000" font-family="sans-serif" font-size="13" lengthAdjust="spacing" textLength="124" x="782.5" y="421.8779">SELECT PT sostituto</text><polygon fill="#181818" points="768.5,453.0859,758.5,457.0859,768.5,461.0859,764.5,457.0859" style="stroke:#181818;stroke-width:1.0;"/><line style="stroke:#181818;stroke-width:1.0;stroke-dasharray:2.0,2.0;" x1="762.5" x2="1161.5" y1="457.0859" y2="457.0859"/><text fill="#000000" font-family="sans-serif" font-size="13" font-weight="bold" lengthAdjust="spacing" textLength="14" x="774.5" y="452.2295">11</text><text fill="#000000" font-family="sans-serif" font-size="13" lengthAdjust="spacing" textLength="95" x="792.5" y="452.2295">dati PT sostituto</text><polygon fill="#181818" points="578.5,483.4375,568.5,487.4375,578.5,491.4375,574.5,487.4375" style="stroke:#181818;stroke-width:1.0;"/><line style="stroke:#181818;stroke-width:1.0;stroke-dasharray:2.0,2.0;" x1="572.5" x2="751.5" y1="487.4375" y2="487.4375"/><text fill="#000000" font-family="sans-serif" font-size="13" font-weight="bold" lengthAdjust="spacing" textLength="14" x="584.5" y="482.5811">12</text><text fill="#000000" font-family="sans-serif" font-size="13" lengthAdjust="spacing" textLength="63" x="602.5" y="482.5811">ptSostituto</text><polygon fill="#181818" points="921.5,513.7891,931.5,517.7891,921.5,521.7891,925.5,517.7891" style="stroke:#181818;stroke-width:1.0;"/><line style="stroke:#181818;stroke-width:1.0;" x1="567.5" x2="927.5" y1="517.7891" y2="517.7891"/><text fill="#000000" font-family="sans-serif" font-size="13" font-weight="bold" lengthAdjust="spacing" textLength="14" x="574.5" y="512.9326">13</text><text fill="#000000" font-family="sans-serif" font-size="13" lengthAdjust="spacing" textLength="329" x="592.5" y="512.9326">swapCorsiPerLicenziamento(ptDaLicenziare, ptSostituto)</text><line style="stroke:#181818;stroke-width:1.0;" x1="943.5" x2="985.5" y1="548.1406" y2="548.1406"/><line style="stroke:#181818;stroke-width:1.0;" x1="985.5" x2="985.5" y1="548.1406" y2="561.1406"/><line style="stroke:#181818;stroke-width:1.0;" x1="944.5" x2="985.5" y1="561.1406" y2="561.1406"/><polygon fill="#181818" points="954.5,557.1406,944.5,561.1406,954.5,565.1406,950.5,561.1406" style="stroke:#181818;stroke-width:1.0;"/><text fill="#000000" font-family="sans-serif" font-size="13" font-weight="bold" lengthAdjust="spacing" textLength="14" x="950.5" y="543.2842">14</text><text fill="#000000" font-family="sans-serif" font-size="13" lengthAdjust="spacing" textLength="127" x="968.5" y="543.2842">verifica sostituto attivo</text><line style="stroke:#181818;stroke-width:1.0;" x1="943.5" x2="985.5" y1="591.4922" y2="591.4922"/><line style="stroke:#181818;stroke-width:1.0;" x1="985.5" x2="985.5" y1="591.4922" y2="604.4922"/><line style="stroke:#181818;stroke-width:1.0;" x1="944.5" x2="985.5" y1="604.4922" y2="604.4922"/><polygon fill="#181818" points="954.5,600.4922,944.5,604.4922,954.5,608.4922,950.5,604.4922" style="stroke:#181818;stroke-width:1.0;"/><text fill="#000000" font-family="sans-serif" font-size="13" font-weight="bold" lengthAdjust="spacing" textLength="14" x="950.5" y="586.6357">15</text><text fill="#000000" font-family="sans-serif" font-size="13" lengthAdjust="spacing" textLength="99" x="968.5" y="586.6357">verifica PT diversi</text><line style="stroke:#181818;stroke-width:1.0;" x1="943.5" x2="985.5" y1="634.8438" y2="634.8438"/><line style="stroke:#181818;stroke-width:1.0;" x1="985.5" x2="985.5" y1="634.8438" y2="647.8438"/><line style="stroke:#181818;stroke-width:1.0;" x1="944.5" x2="985.5" y1="647.8438" y2="647.8438"/><polygon fill="#181818" points="954.5,643.8438,944.5,647.8438,954.5,651.8438,950.5,647.8438" style="stroke:#181818;stroke-width:1.0;"/><text fill="#000000" font-family="sans-serif" font-size="13" font-weight="bold" lengthAdjust="spacing" textLength="14" x="950.5" y="629.9873">16</text><text fill="#000000" font-family="sans-serif" font-size="13" lengthAdjust="spacing" textLength="182" x="968.5" y="629.9873">verifica stessa specializzazione</text><polygon fill="#181818" points="578.5,674.1953,568.5,678.1953,578.5,682.1953,574.5,678.1953" style="stroke:#181818;stroke-width:1.0;"/><line style="stroke:#181818;stroke-width:1.0;stroke-dasharray:2.0,2.0;" x1="572.5" x2="937.5" y1="678.1953" y2="678.1953"/><text fill="#000000" font-family="sans-serif" font-size="13" font-weight="bold" lengthAdjust="spacing" textLength="14" x="584.5" y="673.3389">17</text><text fill="#000000" font-family="sans-serif" font-size="13" lengthAdjust="spacing" textLength="204" x="602.5" y="673.3389">throw SostitutoNonValidoException</text><polygon fill="#181818" points="256.5,704.5469,246.5,708.5469,256.5,712.5469,252.5,708.5469" style="stroke:#181818;stroke-width:1.0;"/><line style="stroke:#181818;stroke-width:1.0;stroke-dasharray:2.0,2.0;" x1="250.5" x2="561.5" y1="708.5469" y2="708.5469"/><text fill="#000000" font-family="sans-serif" font-size="13" font-weight="bold" lengthAdjust="spacing" textLength="14" x="262.5" y="703.6904">18</text><text fill="#000000" font-family="sans-serif" font-size="13" lengthAdjust="spacing" textLength="169" x="280.5" y="703.6904">SostitutoNonValidoException</text><polygon fill="#181818" points="46.5,734.8984,36.5,738.8984,46.5,742.8984,42.5,738.8984" style="stroke:#181818;stroke-width:1.0;"/><line style="stroke:#181818;stroke-width:1.0;stroke-dasharray:2.0,2.0;" x1="40.5" x2="244.5" y1="738.8984" y2="738.8984"/><text fill="#000000" font-family="sans-serif" font-size="13" font-weight="bold" lengthAdjust="spacing" textLength="14" x="52.5" y="734.042">19</text><text fill="#000000" font-family="sans-serif" font-size="13" lengthAdjust="spacing" textLength="158" x="70.5" y="734.042">mostra messaggio di errore</text><!--SRC=[ZLHDRzim3BthLn0-TK1p6de9YW3vMb4Wspeuwsd0mDXiHy2H0ab9rlpwKVwGrIHOVOf3yJtoFOhox2k2d_Cx6C6qycGrUZuGVAdC4QQVnv0RvzdllVbcz3DMN9hbtu9sderM2YMkzziDMVaklB6GBTYIbo_A01t4VsfZzhf4-mRP0xc0fYUopcYiw9df-4lVty_QbCcaneQmAepsrbGDIdWYA03cpM55jeNq0KLQsfPg9PenTAYrHTPa5zFl0VweHUyB5jIYdzPoq5VCoHxun2O_ucvkhEElR_cFLG3M9n4Mpjk8Aj7Z1Xr1vWhBEo-cY9k_oqtZnaofw0YC9hL468EZYgIGHca1IeHAgFI9KMpxCDrryxcQMWXLWP2jMaOGTJqaKwhEa_pUEK5rzIKOnt_3vG9NiR5Ru3AUVLArJlIKJa0bd5AXTbV89NH06SXZUKQPi3IJK0r4i8kP0FFbQZbVNreKKMAl98wIMZ8ElWIKb4AwAkScx7pQN0fgkniWxvf37sZhvpb0LvyyL5D-3N5LK7Ajmvthba2aTQviPSVCpNkVRjCQYUfqILHAVL7fG9PVM2vj50VeXSKCX8Lnoyv9gqFhU79EVdPKi3nmfnE6vJflyznA_yVA2_c_rp4n-9twrEP-KmSofVlLx6wuGd7pnx0L7ekm3PfUNzc86K3MXYVu7m00]--></g></svg>