<?xml version="1.0" encoding="us-ascii" standalone="no"?><svg xmlns="http://www.w3.org/2000/svg" xmlns:xlink="http://www.w3.org/1999/xlink" contentStyleType="text/css" height="830px" preserveAspectRatio="none" style="width:1299px;height:830px;background:#FFFFFF;" version="1.1" viewBox="0 0 1299 830" width="1299px" zoomAndPan="magnify"><defs/><g><text fill="#000000" font-family="sans-serif" font-size="14" font-weight="bold" lengthAdjust="spacing" textLength="388" x="457" y="29.5332">UC5 - Alternative Flow A4: SostitutoNonValidoException</text><rect fill="#FFFFFF" height="455.2734" style="stroke:#181818;stroke-width:1.0;" width="10" x="557.5" y="244.625"/><rect fill="#FFFFFF" height="91.0547" style="stroke:#181818;stroke-width:1.0;" width="10" x="747.5" y="274.9766"/><rect fill="#FFFFFF" height="91.0547" style="stroke:#181818;stroke-width:1.0;" width="10" x="747.5" y="396.3828"/><rect fill="#FFFFFF" height="151.7578" style="stroke:#181818;stroke-width:1.0;" width="10" x="933.5" y="517.7891"/><rect fill="#FFFFFF" height="30.3516" style="stroke:#181818;stroke-width:1.0;" width="10" x="1242.5" y="305.3281"/><rect fill="#FFFFFF" height="30.3516" style="stroke:#181818;stroke-width:1.0;" width="10" x="1242.5" y="426.7344"/><rect fill="#FFFFFF" height="30.3516" style="stroke:#181818;stroke-width:1.0;" width="10" x="1242.5" y="548.1406"/><rect fill="#FFFFFF" height="30.3516" style="stroke:#181818;stroke-width:1.0;" width="10" x="1242.5" y="608.8438"/><line style="stroke:#181818;stroke-width:0.5;stroke-dasharray:5.0,5.0;" x1="35" x2="35" y1="121.2188" y2="748.25"/><line style="stroke:#181818;stroke-width:0.5;stroke-dasharray:5.0,5.0;" x1="245.5" x2="245.5" y1="121.2188" y2="748.25"/><line style="stroke:#181818;stroke-width:0.5;stroke-dasharray:5.0,5.0;" x1="562" x2="562" y1="121.2188" y2="748.25"/><line style="stroke:#181818;stroke-width:0.5;stroke-dasharray:5.0,5.0;" x1="752.5" x2="752.5" y1="121.2188" y2="748.25"/><line style="stroke:#181818;stroke-width:0.5;stroke-dasharray:5.0,5.0;" x1="938.5" x2="938.5" y1="121.2188" y2="748.25"/><line style="stroke:#181818;stroke-width:0.5;stroke-dasharray:5.0,5.0;" x1="1247" x2="1247" y1="121.2188" y2="748.25"/><text fill="#000000" font-family="sans-serif" font-size="14" lengthAdjust="spacing" textLength="55" x="5" y="118.1426">Direttore</text><ellipse cx="35.5" cy="52.1094" fill="#E2E2F0" rx="8" ry="8" style="stroke:#181818;stroke-width:0.5;"/><path d="M35.5,60.1094 L35.5,87.1094 M22.5,68.1094 L48.5,68.1094 M35.5,87.1094 L22.5,102.1094 M35.5,87.1094 L48.5,102.1094 " fill="none" style="stroke:#181818;stroke-width:0.5;"/><text fill="#000000" font-family="sans-serif" font-size="14" lengthAdjust="spacing" textLength="55" x="5" y="761.7832">Direttore</text><ellipse cx="35.5" cy="773.3594" fill="#E2E2F0" rx="8" ry="8" style="stroke:#181818;stroke-width:0.5;"/><path d="M35.5,781.3594 L35.5,808.3594 M22.5,789.3594 L48.5,789.3594 M35.5,808.3594 L22.5,823.3594 M35.5,808.3594 L48.5,823.3594 " fill="none" style="stroke:#181818;stroke-width:0.5;"/><text fill="#000000" font-family="sans-serif" font-size="14" lengthAdjust="spacing" textLength="150" x="167.5" y="100.5332">GestionePersonaleView</text><text fill="#000000" font-family="sans-serif" font-size="14" lengthAdjust="spacing" textLength="77" x="204" y="118.1426">&#171;Boundary&#187;</text><path d="M225,58 L225,82 M225,70 L242,70 " fill="none" style="stroke:#181818;stroke-width:0.5;"/><ellipse cx="254" cy="70" fill="#E2E2F0" rx="12" ry="12" style="stroke:#181818;stroke-width:0.5;"/><text fill="#000000" font-family="sans-serif" font-size="14" lengthAdjust="spacing" textLength="150" x="167.5" y="761.7832">GestionePersonaleView</text><text fill="#000000" font-family="sans-serif" font-size="14" lengthAdjust="spacing" textLength="77" x="204" y="779.3926">&#171;Boundary&#187;</text><path d="M225,786.4688 L225,810.4688 M225,798.4688 L242,798.4688 " fill="none" style="stroke:#181818;stroke-width:0.5;"/><ellipse cx="254" cy="798.4688" fill="#E2E2F0" rx="12" ry="12" style="stroke:#181818;stroke-width:0.5;"/><text fill="#000000" font-family="sans-serif" font-size="14" lengthAdjust="spacing" textLength="115" x="502" y="100.5332">GestorePersonale</text><text fill="#000000" font-family="sans-serif" font-size="14" lengthAdjust="spacing" textLength="78" x="520.5" y="118.1426">&#171;Controller&#187;</text><ellipse cx="562.5" cy="70" fill="#E2E2F0" rx="12" ry="12" style="stroke:#181818;stroke-width:0.5;"/><polygon fill="#181818" points="558.5,58,564.5,53,562.5,58,564.5,63,558.5,58" style="stroke:#181818;stroke-width:1.0;"/><text fill="#000000" font-family="sans-serif" font-size="14" lengthAdjust="spacing" textLength="115" x="502" y="761.7832">GestorePersonale</text><text fill="#000000" font-family="sans-serif" font-size="14" lengthAdjust="spacing" textLength="78" x="520.5" y="779.3926">&#171;Controller&#187;</text><ellipse cx="562.5" cy="798.4688" fill="#E2E2F0" rx="12" ry="12" style="stroke:#181818;stroke-width:0.5;"/><polygon fill="#181818" points="558.5,786.4688,564.5,781.4688,562.5,786.4688,564.5,791.4688,558.5,786.4688" style="stroke:#181818;stroke-width:1.0;"/><text fill="#000000" font-family="sans-serif" font-size="14" lengthAdjust="spacing" textLength="164" x="667.5" y="100.5332">dao: PersonalTrainerDAO</text><text fill="#000000" font-family="sans-serif" font-size="14" lengthAdjust="spacing" textLength="71" x="714" y="118.1426">&#171;Interface&#187;</text><ellipse cx="752.5" cy="70" fill="#E2E2F0" rx="12" ry="12" style="stroke:#181818;stroke-width:0.5;"/><line style="stroke:#181818;stroke-width:0.5;" x1="740.5" x2="764.5" y1="84" y2="84"/><text fill="#000000" font-family="sans-serif" font-size="14" lengthAdjust="spacing" textLength="164" x="667.5" y="761.7832">dao: PersonalTrainerDAO</text><text fill="#000000" font-family="sans-serif" font-size="14" lengthAdjust="spacing" textLength="71" x="714" y="779.3926">&#171;Interface&#187;</text><ellipse cx="752.5" cy="798.4688" fill="#E2E2F0" rx="12" ry="12" style="stroke:#181818;stroke-width:0.5;"/><line style="stroke:#181818;stroke-width:0.5;" x1="740.5" x2="764.5" y1="812.4688" y2="812.4688"/><text fill="#000000" font-family="sans-serif" font-size="14" lengthAdjust="spacing" textLength="162" x="854.5" y="100.5332">ServizioSwapCorsiMySQL</text><text fill="#000000" font-family="sans-serif" font-size="14" lengthAdjust="spacing" textLength="63" x="904" y="118.1426">&#171;Service&#187;</text><ellipse cx="938.5" cy="70" fill="#E2E2F0" rx="12" ry="12" style="stroke:#181818;stroke-width:0.5;"/><polygon fill="#181818" points="934.5,58,940.5,53,938.5,58,940.5,63,934.5,58" style="stroke:#181818;stroke-width:1.0;"/><text fill="#000000" font-family="sans-serif" font-size="14" lengthAdjust="spacing" textLength="162" x="854.5" y="761.7832">ServizioSwapCorsiMySQL</text><text fill="#000000" font-family="sans-serif" font-size="14" lengthAdjust="spacing" textLength="63" x="904" y="779.3926">&#171;Service&#187;</text><ellipse cx="938.5" cy="798.4688" fill="#E2E2F0" rx="12" ry="12" style="stroke:#181818;stroke-width:0.5;"/><polygon fill="#181818" points="934.5,786.4688,940.5,781.4688,938.5,786.4688,940.5,791.4688,934.5,786.4688" style="stroke:#181818;stroke-width:1.0;"/><text fill="#000000" font-family="sans-serif" font-size="14" lengthAdjust="spacing" textLength="95" x="1197" y="118.1426">scriptactive_db</text><path d="M1229.5,67.6094 C1229.5,57.6094 1247.5,57.6094 1247.5,57.6094 C1247.5,57.6094 1265.5,57.6094 1265.5,67.6094 L1265.5,93.6094 C1265.5,103.6094 1247.5,103.6094 1247.5,103.6094 C1247.5,103.6094 1229.5,103.6094 1229.5,93.6094 L1229.5,67.6094 " fill="#E2E2F0" style="stroke:#181818;stroke-width:1.5;"/><path d="M1229.5,67.6094 C1229.5,77.6094 1247.5,77.6094 1247.5,77.6094 C1247.5,77.6094 1265.5,77.6094 1265.5,67.6094 " fill="none" style="stroke:#181818;stroke-width:1.5;"/><text fill="#000000" font-family="sans-serif" font-size="14" lengthAdjust="spacing" textLength="95" x="1197" y="761.7832">scriptactive_db</text><path d="M1229.5,774.8594 C1229.5,764.8594 1247.5,764.8594 1247.5,764.8594 C1247.5,764.8594 1265.5,764.8594 1265.5,774.8594 L1265.5,800.8594 C1265.5,810.8594 1247.5,810.8594 1247.5,810.8594 C1247.5,810.8594 1229.5,810.8594 1229.5,800.8594 L1229.5,774.8594 " fill="#E2E2F0" style="stroke:#181818;stroke-width:1.5;"/><path d="M1229.5,774.8594 C1229.5,784.8594 1247.5,784.8594 1247.5,784.8594 C1247.5,784.8594 1265.5,784.8594 1265.5,774.8594 " fill="none" style="stroke:#181818;stroke-width:1.5;"/><rect fill="#FFFFFF" height="455.2734" style="stroke:#181818;stroke-width:1.0;" width="10" x="557.5" y="244.625"/><rect fill="#FFFFFF" height="91.0547" style="stroke:#181818;stroke-width:1.0;" width="10" x="747.5" y="274.9766"/><rect fill="#FFFFFF" height="91.0547" style="stroke:#181818;stroke-width:1.0;" width="10" x="747.5" y="396.3828"/><rect fill="#FFFFFF" height="151.7578" style="stroke:#181818;stroke-width:1.0;" width="10" x="933.5" y="517.7891"/><rect fill="#FFFFFF" height="30.3516" style="stroke:#181818;stroke-width:1.0;" width="10" x="1242.5" y="305.3281"/><rect fill="#FFFFFF" height="30.3516" style="stroke:#181818;stroke-width:1.0;" width="10" x="1242.5" y="426.7344"/><rect fill="#FFFFFF" height="30.3516" style="stroke:#181818;stroke-width:1.0;" width="10" x="1242.5" y="548.1406"/><rect fill="#FFFFFF" height="30.3516" style="stroke:#181818;stroke-width:1.0;" width="10" x="1242.5" y="608.8438"/><polygon fill="#181818" points="233.5,149.5703,243.5,153.5703,233.5,157.5703,237.5,153.5703" style="stroke:#181818;stroke-width:1.0;"/><line style="stroke:#181818;stroke-width:1.0;" x1="35.5" x2="239.5" y1="153.5703" y2="153.5703"/><text fill="#000000" font-family="sans-serif" font-size="13" font-weight="bold" lengthAdjust="spacing" textLength="7" x="42.5" y="148.7139">1</text><text fill="#000000" font-family="sans-serif" font-size="13" lengthAdjust="spacing" textLength="152" x="53.5" y="148.7139">seleziona PT da licenziare</text><polygon fill="#181818" points="233.5,179.9219,243.5,183.9219,233.5,187.9219,237.5,183.9219" style="stroke:#181818;stroke-width:1.0;"/><line style="stroke:#181818;stroke-width:1.0;" x1="35.5" x2="239.5" y1="183.9219" y2="183.9219"/><text fill="#000000" font-family="sans-serif" font-size="13" font-weight="bold" lengthAdjust="spacing" textLength="7" x="42.5" y="179.0654">2</text><text fill="#000000" font-family="sans-serif" font-size="13" lengthAdjust="spacing" textLength="129" x="53.5" y="179.0654">seleziona PT sostituto</text><polygon fill="#181818" points="233.5,210.2734,243.5,214.2734,233.5,218.2734,237.5,214.2734" style="stroke:#181818;stroke-width:1.0;"/><line style="stroke:#181818;stroke-width:1.0;" x1="35.5" x2="239.5" y1="214.2734" y2="214.2734"/><text fill="#000000" font-family="sans-serif" font-size="13" font-weight="bold" lengthAdjust="spacing" textLength="7" x="42.5" y="209.417">3</text><text fill="#000000" font-family="sans-serif" font-size="13" lengthAdjust="spacing" textLength="175" x="53.5" y="209.417">clicca "Licenzia con sostituto"</text><polygon fill="#181818" points="545.5,240.625,555.5,244.625,545.5,248.625,549.5,244.625" style="stroke:#181818;stroke-width:1.0;"/><line style="stroke:#181818;stroke-width:1.0;" x1="245.5" x2="551.5" y1="244.625" y2="244.625"/><text fill="#000000" font-family="sans-serif" font-size="13" font-weight="bold" lengthAdjust="spacing" textLength="7" x="252.5" y="239.7686">4</text><text fill="#000000" font-family="sans-serif" font-size="13" lengthAdjust="spacing" textLength="282" x="263.5" y="239.7686">licenziaConSostituto(idDaLicenziare, idSostituto)</text><polygon fill="#181818" points="735.5,270.9766,745.5,274.9766,735.5,278.9766,739.5,274.9766" style="stroke:#181818;stroke-width:1.0;"/><line style="stroke:#181818;stroke-width:1.0;" x1="567.5" x2="741.5" y1="274.9766" y2="274.9766"/><text fill="#000000" font-family="sans-serif" font-size="13" font-weight="bold" lengthAdjust="spacing" textLength="7" x="574.5" y="270.1201">5</text><text fill="#000000" font-family="sans-serif" font-size="13" lengthAdjust="spacing" textLength="150" x="585.5" y="270.1201">trovaPerId(idDaLicenziare)</text><polygon fill="#181818" points="1230.5,301.3281,1240.5,305.3281,1230.5,309.3281,1234.5,305.3281" style="stroke:#181818;stroke-width:1.0;"/><line style="stroke:#181818;stroke-width:1.0;" x1="757.5" x2="1236.5" y1="305.3281" y2="305.3281"/><text fill="#000000" font-family="sans-serif" font-size="13" font-weight="bold" lengthAdjust="spacing" textLength="7" x="764.5" y="300.4717">6</text><text fill="#000000" font-family="sans-serif" font-size="13" lengthAdjust="spacing" textLength="147" x="775.5" y="300.4717">SELECT PT da licenziare</text><polygon fill="#181818" points="768.5,331.6797,758.5,335.6797,768.5,339.6797,764.5,335.6797" style="stroke:#181818;stroke-width:1.0;"/><line style="stroke:#181818;stroke-width:1.0;stroke-dasharray:2.0,2.0;" x1="762.5" x2="1246.5" y1="335.6797" y2="335.6797"/><text fill="#000000" font-family="sans-serif" font-size="13" font-weight="bold" lengthAdjust="spacing" textLength="7" x="774.5" y="330.8232">7</text><text fill="#000000" font-family="sans-serif" font-size="13" lengthAdjust="spacing" textLength="118" x="785.5" y="330.8232">dati PT da licenziare</text><polygon fill="#181818" points="578.5,362.0313,568.5,366.0313,578.5,370.0313,574.5,366.0313" style="stroke:#181818;stroke-width:1.0;"/><line style="stroke:#181818;stroke-width:1.0;stroke-dasharray:2.0,2.0;" x1="572.5" x2="751.5" y1="366.0313" y2="366.0313"/><text fill="#000000" font-family="sans-serif" font-size="13" font-weight="bold" lengthAdjust="spacing" textLength="7" x="584.5" y="361.1748">8</text><text fill="#000000" font-family="sans-serif" font-size="13" lengthAdjust="spacing" textLength="86" x="595.5" y="361.1748">ptDaLicenziare</text><polygon fill="#181818" points="735.5,392.3828,745.5,396.3828,735.5,400.3828,739.5,396.3828" style="stroke:#181818;stroke-width:1.0;"/><line style="stroke:#181818;stroke-width:1.0;" x1="567.5" x2="741.5" y1="396.3828" y2="396.3828"/><text fill="#000000" font-family="sans-serif" font-size="13" font-weight="bold" lengthAdjust="spacing" textLength="7" x="574.5" y="391.5264">9</text><text fill="#000000" font-family="sans-serif" font-size="13" lengthAdjust="spacing" textLength="127" x="585.5" y="391.5264">trovaPerId(idSostituto)</text><polygon fill="#181818" points="1230.5,422.7344,1240.5,426.7344,1230.5,430.7344,1234.5,426.7344" style="stroke:#181818;stroke-width:1.0;"/><line style="stroke:#181818;stroke-width:1.0;" x1="757.5" x2="1236.5" y1="426.7344" y2="426.7344"/><text fill="#000000" font-family="sans-serif" font-size="13" font-weight="bold" lengthAdjust="spacing" textLength="14" x="764.5" y="421.8779">10</text><text fill="#000000" font-family="sans-serif" font-size="13" lengthAdjust="spacing" textLength="124" x="782.5" y="421.8779">SELECT PT sostituto</text><polygon fill="#181818" points="768.5,453.0859,758.5,457.0859,768.5,461.0859,764.5,457.0859" style="stroke:#181818;stroke-width:1.0;"/><line style="stroke:#181818;stroke-width:1.0;stroke-dasharray:2.0,2.0;" x1="762.5" x2="1246.5" y1="457.0859" y2="457.0859"/><text fill="#000000" font-family="sans-serif" font-size="13" font-weight="bold" lengthAdjust="spacing" textLength="14" x="774.5" y="452.2295">11</text><text fill="#000000" font-family="sans-serif" font-size="13" lengthAdjust="spacing" textLength="95" x="792.5" y="452.2295">dati PT sostituto</text><polygon fill="#181818" points="578.5,483.4375,568.5,487.4375,578.5,491.4375,574.5,487.4375" style="stroke:#181818;stroke-width:1.0;"/><line style="stroke:#181818;stroke-width:1.0;stroke-dasharray:2.0,2.0;" x1="572.5" x2="751.5" y1="487.4375" y2="487.4375"/><text fill="#000000" font-family="sans-serif" font-size="13" font-weight="bold" lengthAdjust="spacing" textLength="14" x="584.5" y="482.5811">12</text><text fill="#000000" font-family="sans-serif" font-size="13" lengthAdjust="spacing" textLength="63" x="602.5" y="482.5811">ptSostituto</text><polygon fill="#181818" points="921.5,513.7891,931.5,517.7891,921.5,521.7891,925.5,517.7891" style="stroke:#181818;stroke-width:1.0;"/><line style="stroke:#181818;stroke-width:1.0;" x1="567.5" x2="927.5" y1="517.7891" y2="517.7891"/><text fill="#000000" font-family="sans-serif" font-size="13" font-weight="bold" lengthAdjust="spacing" textLength="14" x="574.5" y="512.9326">13</text><text fill="#000000" font-family="sans-serif" font-size="13" lengthAdjust="spacing" textLength="329" x="592.5" y="512.9326">swapCorsiPerLicenziamento(ptDaLicenziare, ptSostituto)</text><polygon fill="#181818" points="1230.5,544.1406,1240.5,548.1406,1230.5,552.1406,1234.5,548.1406" style="stroke:#181818;stroke-width:1.0;"/><line style="stroke:#181818;stroke-width:1.0;" x1="943.5" x2="1236.5" y1="548.1406" y2="548.1406"/><text fill="#000000" font-family="sans-serif" font-size="13" font-weight="bold" lengthAdjust="spacing" textLength="14" x="950.5" y="543.2842">14</text><text fill="#000000" font-family="sans-serif" font-size="13" lengthAdjust="spacing" textLength="262" x="968.5" y="543.2842">SELECT corsi attivi/futuri del PT da licenziare</text><polygon fill="#181818" points="954.5,574.4922,944.5,578.4922,954.5,582.4922,950.5,578.4922" style="stroke:#181818;stroke-width:1.0;"/><line style="stroke:#181818;stroke-width:1.0;stroke-dasharray:2.0,2.0;" x1="948.5" x2="1246.5" y1="578.4922" y2="578.4922"/><text fill="#000000" font-family="sans-serif" font-size="13" font-weight="bold" lengthAdjust="spacing" textLength="14" x="960.5" y="573.6357">15</text><text fill="#000000" font-family="sans-serif" font-size="13" lengthAdjust="spacing" textLength="117" x="978.5" y="573.6357">corsi da riassegnare</text><polygon fill="#181818" points="1230.5,604.8438,1240.5,608.8438,1230.5,612.8438,1234.5,608.8438" style="stroke:#181818;stroke-width:1.0;"/><line style="stroke:#181818;stroke-width:1.0;" x1="943.5" x2="1236.5" y1="608.8438" y2="608.8438"/><text fill="#000000" font-family="sans-serif" font-size="13" font-weight="bold" lengthAdjust="spacing" textLength="14" x="950.5" y="603.9873">16</text><text fill="#000000" font-family="sans-serif" font-size="13" lengthAdjust="spacing" textLength="188" x="968.5" y="603.9873">verifica conflitti orari del sostituto</text><polygon fill="#181818" points="954.5,635.1953,944.5,639.1953,954.5,643.1953,950.5,639.1953" style="stroke:#181818;stroke-width:1.0;"/><line style="stroke:#181818;stroke-width:1.0;stroke-dasharray:2.0,2.0;" x1="948.5" x2="1246.5" y1="639.1953" y2="639.1953"/><text fill="#000000" font-family="sans-serif" font-size="13" font-weight="bold" lengthAdjust="spacing" textLength="14" x="960.5" y="634.3389">17</text><text fill="#000000" font-family="sans-serif" font-size="13" lengthAdjust="spacing" textLength="87" x="978.5" y="634.3389">conflitto trovato</text><polygon fill="#181818" points="578.5,665.5469,568.5,669.5469,578.5,673.5469,574.5,669.5469" style="stroke:#181818;stroke-width:1.0;"/><line style="stroke:#181818;stroke-width:1.0;stroke-dasharray:2.0,2.0;" x1="572.5" x2="937.5" y1="669.5469" y2="669.5469"/><text fill="#000000" font-family="sans-serif" font-size="13" font-weight="bold" lengthAdjust="spacing" textLength="14" x="584.5" y="664.6904">18</text><text fill="#000000" font-family="sans-serif" font-size="13" lengthAdjust="spacing" textLength="204" x="602.5" y="664.6904">throw SostitutoNonValidoException</text><polygon fill="#181818" points="256.5,695.8984,246.5,699.8984,256.5,703.8984,252.5,699.8984" style="stroke:#181818;stroke-width:1.0;"/><line style="stroke:#181818;stroke-width:1.0;stroke-dasharray:2.0,2.0;" x1="250.5" x2="561.5" y1="699.8984" y2="699.8984"/><text fill="#000000" font-family="sans-serif" font-size="13" font-weight="bold" lengthAdjust="spacing" textLength="14" x="262.5" y="695.042">19</text><text fill="#000000" font-family="sans-serif" font-size="13" lengthAdjust="spacing" textLength="169" x="280.5" y="695.042">SostitutoNonValidoException</text><polygon fill="#181818" points="46.5,726.25,36.5,730.25,46.5,734.25,42.5,730.25" style="stroke:#181818;stroke-width:1.0;"/><line style="stroke:#181818;stroke-width:1.0;stroke-dasharray:2.0,2.0;" x1="40.5" x2="244.5" y1="730.25" y2="730.25"/><text fill="#000000" font-family="sans-serif" font-size="13" font-weight="bold" lengthAdjust="spacing" textLength="14" x="52.5" y="725.3936">20</text><text fill="#000000" font-family="sans-serif" font-size="13" lengthAdjust="spacing" textLength="158" x="70.5" y="725.3936">mostra messaggio di errore</text><!--SRC=[ZLHDRzim3BthLn0-TK23NRPBK0J8ruO2sTR1MKy31iPYCWAE54XAilRNZ_vM7AFDpQRu7idt90OEES6l-MSOmJGFv0m6FX5yoUqPff_6a5eVE1o3_MxDC-QixV9VHeV0rYY54ZV7_OQSV6V1EaWMx2Z85oM07je_jR57ez6zGFALV86c9tBU6ipfcUdyspmypEgKoQJ45c6LMHESpIkKyBIW0Z2l3dDoDQGBA3BIjbJJQCVGeDOEsP1RJ7yKy4SZysunenhzj9Q3hc9AxiIlRDCp7kRMUVxsalvS5S3of8KLvtL4QGouGK-G-Cpn8OWeekOVlQdKc2dLAWAZIJaYZC5JJbB8eBG06Y4NAlFAABAzc-uRVmPJCw7A499LpGWoNGT9b2hp9BzJJb1DVGcszj-nNk2gRUmUMBTd7rGv9mQA7L0HfrGerHLo2PrG37dKFSg8fN92LH31BcO2J9UhvNnzBL6B4dabSHJL4Zlu6g0fXZHL-Y8SGjnS3Agxks6y8ONUcQtpyuQvkkHRPqg748C3HTUwk7FD8v3H6bNsyiRitQLEzt6DQEhuaQYOkgT0LjG030BZZzjZE3e6JVbDhbzsN349o35wJpipOFrG8oTolEMiV2hRdAKJi0xhDjvqfr-_WjlgIbnxT56yxrJuwsG1lxLy8xOBSMCNkqLm8rFyVAlLKCZIBfOnx8N78Up9Uzpjs89c8EUA3VyV]--></g></svg>