<?xml version="1.0" encoding="us-ascii" standalone="no"?><svg xmlns="http://www.w3.org/2000/svg" xmlns:xlink="http://www.w3.org/1999/xlink" contentStyleType="text/css" height="835px" preserveAspectRatio="none" style="width:1023px;height:835px;background:#FFFFFF;" version="1.1" viewBox="0 0 1023 835" width="1023px" zoomAndPan="magnify"><defs/><g><text fill="#000000" font-family="sans-serif" font-size="14" font-weight="bold" lengthAdjust="spacing" textLength="413" x="306.75" y="29.5332">UC5 - Main Success Scenario: Assunzione Personal Trainer</text><rect fill="#FFFFFF" height="273.1641" style="stroke:#181818;stroke-width:1.0;" width="10" x="389.5" y="388.5469"/><rect fill="#FFFFFF" height="91.0547" style="stroke:#181818;stroke-width:1.0;" width="10" x="728" y="418.8984"/><rect fill="#FFFFFF" height="91.0547" style="stroke:#181818;stroke-width:1.0;" width="10" x="728" y="540.3047"/><rect fill="#FFFFFF" height="30.3516" style="stroke:#181818;stroke-width:1.0;" width="10" x="967" y="449.25"/><rect fill="#FFFFFF" height="30.3516" style="stroke:#181818;stroke-width:1.0;" width="10" x="967" y="570.6563"/><line style="stroke:#181818;stroke-width:0.5;stroke-dasharray:5.0,5.0;" x1="35" x2="35" y1="121.2188" y2="753.4141"/><line style="stroke:#181818;stroke-width:0.5;stroke-dasharray:5.0,5.0;" x1="244.5" x2="244.5" y1="121.2188" y2="753.4141"/><line style="stroke:#181818;stroke-width:0.5;stroke-dasharray:5.0,5.0;" x1="394" x2="394" y1="121.2188" y2="753.4141"/><line style="stroke:#181818;stroke-width:0.5;stroke-dasharray:5.0,5.0;" x1="551" x2="551" y1="307.2344" y2="753.4141"/><line style="stroke:#181818;stroke-width:0.5;stroke-dasharray:5.0,5.0;" x1="733" x2="733" y1="121.2188" y2="753.4141"/><line style="stroke:#181818;stroke-width:0.5;stroke-dasharray:5.0,5.0;" x1="971.5" x2="971.5" y1="121.2188" y2="753.4141"/><text fill="#000000" font-family="sans-serif" font-size="14" lengthAdjust="spacing" textLength="55" x="5" y="118.1426">Direttore</text><ellipse cx="35.5" cy="52.1094" fill="#E2E2F0" rx="8" ry="8" style="stroke:#181818;stroke-width:0.5;"/><path d="M35.5,60.1094 L35.5,87.1094 M22.5,68.1094 L48.5,68.1094 M35.5,87.1094 L22.5,102.1094 M35.5,87.1094 L48.5,102.1094 " fill="none" style="stroke:#181818;stroke-width:0.5;"/><text fill="#000000" font-family="sans-serif" font-size="14" lengthAdjust="spacing" textLength="55" x="5" y="766.9473">Direttore</text><ellipse cx="35.5" cy="778.5234" fill="#E2E2F0" rx="8" ry="8" style="stroke:#181818;stroke-width:0.5;"/><path d="M35.5,786.5234 L35.5,813.5234 M22.5,794.5234 L48.5,794.5234 M35.5,813.5234 L22.5,828.5234 M35.5,813.5234 L48.5,828.5234 " fill="none" style="stroke:#181818;stroke-width:0.5;"/><text fill="#000000" font-family="sans-serif" font-size="14" lengthAdjust="spacing" textLength="150" x="166.5" y="100.5332">GestionePersonaleView</text><text fill="#000000" font-family="sans-serif" font-size="14" lengthAdjust="spacing" textLength="77" x="203" y="118.1426">&#171;Boundary&#187;</text><path d="M224,58 L224,82 M224,70 L241,70 " fill="none" style="stroke:#181818;stroke-width:0.5;"/><ellipse cx="253" cy="70" fill="#E2E2F0" rx="12" ry="12" style="stroke:#181818;stroke-width:0.5;"/><text fill="#000000" font-family="sans-serif" font-size="14" lengthAdjust="spacing" textLength="150" x="166.5" y="766.9473">GestionePersonaleView</text><text fill="#000000" font-family="sans-serif" font-size="14" lengthAdjust="spacing" textLength="77" x="203" y="784.5566">&#171;Boundary&#187;</text><path d="M224,791.6328 L224,815.6328 M224,803.6328 L241,803.6328 " fill="none" style="stroke:#181818;stroke-width:0.5;"/><ellipse cx="253" cy="803.6328" fill="#E2E2F0" rx="12" ry="12" style="stroke:#181818;stroke-width:0.5;"/><text fill="#000000" font-family="sans-serif" font-size="14" lengthAdjust="spacing" textLength="115" x="334" y="100.5332">GestorePersonale</text><text fill="#000000" font-family="sans-serif" font-size="14" lengthAdjust="spacing" textLength="78" x="352.5" y="118.1426">&#171;Controller&#187;</text><ellipse cx="394.5" cy="70" fill="#E2E2F0" rx="12" ry="12" style="stroke:#181818;stroke-width:0.5;"/><polygon fill="#181818" points="390.5,58,396.5,53,394.5,58,396.5,63,390.5,58" style="stroke:#181818;stroke-width:1.0;"/><text fill="#000000" font-family="sans-serif" font-size="14" lengthAdjust="spacing" textLength="115" x="334" y="766.9473">GestorePersonale</text><text fill="#000000" font-family="sans-serif" font-size="14" lengthAdjust="spacing" textLength="78" x="352.5" y="784.5566">&#171;Controller&#187;</text><ellipse cx="394.5" cy="803.6328" fill="#E2E2F0" rx="12" ry="12" style="stroke:#181818;stroke-width:0.5;"/><polygon fill="#181818" points="390.5,791.6328,396.5,786.6328,394.5,791.6328,396.5,796.6328,390.5,791.6328" style="stroke:#181818;stroke-width:1.0;"/><text fill="#000000" font-family="sans-serif" font-size="14" lengthAdjust="spacing" textLength="167" x="465" y="766.9473">nuovoPT: PersonalTrainer</text><text fill="#000000" font-family="sans-serif" font-size="14" lengthAdjust="spacing" textLength="51" x="523" y="784.5566">&#171;Entity&#187;</text><ellipse cx="551.5" cy="803.6328" fill="#E2E2F0" rx="12" ry="12" style="stroke:#181818;stroke-width:0.5;"/><line style="stroke:#181818;stroke-width:0.5;" x1="539.5" x2="563.5" y1="817.6328" y2="817.6328"/><text fill="#000000" font-family="sans-serif" font-size="14" lengthAdjust="spacing" textLength="164" x="648" y="100.5332">dao: PersonalTrainerDAO</text><text fill="#000000" font-family="sans-serif" font-size="14" lengthAdjust="spacing" textLength="71" x="694.5" y="118.1426">&#171;Interface&#187;</text><ellipse cx="733" cy="70" fill="#E2E2F0" rx="12" ry="12" style="stroke:#181818;stroke-width:0.5;"/><line style="stroke:#181818;stroke-width:0.5;" x1="721" x2="745" y1="84" y2="84"/><text fill="#000000" font-family="sans-serif" font-size="14" lengthAdjust="spacing" textLength="164" x="648" y="766.9473">dao: PersonalTrainerDAO</text><text fill="#000000" font-family="sans-serif" font-size="14" lengthAdjust="spacing" textLength="71" x="694.5" y="784.5566">&#171;Interface&#187;</text><ellipse cx="733" cy="803.6328" fill="#E2E2F0" rx="12" ry="12" style="stroke:#181818;stroke-width:0.5;"/><line style="stroke:#181818;stroke-width:0.5;" x1="721" x2="745" y1="817.6328" y2="817.6328"/><text fill="#000000" font-family="sans-serif" font-size="14" lengthAdjust="spacing" textLength="95" x="921.5" y="118.1426">scriptactive_db</text><path d="M954,67.6094 C954,57.6094 972,57.6094 972,57.6094 C972,57.6094 990,57.6094 990,67.6094 L990,93.6094 C990,103.6094 972,103.6094 972,103.6094 C972,103.6094 954,103.6094 954,93.6094 L954,67.6094 " fill="#E2E2F0" style="stroke:#181818;stroke-width:1.5;"/><path d="M954,67.6094 C954,77.6094 972,77.6094 972,77.6094 C972,77.6094 990,77.6094 990,67.6094 " fill="none" style="stroke:#181818;stroke-width:1.5;"/><text fill="#000000" font-family="sans-serif" font-size="14" lengthAdjust="spacing" textLength="95" x="921.5" y="766.9473">scriptactive_db</text><path d="M954,780.0234 C954,770.0234 972,770.0234 972,770.0234 C972,770.0234 990,770.0234 990,780.0234 L990,806.0234 C990,816.0234 972,816.0234 972,816.0234 C972,816.0234 954,816.0234 954,806.0234 L954,780.0234 " fill="#E2E2F0" style="stroke:#181818;stroke-width:1.5;"/><path d="M954,780.0234 C954,790.0234 972,790.0234 972,790.0234 C972,790.0234 990,790.0234 990,780.0234 " fill="none" style="stroke:#181818;stroke-width:1.5;"/><rect fill="#FFFFFF" height="273.1641" style="stroke:#181818;stroke-width:1.0;" width="10" x="389.5" y="388.5469"/><rect fill="#FFFFFF" height="91.0547" style="stroke:#181818;stroke-width:1.0;" width="10" x="728" y="418.8984"/><rect fill="#FFFFFF" height="91.0547" style="stroke:#181818;stroke-width:1.0;" width="10" x="728" y="540.3047"/><rect fill="#FFFFFF" height="30.3516" style="stroke:#181818;stroke-width:1.0;" width="10" x="967" y="449.25"/><rect fill="#FFFFFF" height="30.3516" style="stroke:#181818;stroke-width:1.0;" width="10" x="967" y="570.6563"/><polygon fill="#181818" points="232.5,149.5703,242.5,153.5703,232.5,157.5703,236.5,153.5703" style="stroke:#181818;stroke-width:1.0;"/><line style="stroke:#181818;stroke-width:1.0;" x1="35.5" x2="238.5" y1="153.5703" y2="153.5703"/><text fill="#000000" font-family="sans-serif" font-size="13" font-weight="bold" lengthAdjust="spacing" textLength="7" x="42.5" y="148.7139">1</text><text fill="#000000" font-family="sans-serif" font-size="13" lengthAdjust="spacing" textLength="97" x="53.5" y="148.7139">inserisce dati PT</text><polygon fill="#181818" points="232.5,179.9219,242.5,183.9219,232.5,187.9219,236.5,183.9219" style="stroke:#181818;stroke-width:1.0;"/><line style="stroke:#181818;stroke-width:1.0;" x1="35.5" x2="238.5" y1="183.9219" y2="183.9219"/><text fill="#000000" font-family="sans-serif" font-size="13" font-weight="bold" lengthAdjust="spacing" textLength="7" x="42.5" y="179.0654">2</text><text fill="#000000" font-family="sans-serif" font-size="13" lengthAdjust="spacing" textLength="92" x="53.5" y="179.0654">clicca "Assumi"</text><polygon fill="#181818" points="382.5,210.2734,392.5,214.2734,382.5,218.2734,386.5,214.2734" style="stroke:#181818;stroke-width:1.0;"/><line style="stroke:#181818;stroke-width:1.0;" x1="244.5" x2="388.5" y1="214.2734" y2="214.2734"/><text fill="#000000" font-family="sans-serif" font-size="13" font-weight="bold" lengthAdjust="spacing" textLength="7" x="251.5" y="209.417">3</text><text fill="#000000" font-family="sans-serif" font-size="13" lengthAdjust="spacing" textLength="75" x="262.5" y="209.417">getInstance()</text><path d="M399,227.2734 L399,253.2734 L520,253.2734 L520,237.2734 L510,227.2734 L399,227.2734 " fill="#FEFFDD" style="stroke:#181818;stroke-width:0.5;"/><path d="M510,227.2734 L510,237.2734 L520,237.2734 L510,227.2734 " fill="#FEFFDD" style="stroke:#181818;stroke-width:0.5;"/><text fill="#000000" font-family="sans-serif" font-size="13" lengthAdjust="spacing" textLength="100" x="405" y="245.7686">Pattern Singleton</text><polygon fill="#181818" points="453,276.9766,463,280.9766,453,284.9766,457,280.9766" style="stroke:#181818;stroke-width:1.0;"/><line style="stroke:#181818;stroke-width:1.0;" x1="244.5" x2="459" y1="280.9766" y2="280.9766"/><text fill="#000000" font-family="sans-serif" font-size="13" font-weight="bold" lengthAdjust="spacing" textLength="7" x="251.5" y="276.1201">4</text><text fill="#000000" font-family="sans-serif" font-size="13" lengthAdjust="spacing" textLength="164" x="262.5" y="276.1201">&#171;create&#187; PersonalTrainer(...)</text><text fill="#000000" font-family="sans-serif" font-size="14" lengthAdjust="spacing" textLength="167" x="465" y="305.1582">nuovoPT: PersonalTrainer</text><text fill="#000000" font-family="sans-serif" font-size="14" lengthAdjust="spacing" textLength="51" x="523" y="322.7676">&#171;Entity&#187;</text><ellipse cx="551.5" cy="274.625" fill="#E2E2F0" rx="12" ry="12" style="stroke:#181818;stroke-width:0.5;"/><line style="stroke:#181818;stroke-width:0.5;" x1="539.5" x2="563.5" y1="288.625" y2="288.625"/><polygon fill="#181818" points="255.5,354.1953,245.5,358.1953,255.5,362.1953,251.5,358.1953" style="stroke:#181818;stroke-width:1.0;"/><line style="stroke:#181818;stroke-width:1.0;stroke-dasharray:2.0,2.0;" x1="249.5" x2="550.5" y1="358.1953" y2="358.1953"/><text fill="#000000" font-family="sans-serif" font-size="13" font-weight="bold" lengthAdjust="spacing" textLength="7" x="261.5" y="353.3389">5</text><text fill="#000000" font-family="sans-serif" font-size="13" lengthAdjust="spacing" textLength="62" x="272.5" y="353.3389">istanza PT</text><polygon fill="#181818" points="377.5,384.5469,387.5,388.5469,377.5,392.5469,381.5,388.5469" style="stroke:#181818;stroke-width:1.0;"/><line style="stroke:#181818;stroke-width:1.0;" x1="244.5" x2="383.5" y1="388.5469" y2="388.5469"/><text fill="#000000" font-family="sans-serif" font-size="13" font-weight="bold" lengthAdjust="spacing" textLength="7" x="251.5" y="383.6904">6</text><text fill="#000000" font-family="sans-serif" font-size="13" lengthAdjust="spacing" textLength="115" x="262.5" y="383.6904">assumiPT(nuovoPT)</text><polygon fill="#181818" points="716,414.8984,726,418.8984,716,422.8984,720,418.8984" style="stroke:#181818;stroke-width:1.0;"/><line style="stroke:#181818;stroke-width:1.0;" x1="399.5" x2="722" y1="418.8984" y2="418.8984"/><text fill="#000000" font-family="sans-serif" font-size="13" font-weight="bold" lengthAdjust="spacing" textLength="7" x="406.5" y="414.042">7</text><text fill="#000000" font-family="sans-serif" font-size="13" lengthAdjust="spacing" textLength="114" x="417.5" y="414.042">trovaPerId(idTrainer)</text><polygon fill="#181818" points="955,445.25,965,449.25,955,453.25,959,449.25" style="stroke:#181818;stroke-width:1.0;"/><line style="stroke:#181818;stroke-width:1.0;" x1="738" x2="961" y1="449.25" y2="449.25"/><text fill="#000000" font-family="sans-serif" font-size="13" font-weight="bold" lengthAdjust="spacing" textLength="7" x="745" y="444.3936">8</text><text fill="#000000" font-family="sans-serif" font-size="13" lengthAdjust="spacing" textLength="199" x="756" y="444.3936">SELECT PT WHERE idTrainer = ?</text><polygon fill="#181818" points="749,475.6016,739,479.6016,749,483.6016,745,479.6016" style="stroke:#181818;stroke-width:1.0;"/><line style="stroke:#181818;stroke-width:1.0;stroke-dasharray:2.0,2.0;" x1="743" x2="971" y1="479.6016" y2="479.6016"/><text fill="#000000" font-family="sans-serif" font-size="13" font-weight="bold" lengthAdjust="spacing" textLength="7" x="755" y="474.7451">9</text><text fill="#000000" font-family="sans-serif" font-size="13" lengthAdjust="spacing" textLength="138" x="766" y="474.7451">nessun PT attivo trovato</text><polygon fill="#181818" points="410.5,505.9531,400.5,509.9531,410.5,513.9531,406.5,509.9531" style="stroke:#181818;stroke-width:1.0;"/><line style="stroke:#181818;stroke-width:1.0;stroke-dasharray:2.0,2.0;" x1="404.5" x2="732" y1="509.9531" y2="509.9531"/><text fill="#000000" font-family="sans-serif" font-size="13" font-weight="bold" lengthAdjust="spacing" textLength="14" x="416.5" y="505.0967">10</text><text fill="#000000" font-family="sans-serif" font-size="13" lengthAdjust="spacing" textLength="20" x="434.5" y="505.0967">null</text><polygon fill="#181818" points="716,536.3047,726,540.3047,716,544.3047,720,540.3047" style="stroke:#181818;stroke-width:1.0;"/><line style="stroke:#181818;stroke-width:1.0;" x1="399.5" x2="722" y1="540.3047" y2="540.3047"/><text fill="#000000" font-family="sans-serif" font-size="13" font-weight="bold" lengthAdjust="spacing" textLength="14" x="406.5" y="535.4482">11</text><text fill="#000000" font-family="sans-serif" font-size="13" lengthAdjust="spacing" textLength="86" x="424.5" y="535.4482">salva(nuovoPT)</text><polygon fill="#181818" points="955,566.6563,965,570.6563,955,574.6563,959,570.6563" style="stroke:#181818;stroke-width:1.0;"/><line style="stroke:#181818;stroke-width:1.0;" x1="738" x2="961" y1="570.6563" y2="570.6563"/><text fill="#000000" font-family="sans-serif" font-size="13" font-weight="bold" lengthAdjust="spacing" textLength="14" x="745" y="565.7998">12</text><text fill="#000000" font-family="sans-serif" font-size="13" lengthAdjust="spacing" textLength="173" x="763" y="565.7998">INSERT INTO PersonalTrainer</text><polygon fill="#181818" points="749,597.0078,739,601.0078,749,605.0078,745,601.0078" style="stroke:#181818;stroke-width:1.0;"/><line style="stroke:#181818;stroke-width:1.0;stroke-dasharray:2.0,2.0;" x1="743" x2="971" y1="601.0078" y2="601.0078"/><text fill="#000000" font-family="sans-serif" font-size="13" font-weight="bold" lengthAdjust="spacing" textLength="14" x="755" y="596.1514">13</text><text fill="#000000" font-family="sans-serif" font-size="13" lengthAdjust="spacing" textLength="132" x="773" y="596.1514">salvataggio confermato</text><polygon fill="#181818" points="410.5,627.3594,400.5,631.3594,410.5,635.3594,406.5,631.3594" style="stroke:#181818;stroke-width:1.0;"/><line style="stroke:#181818;stroke-width:1.0;stroke-dasharray:2.0,2.0;" x1="404.5" x2="732" y1="631.3594" y2="631.3594"/><text fill="#000000" font-family="sans-serif" font-size="13" font-weight="bold" lengthAdjust="spacing" textLength="14" x="416.5" y="626.5029">14</text><text fill="#000000" font-family="sans-serif" font-size="13" lengthAdjust="spacing" textLength="14" x="434.5" y="626.5029">ok</text><polygon fill="#181818" points="255.5,657.7109,245.5,661.7109,255.5,665.7109,251.5,661.7109" style="stroke:#181818;stroke-width:1.0;"/><line style="stroke:#181818;stroke-width:1.0;stroke-dasharray:2.0,2.0;" x1="249.5" x2="393.5" y1="661.7109" y2="661.7109"/><text fill="#000000" font-family="sans-serif" font-size="13" font-weight="bold" lengthAdjust="spacing" textLength="14" x="261.5" y="656.8545">15</text><text fill="#000000" font-family="sans-serif" font-size="13" lengthAdjust="spacing" textLength="56" x="279.5" y="656.8545">successo</text><line style="stroke:#181818;stroke-width:1.0;" x1="244.5" x2="286.5" y1="692.0625" y2="692.0625"/><line style="stroke:#181818;stroke-width:1.0;" x1="286.5" x2="286.5" y1="692.0625" y2="705.0625"/><line style="stroke:#181818;stroke-width:1.0;" x1="245.5" x2="286.5" y1="705.0625" y2="705.0625"/><polygon fill="#181818" points="255.5,701.0625,245.5,705.0625,255.5,709.0625,251.5,705.0625" style="stroke:#181818;stroke-width:1.0;"/><text fill="#000000" font-family="sans-serif" font-size="13" font-weight="bold" lengthAdjust="spacing" textLength="14" x="251.5" y="687.2061">16</text><text fill="#000000" font-family="sans-serif" font-size="13" lengthAdjust="spacing" textLength="98" x="269.5" y="687.2061">aggiornaTabella()</text><polygon fill="#181818" points="46.5,731.4141,36.5,735.4141,46.5,739.4141,42.5,735.4141" style="stroke:#181818;stroke-width:1.0;"/><line style="stroke:#181818;stroke-width:1.0;stroke-dasharray:2.0,2.0;" x1="40.5" x2="243.5" y1="735.4141" y2="735.4141"/><text fill="#000000" font-family="sans-serif" font-size="13" font-weight="bold" lengthAdjust="spacing" textLength="14" x="52.5" y="730.5576">17</text><text fill="#000000" font-family="sans-serif" font-size="13" lengthAdjust="spacing" textLength="167" x="70.5" y="730.5576">mostra conferma assunzione</text><!--SRC=[ZLJ1Zjem4BtxAqOvmG5klI1AjK3K8hMxQ4cxbqhLu0pKgh4hsw7gVdt7TX9IYdPxIcA_D_FU6pj11KtmUVK69l09bO5T8oLv3pj91fsoCxZplZ7FoXg2BJbl3Mge76F92O5DiAOvxTEx3DP1iLQE0hzH0UYX_n9xsvWQtMyetfCFiLvNZhue-lNLpEVB5h9O96vS5jAQuApEBAxJao9XbJSrkPPoMH1aWWhSpJJsRBVLh5VVYe_yCc5Qxdq6ziGQxJ-azTr3v6rC87T0IIrrM_66g37W7Zr1uQLJFmC7eixqhTxd99P2z6d0P97imGoKyUIKbmJCLrpg9afg9IL24QTnKeKGQPttBuuPTQImCJwWaJGQ2sC3WLF7xm7iOHZD5WFhvs4hSzJ44sJFDKIu4D8HCgqBeslJVdEF-Jn35elhS4RJwNGiEkHaO35AUiRexRPkJAwsrQWTrbYaxAAGWMmnu72553gJUUcCB6LJZrJTIXaKoBCH6SsqzP8vk_9ZkQfu3vu-b8ybz4Hu2-ykN9uPmoU3PeRYTOX4pb2TRUuUhAXfoEhQNHirZTP3Q2lkjZ6F-emt8hdfQ7E_AnyhVbGFrtDvoK_g4V1uL1RugXt8dVxVZVtnYfVB4V3vl_9NvU5eksFHmfCWPx32FMcDV9Wp8BhjRySCJjO7XxtmT8xolqhy0G00]--></g></svg>