<?xml version="1.0" encoding="us-ascii" standalone="no"?><svg xmlns="http://www.w3.org/2000/svg" xmlns:xlink="http://www.w3.org/1999/xlink" contentStyleType="text/css" height="882px" preserveAspectRatio="none" style="width:1131px;height:882px;background:#FFFFFF;" version="1.1" viewBox="0 0 1131 882" width="1131px" zoomAndPan="magnify"><defs/><g><text fill="#000000" font-family="sans-serif" font-size="14" font-weight="bold" lengthAdjust="spacing" textLength="424" x="355" y="29.5332">UC5 - Main Success Scenario: Licenziamento senza sostituto</text><rect fill="#FFFFFF" height="427.2734" style="stroke:#181818;stroke-width:1.0;" width="10" x="479.5" y="280.9766"/><rect fill="#FFFFFF" height="91.0547" style="stroke:#181818;stroke-width:1.0;" width="10" x="663.5" y="311.3281"/><rect fill="#FFFFFF" height="123.7578" style="stroke:#181818;stroke-width:1.0;" width="10" x="663.5" y="554.1406"/><rect fill="#FFFFFF" height="91.0547" style="stroke:#181818;stroke-width:1.0;" width="10" x="842.5" y="432.7344"/><rect fill="#FFFFFF" height="30.3516" style="stroke:#181818;stroke-width:1.0;" width="10" x="1074.5" y="341.6797"/><rect fill="#FFFFFF" height="30.3516" style="stroke:#181818;stroke-width:1.0;" width="10" x="1074.5" y="463.0859"/><rect fill="#FFFFFF" height="30.3516" style="stroke:#181818;stroke-width:1.0;" width="10" x="1074.5" y="617.1953"/><line style="stroke:#181818;stroke-width:0.5;stroke-dasharray:5.0,5.0;" x1="35" x2="35" y1="121.2188" y2="799.9531"/><line style="stroke:#181818;stroke-width:0.5;stroke-dasharray:5.0,5.0;" x1="259.5" x2="259.5" y1="121.2188" y2="799.9531"/><line style="stroke:#181818;stroke-width:0.5;stroke-dasharray:5.0,5.0;" x1="484" x2="484" y1="121.2188" y2="799.9531"/><line style="stroke:#181818;stroke-width:0.5;stroke-dasharray:5.0,5.0;" x1="668.5" x2="668.5" y1="121.2188" y2="799.9531"/><line style="stroke:#181818;stroke-width:0.5;stroke-dasharray:5.0,5.0;" x1="847.5" x2="847.5" y1="121.2188" y2="799.9531"/><line style="stroke:#181818;stroke-width:0.5;stroke-dasharray:5.0,5.0;" x1="1079" x2="1079" y1="121.2188" y2="799.9531"/><text fill="#000000" font-family="sans-serif" font-size="14" lengthAdjust="spacing" textLength="55" x="5" y="118.1426">Direttore</text><ellipse cx="35.5" cy="52.1094" fill="#E2E2F0" rx="8" ry="8" style="stroke:#181818;stroke-width:0.5;"/><path d="M35.5,60.1094 L35.5,87.1094 M22.5,68.1094 L48.5,68.1094 M35.5,87.1094 L22.5,102.1094 M35.5,87.1094 L48.5,102.1094 " fill="none" style="stroke:#181818;stroke-width:0.5;"/><text fill="#000000" font-family="sans-serif" font-size="14" lengthAdjust="spacing" textLength="55" x="5" y="813.4863">Direttore</text><ellipse cx="35.5" cy="825.0625" fill="#E2E2F0" rx="8" ry="8" style="stroke:#181818;stroke-width:0.5;"/><path d="M35.5,833.0625 L35.5,860.0625 M22.5,841.0625 L48.5,841.0625 M35.5,860.0625 L22.5,875.0625 M35.5,860.0625 L48.5,875.0625 " fill="none" style="stroke:#181818;stroke-width:0.5;"/><text fill="#000000" font-family="sans-serif" font-size="14" lengthAdjust="spacing" textLength="150" x="181.5" y="100.5332">GestionePersonaleView</text><text fill="#000000" font-family="sans-serif" font-size="14" lengthAdjust="spacing" textLength="77" x="218" y="118.1426">&#171;Boundary&#187;</text><path d="M239,58 L239,82 M239,70 L256,70 " fill="none" style="stroke:#181818;stroke-width:0.5;"/><ellipse cx="268" cy="70" fill="#E2E2F0" rx="12" ry="12" style="stroke:#181818;stroke-width:0.5;"/><text fill="#000000" font-family="sans-serif" font-size="14" lengthAdjust="spacing" textLength="150" x="181.5" y="813.4863">GestionePersonaleView</text><text fill="#000000" font-family="sans-serif" font-size="14" lengthAdjust="spacing" textLength="77" x="218" y="831.0957">&#171;Boundary&#187;</text><path d="M239,838.1719 L239,862.1719 M239,850.1719 L256,850.1719 " fill="none" style="stroke:#181818;stroke-width:0.5;"/><ellipse cx="268" cy="850.1719" fill="#E2E2F0" rx="12" ry="12" style="stroke:#181818;stroke-width:0.5;"/><text fill="#000000" font-family="sans-serif" font-size="14" lengthAdjust="spacing" textLength="115" x="424" y="100.5332">GestorePersonale</text><text fill="#000000" font-family="sans-serif" font-size="14" lengthAdjust="spacing" textLength="78" x="442.5" y="118.1426">&#171;Controller&#187;</text><ellipse cx="484.5" cy="70" fill="#E2E2F0" rx="12" ry="12" style="stroke:#181818;stroke-width:0.5;"/><polygon fill="#181818" points="480.5,58,486.5,53,484.5,58,486.5,63,480.5,58" style="stroke:#181818;stroke-width:1.0;"/><text fill="#000000" font-family="sans-serif" font-size="14" lengthAdjust="spacing" textLength="115" x="424" y="813.4863">GestorePersonale</text><text fill="#000000" font-family="sans-serif" font-size="14" lengthAdjust="spacing" textLength="78" x="442.5" y="831.0957">&#171;Controller&#187;</text><ellipse cx="484.5" cy="850.1719" fill="#E2E2F0" rx="12" ry="12" style="stroke:#181818;stroke-width:0.5;"/><polygon fill="#181818" points="480.5,838.1719,486.5,833.1719,484.5,838.1719,486.5,843.1719,480.5,838.1719" style="stroke:#181818;stroke-width:1.0;"/><text fill="#000000" font-family="sans-serif" font-size="14" lengthAdjust="spacing" textLength="164" x="583.5" y="100.5332">dao: PersonalTrainerDAO</text><text fill="#000000" font-family="sans-serif" font-size="14" lengthAdjust="spacing" textLength="71" x="630" y="118.1426">&#171;Interface&#187;</text><ellipse cx="668.5" cy="70" fill="#E2E2F0" rx="12" ry="12" style="stroke:#181818;stroke-width:0.5;"/><line style="stroke:#181818;stroke-width:0.5;" x1="656.5" x2="680.5" y1="84" y2="84"/><text fill="#000000" font-family="sans-serif" font-size="14" lengthAdjust="spacing" textLength="164" x="583.5" y="813.4863">dao: PersonalTrainerDAO</text><text fill="#000000" font-family="sans-serif" font-size="14" lengthAdjust="spacing" textLength="71" x="630" y="831.0957">&#171;Interface&#187;</text><ellipse cx="668.5" cy="850.1719" fill="#E2E2F0" rx="12" ry="12" style="stroke:#181818;stroke-width:0.5;"/><line style="stroke:#181818;stroke-width:0.5;" x1="656.5" x2="680.5" y1="864.1719" y2="864.1719"/><text fill="#000000" font-family="sans-serif" font-size="14" lengthAdjust="spacing" textLength="162" x="763.5" y="100.5332">ServizioSwapCorsiMySQL</text><text fill="#000000" font-family="sans-serif" font-size="14" lengthAdjust="spacing" textLength="63" x="813" y="118.1426">&#171;Service&#187;</text><ellipse cx="847.5" cy="70" fill="#E2E2F0" rx="12" ry="12" style="stroke:#181818;stroke-width:0.5;"/><polygon fill="#181818" points="843.5,58,849.5,53,847.5,58,849.5,63,843.5,58" style="stroke:#181818;stroke-width:1.0;"/><text fill="#000000" font-family="sans-serif" font-size="14" lengthAdjust="spacing" textLength="162" x="763.5" y="813.4863">ServizioSwapCorsiMySQL</text><text fill="#000000" font-family="sans-serif" font-size="14" lengthAdjust="spacing" textLength="63" x="813" y="831.0957">&#171;Service&#187;</text><ellipse cx="847.5" cy="850.1719" fill="#E2E2F0" rx="12" ry="12" style="stroke:#181818;stroke-width:0.5;"/><polygon fill="#181818" points="843.5,838.1719,849.5,833.1719,847.5,838.1719,849.5,843.1719,843.5,838.1719" style="stroke:#181818;stroke-width:1.0;"/><text fill="#000000" font-family="sans-serif" font-size="14" lengthAdjust="spacing" textLength="95" x="1029" y="118.1426">scriptactive_db</text><path d="M1061.5,67.6094 C1061.5,57.6094 1079.5,57.6094 1079.5,57.6094 C1079.5,57.6094 1097.5,57.6094 1097.5,67.6094 L1097.5,93.6094 C1097.5,103.6094 1079.5,103.6094 1079.5,103.6094 C1079.5,103.6094 1061.5,103.6094 1061.5,93.6094 L1061.5,67.6094 " fill="#E2E2F0" style="stroke:#181818;stroke-width:1.5;"/><path d="M1061.5,67.6094 C1061.5,77.6094 1079.5,77.6094 1079.5,77.6094 C1079.5,77.6094 1097.5,77.6094 1097.5,67.6094 " fill="none" style="stroke:#181818;stroke-width:1.5;"/><text fill="#000000" font-family="sans-serif" font-size="14" lengthAdjust="spacing" textLength="95" x="1029" y="813.4863">scriptactive_db</text><path d="M1061.5,826.5625 C1061.5,816.5625 1079.5,816.5625 1079.5,816.5625 C1079.5,816.5625 1097.5,816.5625 1097.5,826.5625 L1097.5,852.5625 C1097.5,862.5625 1079.5,862.5625 1079.5,862.5625 C1079.5,862.5625 1061.5,862.5625 1061.5,852.5625 L1061.5,826.5625 " fill="#E2E2F0" style="stroke:#181818;stroke-width:1.5;"/><path d="M1061.5,826.5625 C1061.5,836.5625 1079.5,836.5625 1079.5,836.5625 C1079.5,836.5625 1097.5,836.5625 1097.5,826.5625 " fill="none" style="stroke:#181818;stroke-width:1.5;"/><rect fill="#FFFFFF" height="427.2734" style="stroke:#181818;stroke-width:1.0;" width="10" x="479.5" y="280.9766"/><rect fill="#FFFFFF" height="91.0547" style="stroke:#181818;stroke-width:1.0;" width="10" x="663.5" y="311.3281"/><rect fill="#FFFFFF" height="123.7578" style="stroke:#181818;stroke-width:1.0;" width="10" x="663.5" y="554.1406"/><rect fill="#FFFFFF" height="91.0547" style="stroke:#181818;stroke-width:1.0;" width="10" x="842.5" y="432.7344"/><rect fill="#FFFFFF" height="30.3516" style="stroke:#181818;stroke-width:1.0;" width="10" x="1074.5" y="341.6797"/><rect fill="#FFFFFF" height="30.3516" style="stroke:#181818;stroke-width:1.0;" width="10" x="1074.5" y="463.0859"/><rect fill="#FFFFFF" height="30.3516" style="stroke:#181818;stroke-width:1.0;" width="10" x="1074.5" y="617.1953"/><polygon fill="#181818" points="247.5,149.5703,257.5,153.5703,247.5,157.5703,251.5,153.5703" style="stroke:#181818;stroke-width:1.0;"/><line style="stroke:#181818;stroke-width:1.0;" x1="35.5" x2="253.5" y1="153.5703" y2="153.5703"/><text fill="#000000" font-family="sans-serif" font-size="13" font-weight="bold" lengthAdjust="spacing" textLength="7" x="42.5" y="148.7139">1</text><text fill="#000000" font-family="sans-serif" font-size="13" lengthAdjust="spacing" textLength="152" x="53.5" y="148.7139">seleziona PT da licenziare</text><polygon fill="#181818" points="247.5,179.9219,257.5,183.9219,247.5,187.9219,251.5,183.9219" style="stroke:#181818;stroke-width:1.0;"/><line style="stroke:#181818;stroke-width:1.0;" x1="35.5" x2="253.5" y1="183.9219" y2="183.9219"/><text fill="#000000" font-family="sans-serif" font-size="13" font-weight="bold" lengthAdjust="spacing" textLength="7" x="42.5" y="179.0654">2</text><text fill="#000000" font-family="sans-serif" font-size="13" lengthAdjust="spacing" textLength="189" x="53.5" y="179.0654">clicca "Licenzia senza sostituto"</text><polygon fill="#181818" points="472.5,210.2734,482.5,214.2734,472.5,218.2734,476.5,214.2734" style="stroke:#181818;stroke-width:1.0;"/><line style="stroke:#181818;stroke-width:1.0;" x1="259.5" x2="478.5" y1="214.2734" y2="214.2734"/><text fill="#000000" font-family="sans-serif" font-size="13" font-weight="bold" lengthAdjust="spacing" textLength="7" x="266.5" y="209.417">3</text><text fill="#000000" font-family="sans-serif" font-size="13" lengthAdjust="spacing" textLength="75" x="277.5" y="209.417">getInstance()</text><path d="M489,227.2734 L489,253.2734 L610,253.2734 L610,237.2734 L600,227.2734 L489,227.2734 " fill="#FEFFDD" style="stroke:#181818;stroke-width:0.5;"/><path d="M600,227.2734 L600,237.2734 L610,237.2734 L600,227.2734 " fill="#FEFFDD" style="stroke:#181818;stroke-width:0.5;"/><text fill="#000000" font-family="sans-serif" font-size="13" lengthAdjust="spacing" textLength="100" x="495" y="245.7686">Pattern Singleton</text><polygon fill="#181818" points="467.5,276.9766,477.5,280.9766,467.5,284.9766,471.5,280.9766" style="stroke:#181818;stroke-width:1.0;"/><line style="stroke:#181818;stroke-width:1.0;" x1="259.5" x2="473.5" y1="280.9766" y2="280.9766"/><text fill="#000000" font-family="sans-serif" font-size="13" font-weight="bold" lengthAdjust="spacing" textLength="7" x="266.5" y="276.1201">4</text><text fill="#000000" font-family="sans-serif" font-size="13" lengthAdjust="spacing" textLength="190" x="277.5" y="276.1201">licenziaSenzaSostituto(idTrainer)</text><polygon fill="#181818" points="651.5,307.3281,661.5,311.3281,651.5,315.3281,655.5,311.3281" style="stroke:#181818;stroke-width:1.0;"/><line style="stroke:#181818;stroke-width:1.0;" x1="489.5" x2="657.5" y1="311.3281" y2="311.3281"/><text fill="#000000" font-family="sans-serif" font-size="13" font-weight="bold" lengthAdjust="spacing" textLength="7" x="496.5" y="306.4717">5</text><text fill="#000000" font-family="sans-serif" font-size="13" lengthAdjust="spacing" textLength="114" x="507.5" y="306.4717">trovaPerId(idTrainer)</text><polygon fill="#181818" points="1062.5,337.6797,1072.5,341.6797,1062.5,345.6797,1066.5,341.6797" style="stroke:#181818;stroke-width:1.0;"/><line style="stroke:#181818;stroke-width:1.0;" x1="673.5" x2="1068.5" y1="341.6797" y2="341.6797"/><text fill="#000000" font-family="sans-serif" font-size="13" font-weight="bold" lengthAdjust="spacing" textLength="7" x="680.5" y="336.8232">6</text><text fill="#000000" font-family="sans-serif" font-size="13" lengthAdjust="spacing" textLength="199" x="691.5" y="336.8232">SELECT PT WHERE idTrainer = ?</text><polygon fill="#181818" points="684.5,368.0313,674.5,372.0313,684.5,376.0313,680.5,372.0313" style="stroke:#181818;stroke-width:1.0;"/><line style="stroke:#181818;stroke-width:1.0;stroke-dasharray:2.0,2.0;" x1="678.5" x2="1078.5" y1="372.0313" y2="372.0313"/><text fill="#000000" font-family="sans-serif" font-size="13" font-weight="bold" lengthAdjust="spacing" textLength="7" x="690.5" y="367.1748">7</text><text fill="#000000" font-family="sans-serif" font-size="13" lengthAdjust="spacing" textLength="41" x="701.5" y="367.1748">dati PT</text><polygon fill="#181818" points="500.5,398.3828,490.5,402.3828,500.5,406.3828,496.5,402.3828" style="stroke:#181818;stroke-width:1.0;"/><line style="stroke:#181818;stroke-width:1.0;stroke-dasharray:2.0,2.0;" x1="494.5" x2="667.5" y1="402.3828" y2="402.3828"/><text fill="#000000" font-family="sans-serif" font-size="13" font-weight="bold" lengthAdjust="spacing" textLength="7" x="506.5" y="397.5264">8</text><text fill="#000000" font-family="sans-serif" font-size="13" lengthAdjust="spacing" textLength="88" x="517.5" y="397.5264">personalTrainer</text><polygon fill="#181818" points="830.5,428.7344,840.5,432.7344,830.5,436.7344,834.5,432.7344" style="stroke:#181818;stroke-width:1.0;"/><line style="stroke:#181818;stroke-width:1.0;" x1="489.5" x2="836.5" y1="432.7344" y2="432.7344"/><text fill="#000000" font-family="sans-serif" font-size="13" font-weight="bold" lengthAdjust="spacing" textLength="7" x="496.5" y="427.8779">9</text><text fill="#000000" font-family="sans-serif" font-size="13" lengthAdjust="spacing" textLength="172" x="507.5" y="427.8779">haCorsiAttiviOFuturi(idTrainer)</text><polygon fill="#181818" points="1062.5,459.0859,1072.5,463.0859,1062.5,467.0859,1066.5,463.0859" style="stroke:#181818;stroke-width:1.0;"/><line style="stroke:#181818;stroke-width:1.0;" x1="852.5" x2="1068.5" y1="463.0859" y2="463.0859"/><text fill="#000000" font-family="sans-serif" font-size="13" font-weight="bold" lengthAdjust="spacing" textLength="14" x="859.5" y="458.2295">10</text><text fill="#000000" font-family="sans-serif" font-size="13" lengthAdjust="spacing" textLength="185" x="877.5" y="458.2295">SELECT corsi attivi/futuri del PT</text><polygon fill="#181818" points="863.5,489.4375,853.5,493.4375,863.5,497.4375,859.5,493.4375" style="stroke:#181818;stroke-width:1.0;"/><line style="stroke:#181818;stroke-width:1.0;stroke-dasharray:2.0,2.0;" x1="857.5" x2="1078.5" y1="493.4375" y2="493.4375"/><text fill="#000000" font-family="sans-serif" font-size="13" font-weight="bold" lengthAdjust="spacing" textLength="14" x="869.5" y="488.5811">11</text><text fill="#000000" font-family="sans-serif" font-size="13" lengthAdjust="spacing" textLength="120" x="887.5" y="488.5811">nessun corso trovato</text><polygon fill="#181818" points="500.5,519.7891,490.5,523.7891,500.5,527.7891,496.5,523.7891" style="stroke:#181818;stroke-width:1.0;"/><line style="stroke:#181818;stroke-width:1.0;stroke-dasharray:2.0,2.0;" x1="494.5" x2="846.5" y1="523.7891" y2="523.7891"/><text fill="#000000" font-family="sans-serif" font-size="13" font-weight="bold" lengthAdjust="spacing" textLength="14" x="506.5" y="518.9326">12</text><text fill="#000000" font-family="sans-serif" font-size="13" lengthAdjust="spacing" textLength="27" x="524.5" y="518.9326">false</text><polygon fill="#181818" points="651.5,550.1406,661.5,554.1406,651.5,558.1406,655.5,554.1406" style="stroke:#181818;stroke-width:1.0;"/><line style="stroke:#181818;stroke-width:1.0;" x1="489.5" x2="657.5" y1="554.1406" y2="554.1406"/><text fill="#000000" font-family="sans-serif" font-size="13" font-weight="bold" lengthAdjust="spacing" textLength="14" x="496.5" y="549.2842">13</text><text fill="#000000" font-family="sans-serif" font-size="13" lengthAdjust="spacing" textLength="137" x="514.5" y="549.2842">elimina(personalTrainer)</text><polygon fill="#181818" points="1062.5,613.1953,1072.5,617.1953,1062.5,621.1953,1066.5,617.1953" style="stroke:#181818;stroke-width:1.0;"/><line style="stroke:#181818;stroke-width:1.0;" x1="673.5" x2="1068.5" y1="617.1953" y2="617.1953"/><text fill="#000000" font-family="sans-serif" font-size="13" font-weight="bold" lengthAdjust="spacing" textLength="14" x="680.5" y="595.9873">14</text><text fill="#000000" font-family="sans-serif" font-size="13" lengthAdjust="spacing" textLength="146" x="698.5" y="579.6357">UPDATE PersonalTrainer</text><text fill="#000000" font-family="sans-serif" font-size="13" lengthAdjust="spacing" textLength="108" x="698.5" y="595.9873">SET Attivo = false,</text><text fill="#000000" font-family="sans-serif" font-size="13" lengthAdjust="spacing" textLength="177" x="698.5" y="612.3389">StatoContratto = 'LICENZIATO'</text><polygon fill="#181818" points="684.5,643.5469,674.5,647.5469,684.5,651.5469,680.5,647.5469" style="stroke:#181818;stroke-width:1.0;"/><line style="stroke:#181818;stroke-width:1.0;stroke-dasharray:2.0,2.0;" x1="678.5" x2="1078.5" y1="647.5469" y2="647.5469"/><text fill="#000000" font-family="sans-serif" font-size="13" font-weight="bold" lengthAdjust="spacing" textLength="14" x="690.5" y="642.6904">15</text><text fill="#000000" font-family="sans-serif" font-size="13" lengthAdjust="spacing" textLength="153" x="708.5" y="642.6904">aggiornamento confermato</text><polygon fill="#181818" points="500.5,673.8984,490.5,677.8984,500.5,681.8984,496.5,677.8984" style="stroke:#181818;stroke-width:1.0;"/><line style="stroke:#181818;stroke-width:1.0;stroke-dasharray:2.0,2.0;" x1="494.5" x2="667.5" y1="677.8984" y2="677.8984"/><text fill="#000000" font-family="sans-serif" font-size="13" font-weight="bold" lengthAdjust="spacing" textLength="14" x="506.5" y="673.042">16</text><text fill="#000000" font-family="sans-serif" font-size="13" lengthAdjust="spacing" textLength="14" x="524.5" y="673.042">ok</text><polygon fill="#181818" points="270.5,704.25,260.5,708.25,270.5,712.25,266.5,708.25" style="stroke:#181818;stroke-width:1.0;"/><line style="stroke:#181818;stroke-width:1.0;stroke-dasharray:2.0,2.0;" x1="264.5" x2="483.5" y1="708.25" y2="708.25"/><text fill="#000000" font-family="sans-serif" font-size="13" font-weight="bold" lengthAdjust="spacing" textLength="14" x="276.5" y="703.3936">17</text><text fill="#000000" font-family="sans-serif" font-size="13" lengthAdjust="spacing" textLength="148" x="294.5" y="703.3936">licenziamento completato</text><line style="stroke:#181818;stroke-width:1.0;" x1="259.5" x2="301.5" y1="738.6016" y2="738.6016"/><line style="stroke:#181818;stroke-width:1.0;" x1="301.5" x2="301.5" y1="738.6016" y2="751.6016"/><line style="stroke:#181818;stroke-width:1.0;" x1="260.5" x2="301.5" y1="751.6016" y2="751.6016"/><polygon fill="#181818" points="270.5,747.6016,260.5,751.6016,270.5,755.6016,266.5,751.6016" style="stroke:#181818;stroke-width:1.0;"/><text fill="#000000" font-family="sans-serif" font-size="13" font-weight="bold" lengthAdjust="spacing" textLength="14" x="266.5" y="733.7451">18</text><text fill="#000000" font-family="sans-serif" font-size="13" lengthAdjust="spacing" textLength="98" x="284.5" y="733.7451">aggiornaTabella()</text><polygon fill="#181818" points="46.5,777.9531,36.5,781.9531,46.5,785.9531,42.5,781.9531" style="stroke:#181818;stroke-width:1.0;"/><line style="stroke:#181818;stroke-width:1.0;stroke-dasharray:2.0,2.0;" x1="40.5" x2="258.5" y1="781.9531" y2="781.9531"/><text fill="#000000" font-family="sans-serif" font-size="13" font-weight="bold" lengthAdjust="spacing" textLength="14" x="52.5" y="777.0967">19</text><text fill="#000000" font-family="sans-serif" font-size="13" lengthAdjust="spacing" textLength="181" x="70.5" y="777.0967">mostra conferma licenziamento</text><!--SRC=[XLHDRzim3BthLn2-D0KMxBHBq7N8XxS5I9TiTZTWA30mDfCAawL0bbEqltwq_17RSDUB8OjyZ-GZAIUT8hXVVe0ftA7K41L9GdaEKK8QhJGps4W-laZCI3i3EPyHSfCxwGfdX43-wYBRa-Lpueo5O2KjEJvH09X3-oVsfj0fscS8lX3ZZQOTsTneLFHJqjE3lhbPr2wtjnvRNel4Q6UDgb3Cqu9AmB8oAh8rv78XE67fE5gAN4Q3YYsNINOrtvRmjNPa3vXGZTx5RBX4ZCYUvOiqqHEUbiRcykuv-hufWTxImafxVIDITBZ7d2384ojFZaMHP_gJxYir5aAqYi3qrfS8CzPL4GVIo2b0Yg1grLcsCVU4xGb2q3Hds9T02E_9Y8iWZ3kIM-lSeKveSYsqSGHM7XyTc4DNkHqwreMdGUgZ8cumQvb2wVuARvDkLAOHDLbCP5hBVIsy3CZnEc54XuCPlVXCnbTdv7wjqr62gaUYycROQi6OADo4oxWKxzVNy4S8BH0-mgSBbkLdzsad6BTByez8gUlKi0_hFFMdg8kgq-gNr1aCHZ-Y7wAvOuZSVYvSOULeYTrv4bsEGRb9IGVe-TuVF1-afCfwHahk9wDvpGljAKmbEQ_pG8LUwA4M1rGvTH6zhCTRIqfcKkDaeEDRtRtVhUPnEDpX1ns5CNWr3RVPv_EEBnrNuiEpCANXQhDUXjz-h-Vnzkf_eu37epHMroyTFm87ijc8Ag_CXldxnZXSrbVrtjJ4P2VUia6axfuqErV3cqHZt9DIo9jSEPHojO_533BUGujj8VseuXy0]--></g></svg>