<?xml version="1.0" encoding="us-ascii" standalone="no"?><svg xmlns="http://www.w3.org/2000/svg" xmlns:xlink="http://www.w3.org/1999/xlink" contentStyleType="text/css" height="617px" preserveAspectRatio="none" style="width:1152px;height:617px;background:#FFFFFF;" version="1.1" viewBox="0 0 1152 617" width="1152px" zoomAndPan="magnify"><defs/><g><text fill="#000000" font-family="sans-serif" font-size="14" font-weight="bold" lengthAdjust="spacing" textLength="315" x="420.25" y="29.5332">UC5 - Alternative Flow A2: PT non licenziabile</text><rect fill="#FFFFFF" height="273.1641" style="stroke:#181818;stroke-width:1.0;" width="10" x="536.5" y="214.2734"/><rect fill="#FFFFFF" height="91.0547" style="stroke:#181818;stroke-width:1.0;" width="10" x="692" y="244.625"/><rect fill="#FFFFFF" height="91.0547" style="stroke:#181818;stroke-width:1.0;" width="10" x="871" y="366.0313"/><rect fill="#FFFFFF" height="30.3516" style="stroke:#181818;stroke-width:1.0;" width="10" x="1096" y="274.9766"/><rect fill="#FFFFFF" height="30.3516" style="stroke:#181818;stroke-width:1.0;" width="10" x="1096" y="396.3828"/><line style="stroke:#181818;stroke-width:0.5;stroke-dasharray:5.0,5.0;" x1="35" x2="35" y1="121.2188" y2="535.7891"/><line style="stroke:#181818;stroke-width:0.5;stroke-dasharray:5.0,5.0;" x1="271.5" x2="271.5" y1="121.2188" y2="535.7891"/><line style="stroke:#181818;stroke-width:0.5;stroke-dasharray:5.0,5.0;" x1="541" x2="541" y1="121.2188" y2="535.7891"/><line style="stroke:#181818;stroke-width:0.5;stroke-dasharray:5.0,5.0;" x1="697" x2="697" y1="121.2188" y2="535.7891"/><line style="stroke:#181818;stroke-width:0.5;stroke-dasharray:5.0,5.0;" x1="876" x2="876" y1="121.2188" y2="535.7891"/><line style="stroke:#181818;stroke-width:0.5;stroke-dasharray:5.0,5.0;" x1="1100.5" x2="1100.5" y1="121.2188" y2="535.7891"/><text fill="#000000" font-family="sans-serif" font-size="14" lengthAdjust="spacing" textLength="55" x="5" y="118.1426">Direttore</text><ellipse cx="35.5" cy="52.1094" fill="#E2E2F0" rx="8" ry="8" style="stroke:#181818;stroke-width:0.5;"/><path d="M35.5,60.1094 L35.5,87.1094 M22.5,68.1094 L48.5,68.1094 M35.5,87.1094 L22.5,102.1094 M35.5,87.1094 L48.5,102.1094 " fill="none" style="stroke:#181818;stroke-width:0.5;"/><text fill="#000000" font-family="sans-serif" font-size="14" lengthAdjust="spacing" textLength="55" x="5" y="549.3223">Direttore</text><ellipse cx="35.5" cy="560.8984" fill="#E2E2F0" rx="8" ry="8" style="stroke:#181818;stroke-width:0.5;"/><path d="M35.5,568.8984 L35.5,595.8984 M22.5,576.8984 L48.5,576.8984 M35.5,595.8984 L22.5,610.8984 M35.5,595.8984 L48.5,610.8984 " fill="none" style="stroke:#181818;stroke-width:0.5;"/><text fill="#000000" font-family="sans-serif" font-size="14" lengthAdjust="spacing" textLength="150" x="193.5" y="100.5332">GestionePersonaleView</text><text fill="#000000" font-family="sans-serif" font-size="14" lengthAdjust="spacing" textLength="77" x="230" y="118.1426">&#171;Boundary&#187;</text><path d="M251,58 L251,82 M251,70 L268,70 " fill="none" style="stroke:#181818;stroke-width:0.5;"/><ellipse cx="280" cy="70" fill="#E2E2F0" rx="12" ry="12" style="stroke:#181818;stroke-width:0.5;"/><text fill="#000000" font-family="sans-serif" font-size="14" lengthAdjust="spacing" textLength="150" x="193.5" y="549.3223">GestionePersonaleView</text><text fill="#000000" font-family="sans-serif" font-size="14" lengthAdjust="spacing" textLength="77" x="230" y="566.9316">&#171;Boundary&#187;</text><path d="M251,574.0078 L251,598.0078 M251,586.0078 L268,586.0078 " fill="none" style="stroke:#181818;stroke-width:0.5;"/><ellipse cx="280" cy="586.0078" fill="#E2E2F0" rx="12" ry="12" style="stroke:#181818;stroke-width:0.5;"/><text fill="#000000" font-family="sans-serif" font-size="14" lengthAdjust="spacing" textLength="115" x="481" y="100.5332">GestorePersonale</text><text fill="#000000" font-family="sans-serif" font-size="14" lengthAdjust="spacing" textLength="78" x="499.5" y="118.1426">&#171;Controller&#187;</text><ellipse cx="541.5" cy="70" fill="#E2E2F0" rx="12" ry="12" style="stroke:#181818;stroke-width:0.5;"/><polygon fill="#181818" points="537.5,58,543.5,53,541.5,58,543.5,63,537.5,58" style="stroke:#181818;stroke-width:1.0;"/><text fill="#000000" font-family="sans-serif" font-size="14" lengthAdjust="spacing" textLength="115" x="481" y="549.3223">GestorePersonale</text><text fill="#000000" font-family="sans-serif" font-size="14" lengthAdjust="spacing" textLength="78" x="499.5" y="566.9316">&#171;Controller&#187;</text><ellipse cx="541.5" cy="586.0078" fill="#E2E2F0" rx="12" ry="12" style="stroke:#181818;stroke-width:0.5;"/><polygon fill="#181818" points="537.5,574.0078,543.5,569.0078,541.5,574.0078,543.5,579.0078,537.5,574.0078" style="stroke:#181818;stroke-width:1.0;"/><text fill="#000000" font-family="sans-serif" font-size="14" lengthAdjust="spacing" textLength="164" x="612" y="100.5332">dao: PersonalTrainerDAO</text><text fill="#000000" font-family="sans-serif" font-size="14" lengthAdjust="spacing" textLength="71" x="658.5" y="118.1426">&#171;Interface&#187;</text><ellipse cx="697" cy="70" fill="#E2E2F0" rx="12" ry="12" style="stroke:#181818;stroke-width:0.5;"/><line style="stroke:#181818;stroke-width:0.5;" x1="685" x2="709" y1="84" y2="84"/><text fill="#000000" font-family="sans-serif" font-size="14" lengthAdjust="spacing" textLength="164" x="612" y="549.3223">dao: PersonalTrainerDAO</text><text fill="#000000" font-family="sans-serif" font-size="14" lengthAdjust="spacing" textLength="71" x="658.5" y="566.9316">&#171;Interface&#187;</text><ellipse cx="697" cy="586.0078" fill="#E2E2F0" rx="12" ry="12" style="stroke:#181818;stroke-width:0.5;"/><line style="stroke:#181818;stroke-width:0.5;" x1="685" x2="709" y1="600.0078" y2="600.0078"/><text fill="#000000" font-family="sans-serif" font-size="14" lengthAdjust="spacing" textLength="162" x="792" y="100.5332">ServizioSwapCorsiMySQL</text><text fill="#000000" font-family="sans-serif" font-size="14" lengthAdjust="spacing" textLength="63" x="841.5" y="118.1426">&#171;Service&#187;</text><ellipse cx="876" cy="70" fill="#E2E2F0" rx="12" ry="12" style="stroke:#181818;stroke-width:0.5;"/><polygon fill="#181818" points="872,58,878,53,876,58,878,63,872,58" style="stroke:#181818;stroke-width:1.0;"/><text fill="#000000" font-family="sans-serif" font-size="14" lengthAdjust="spacing" textLength="162" x="792" y="549.3223">ServizioSwapCorsiMySQL</text><text fill="#000000" font-family="sans-serif" font-size="14" lengthAdjust="spacing" textLength="63" x="841.5" y="566.9316">&#171;Service&#187;</text><ellipse cx="876" cy="586.0078" fill="#E2E2F0" rx="12" ry="12" style="stroke:#181818;stroke-width:0.5;"/><polygon fill="#181818" points="872,574.0078,878,569.0078,876,574.0078,878,579.0078,872,574.0078" style="stroke:#181818;stroke-width:1.0;"/><text fill="#000000" font-family="sans-serif" font-size="14" lengthAdjust="spacing" textLength="95" x="1050.5" y="118.1426">scriptactive_db</text><path d="M1083,67.6094 C1083,57.6094 1101,57.6094 1101,57.6094 C1101,57.6094 1119,57.6094 1119,67.6094 L1119,93.6094 C1119,103.6094 1101,103.6094 1101,103.6094 C1101,103.6094 1083,103.6094 1083,93.6094 L1083,67.6094 " fill="#E2E2F0" style="stroke:#181818;stroke-width:1.5;"/><path d="M1083,67.6094 C1083,77.6094 1101,77.6094 1101,77.6094 C1101,77.6094 1119,77.6094 1119,67.6094 " fill="none" style="stroke:#181818;stroke-width:1.5;"/><text fill="#000000" font-family="sans-serif" font-size="14" lengthAdjust="spacing" textLength="95" x="1050.5" y="549.3223">scriptactive_db</text><path d="M1083,562.3984 C1083,552.3984 1101,552.3984 1101,552.3984 C1101,552.3984 1119,552.3984 1119,562.3984 L1119,588.3984 C1119,598.3984 1101,598.3984 1101,598.3984 C1101,598.3984 1083,598.3984 1083,588.3984 L1083,562.3984 " fill="#E2E2F0" style="stroke:#181818;stroke-width:1.5;"/><path d="M1083,562.3984 C1083,572.3984 1101,572.3984 1101,572.3984 C1101,572.3984 1119,572.3984 1119,562.3984 " fill="none" style="stroke:#181818;stroke-width:1.5;"/><rect fill="#FFFFFF" height="273.1641" style="stroke:#181818;stroke-width:1.0;" width="10" x="536.5" y="214.2734"/><rect fill="#FFFFFF" height="91.0547" style="stroke:#181818;stroke-width:1.0;" width="10" x="692" y="244.625"/><rect fill="#FFFFFF" height="91.0547" style="stroke:#181818;stroke-width:1.0;" width="10" x="871" y="366.0313"/><rect fill="#FFFFFF" height="30.3516" style="stroke:#181818;stroke-width:1.0;" width="10" x="1096" y="274.9766"/><rect fill="#FFFFFF" height="30.3516" style="stroke:#181818;stroke-width:1.0;" width="10" x="1096" y="396.3828"/><polygon fill="#181818" points="259.5,149.5703,269.5,153.5703,259.5,157.5703,263.5,153.5703" style="stroke:#181818;stroke-width:1.0;"/><line style="stroke:#181818;stroke-width:1.0;" x1="35.5" x2="265.5" y1="153.5703" y2="153.5703"/><text fill="#000000" font-family="sans-serif" font-size="13" lengthAdjust="spacing" textLength="163" x="42.5" y="148.7139">1 seleziona PT da licenziare</text><polygon fill="#181818" points="259.5,179.9219,269.5,183.9219,259.5,187.9219,263.5,183.9219" style="stroke:#181818;stroke-width:1.0;"/><line style="stroke:#181818;stroke-width:1.0;" x1="35.5" x2="265.5" y1="183.9219" y2="183.9219"/><text fill="#000000" font-family="sans-serif" font-size="13" lengthAdjust="spacing" textLength="200" x="42.5" y="179.0654">2 clicca "Licenzia senza sostituto"</text><polygon fill="#181818" points="524.5,210.2734,534.5,214.2734,524.5,218.2734,528.5,214.2734" style="stroke:#181818;stroke-width:1.0;"/><line style="stroke:#181818;stroke-width:1.0;" x1="271.5" x2="530.5" y1="214.2734" y2="214.2734"/><text fill="#000000" font-family="sans-serif" font-size="13" lengthAdjust="spacing" textLength="201" x="278.5" y="209.417">3 licenziaSenzaSostituto(idTrainer)</text><polygon fill="#181818" points="680,240.625,690,244.625,680,248.625,684,244.625" style="stroke:#181818;stroke-width:1.0;"/><line style="stroke:#181818;stroke-width:1.0;" x1="546.5" x2="686" y1="244.625" y2="244.625"/><text fill="#000000" font-family="sans-serif" font-size="13" lengthAdjust="spacing" textLength="125" x="553.5" y="239.7686">4 trovaPerId(idTrainer)</text><polygon fill="#181818" points="1084,270.9766,1094,274.9766,1084,278.9766,1088,274.9766" style="stroke:#181818;stroke-width:1.0;"/><line style="stroke:#181818;stroke-width:1.0;" x1="702" x2="1090" y1="274.9766" y2="274.9766"/><text fill="#000000" font-family="sans-serif" font-size="13" lengthAdjust="spacing" textLength="210" x="709" y="270.1201">5 SELECT PT WHERE idTrainer = ?</text><polygon fill="#181818" points="713,301.3281,703,305.3281,713,309.3281,709,305.3281" style="stroke:#181818;stroke-width:1.0;"/><line style="stroke:#181818;stroke-width:1.0;stroke-dasharray:2.0,2.0;" x1="707" x2="1100" y1="305.3281" y2="305.3281"/><text fill="#000000" font-family="sans-serif" font-size="13" lengthAdjust="spacing" textLength="52" x="719" y="300.4717">6 dati PT</text><polygon fill="#181818" points="557.5,331.6797,547.5,335.6797,557.5,339.6797,553.5,335.6797" style="stroke:#181818;stroke-width:1.0;"/><line style="stroke:#181818;stroke-width:1.0;stroke-dasharray:2.0,2.0;" x1="551.5" x2="696" y1="335.6797" y2="335.6797"/><text fill="#000000" font-family="sans-serif" font-size="13" lengthAdjust="spacing" textLength="99" x="563.5" y="330.8232">7 personalTrainer</text><polygon fill="#181818" points="859,362.0313,869,366.0313,859,370.0313,863,366.0313" style="stroke:#181818;stroke-width:1.0;"/><line style="stroke:#181818;stroke-width:1.0;" x1="546.5" x2="865" y1="366.0313" y2="366.0313"/><text fill="#000000" font-family="sans-serif" font-size="13" lengthAdjust="spacing" textLength="183" x="553.5" y="361.1748">8 haCorsiAttiviOFuturi(idTrainer)</text><polygon fill="#181818" points="1084,392.3828,1094,396.3828,1084,400.3828,1088,396.3828" style="stroke:#181818;stroke-width:1.0;"/><line style="stroke:#181818;stroke-width:1.0;" x1="881" x2="1090" y1="396.3828" y2="396.3828"/><text fill="#000000" font-family="sans-serif" font-size="13" lengthAdjust="spacing" textLength="196" x="888" y="391.5264">9 SELECT corsi attivi/futuri del PT</text><polygon fill="#181818" points="892,422.7344,882,426.7344,892,430.7344,888,426.7344" style="stroke:#181818;stroke-width:1.0;"/><line style="stroke:#181818;stroke-width:1.0;stroke-dasharray:2.0,2.0;" x1="886" x2="1100" y1="426.7344" y2="426.7344"/><text fill="#000000" font-family="sans-serif" font-size="13" lengthAdjust="spacing" textLength="84" x="898" y="421.8779">10 corsi trovati</text><polygon fill="#181818" points="557.5,453.0859,547.5,457.0859,557.5,461.0859,553.5,457.0859" style="stroke:#181818;stroke-width:1.0;"/><line style="stroke:#181818;stroke-width:1.0;stroke-dasharray:2.0,2.0;" x1="551.5" x2="875" y1="457.0859" y2="457.0859"/><text fill="#000000" font-family="sans-serif" font-size="13" lengthAdjust="spacing" textLength="40" x="563.5" y="452.2295">11 true</text><polygon fill="#181818" points="282.5,483.4375,272.5,487.4375,282.5,491.4375,278.5,487.4375" style="stroke:#181818;stroke-width:1.0;"/><line style="stroke:#181818;stroke-width:1.0;stroke-dasharray:2.0,2.0;" x1="276.5" x2="540.5" y1="487.4375" y2="487.4375"/><text fill="#000000" font-family="sans-serif" font-size="13" lengthAdjust="spacing" textLength="241" x="288.5" y="482.5811">12 throw TrainerNonLicenziabileException</text><polygon fill="#181818" points="46.5,513.7891,36.5,517.7891,46.5,521.7891,42.5,517.7891" style="stroke:#181818;stroke-width:1.0;"/><line style="stroke:#181818;stroke-width:1.0;stroke-dasharray:2.0,2.0;" x1="40.5" x2="270.5" y1="517.7891" y2="517.7891"/><text fill="#000000" font-family="sans-serif" font-size="13" lengthAdjust="spacing" textLength="212" x="52.5" y="512.9326">13 mostra errore: PT non licenziabile</text><!--SRC=[RPHVRzCm5CNV_IckyWGF5Ml7W4sZg7yoc5HO8GLUaD1jSgTPCdRbkEtMJy-ruwPEbPUgiU_lN9_ZcpZf5C7FsHKCOA8SMOrExWZkbDd3P7G3onLeeq79alH1ubeg4W9BPonaSsd9yJ_A06jedyJQR7M5zWMoprGxQJGjoTP6ew9ValP_zEtjD9QCnu7row8qsbcZ6efrMiW3isPJaOt8QK6GTj9njmeD7pXIAujIavrF7Zn-hzdR8vOKwUMADquT2x8xUP2csEDcPcmjlxuKtnSU33ijvlVZYgZGuHfhWgmkhTmu3eMJ-rkjcpIcGhI9m60SBC8D3A4cHTnAey-smZPQ3guF64795IL2jeY5hA0F_6iuMxTr9XCYr39p2eN9orQwy41nh7ybgnZEQn4EZOxIE4MYmfeXAfPx2xouGyxtlkgLQ38LJJs3yobJLr3aYtosycP_Vyb_vD2Yy14-dMWEZ851ql0Tf-CaFugAqh9ZXtE_xs7JlVkKYuVhMakka_aFy8JXyYUE8VbmjtLRAtkjfdCWKfMZxUkZxT8B0WR5Duz14IfItbMFzUw1XXSH3y4xUPv3f_5v6iCXOrjAcSwfqoIIyHo1UxByxaVFtunU9Az-_bpInh_HgMmwEiqW-XJQKMRHI_Z7msSHo5fUwl-g_0S0]--></g></svg>