<?xml version="1.0" encoding="us-ascii" standalone="no"?><svg xmlns="http://www.w3.org/2000/svg" xmlns:xlink="http://www.w3.org/1999/xlink" contentStyleType="text/css" height="539px" preserveAspectRatio="none" style="width:1015px;height:539px;background:#FFFFFF;" version="1.1" viewBox="0 0 1015 539" width="1015px" zoomAndPan="magnify"><defs/><g><text fill="#000000" font-family="sans-serif" font-size="14" font-weight="bold" lengthAdjust="spacing" textLength="286" x="366" y="29.5332">UC5 - Alternative Flow A1: PT gi&#224; assunto</text><rect fill="#FFFFFF" height="195.1094" style="stroke:#181818;stroke-width:1.0;" width="10" x="484.5" y="214.2734"/><rect fill="#FFFFFF" height="91.0547" style="stroke:#181818;stroke-width:1.0;" width="10" x="719.5" y="244.625"/><rect fill="#FFFFFF" height="30.3516" style="stroke:#181818;stroke-width:1.0;" width="10" x="958.5" y="274.9766"/><line style="stroke:#181818;stroke-width:0.5;stroke-dasharray:5.0,5.0;" x1="35" x2="35" y1="121.2188" y2="457.7344"/><line style="stroke:#181818;stroke-width:0.5;stroke-dasharray:5.0,5.0;" x1="249.5" x2="249.5" y1="121.2188" y2="457.7344"/><line style="stroke:#181818;stroke-width:0.5;stroke-dasharray:5.0,5.0;" x1="489" x2="489" y1="121.2188" y2="457.7344"/><line style="stroke:#181818;stroke-width:0.5;stroke-dasharray:5.0,5.0;" x1="724.5" x2="724.5" y1="121.2188" y2="457.7344"/><line style="stroke:#181818;stroke-width:0.5;stroke-dasharray:5.0,5.0;" x1="963" x2="963" y1="121.2188" y2="457.7344"/><text fill="#000000" font-family="sans-serif" font-size="14" lengthAdjust="spacing" textLength="55" x="5" y="118.1426">Direttore</text><ellipse cx="35.5" cy="52.1094" fill="#E2E2F0" rx="8" ry="8" style="stroke:#181818;stroke-width:0.5;"/><path d="M35.5,60.1094 L35.5,87.1094 M22.5,68.1094 L48.5,68.1094 M35.5,87.1094 L22.5,102.1094 M35.5,87.1094 L48.5,102.1094 " fill="none" style="stroke:#181818;stroke-width:0.5;"/><text fill="#000000" font-family="sans-serif" font-size="14" lengthAdjust="spacing" textLength="55" x="5" y="471.2676">Direttore</text><ellipse cx="35.5" cy="482.8438" fill="#E2E2F0" rx="8" ry="8" style="stroke:#181818;stroke-width:0.5;"/><path d="M35.5,490.8438 L35.5,517.8438 M22.5,498.8438 L48.5,498.8438 M35.5,517.8438 L22.5,532.8438 M35.5,517.8438 L48.5,532.8438 " fill="none" style="stroke:#181818;stroke-width:0.5;"/><text fill="#000000" font-family="sans-serif" font-size="14" lengthAdjust="spacing" textLength="150" x="171.5" y="100.5332">GestionePersonaleView</text><text fill="#000000" font-family="sans-serif" font-size="14" lengthAdjust="spacing" textLength="77" x="208" y="118.1426">&#171;Boundary&#187;</text><path d="M229,58 L229,82 M229,70 L246,70 " fill="none" style="stroke:#181818;stroke-width:0.5;"/><ellipse cx="258" cy="70" fill="#E2E2F0" rx="12" ry="12" style="stroke:#181818;stroke-width:0.5;"/><text fill="#000000" font-family="sans-serif" font-size="14" lengthAdjust="spacing" textLength="150" x="171.5" y="471.2676">GestionePersonaleView</text><text fill="#000000" font-family="sans-serif" font-size="14" lengthAdjust="spacing" textLength="77" x="208" y="488.877">&#171;Boundary&#187;</text><path d="M229,495.9531 L229,519.9531 M229,507.9531 L246,507.9531 " fill="none" style="stroke:#181818;stroke-width:0.5;"/><ellipse cx="258" cy="507.9531" fill="#E2E2F0" rx="12" ry="12" style="stroke:#181818;stroke-width:0.5;"/><text fill="#000000" font-family="sans-serif" font-size="14" lengthAdjust="spacing" textLength="115" x="429" y="100.5332">GestorePersonale</text><text fill="#000000" font-family="sans-serif" font-size="14" lengthAdjust="spacing" textLength="78" x="447.5" y="118.1426">&#171;Controller&#187;</text><ellipse cx="489.5" cy="70" fill="#E2E2F0" rx="12" ry="12" style="stroke:#181818;stroke-width:0.5;"/><polygon fill="#181818" points="485.5,58,491.5,53,489.5,58,491.5,63,485.5,58" style="stroke:#181818;stroke-width:1.0;"/><text fill="#000000" font-family="sans-serif" font-size="14" lengthAdjust="spacing" textLength="115" x="429" y="471.2676">GestorePersonale</text><text fill="#000000" font-family="sans-serif" font-size="14" lengthAdjust="spacing" textLength="78" x="447.5" y="488.877">&#171;Controller&#187;</text><ellipse cx="489.5" cy="507.9531" fill="#E2E2F0" rx="12" ry="12" style="stroke:#181818;stroke-width:0.5;"/><polygon fill="#181818" points="485.5,495.9531,491.5,490.9531,489.5,495.9531,491.5,500.9531,485.5,495.9531" style="stroke:#181818;stroke-width:1.0;"/><text fill="#000000" font-family="sans-serif" font-size="14" lengthAdjust="spacing" textLength="164" x="639.5" y="100.5332">dao: PersonalTrainerDAO</text><text fill="#000000" font-family="sans-serif" font-size="14" lengthAdjust="spacing" textLength="71" x="686" y="118.1426">&#171;Interface&#187;</text><ellipse cx="724.5" cy="70" fill="#E2E2F0" rx="12" ry="12" style="stroke:#181818;stroke-width:0.5;"/><line style="stroke:#181818;stroke-width:0.5;" x1="712.5" x2="736.5" y1="84" y2="84"/><text fill="#000000" font-family="sans-serif" font-size="14" lengthAdjust="spacing" textLength="164" x="639.5" y="471.2676">dao: PersonalTrainerDAO</text><text fill="#000000" font-family="sans-serif" font-size="14" lengthAdjust="spacing" textLength="71" x="686" y="488.877">&#171;Interface&#187;</text><ellipse cx="724.5" cy="507.9531" fill="#E2E2F0" rx="12" ry="12" style="stroke:#181818;stroke-width:0.5;"/><line style="stroke:#181818;stroke-width:0.5;" x1="712.5" x2="736.5" y1="521.9531" y2="521.9531"/><text fill="#000000" font-family="sans-serif" font-size="14" lengthAdjust="spacing" textLength="95" x="913" y="118.1426">scriptactive_db</text><path d="M945.5,67.6094 C945.5,57.6094 963.5,57.6094 963.5,57.6094 C963.5,57.6094 981.5,57.6094 981.5,67.6094 L981.5,93.6094 C981.5,103.6094 963.5,103.6094 963.5,103.6094 C963.5,103.6094 945.5,103.6094 945.5,93.6094 L945.5,67.6094 " fill="#E2E2F0" style="stroke:#181818;stroke-width:1.5;"/><path d="M945.5,67.6094 C945.5,77.6094 963.5,77.6094 963.5,77.6094 C963.5,77.6094 981.5,77.6094 981.5,67.6094 " fill="none" style="stroke:#181818;stroke-width:1.5;"/><text fill="#000000" font-family="sans-serif" font-size="14" lengthAdjust="spacing" textLength="95" x="913" y="471.2676">scriptactive_db</text><path d="M945.5,484.3438 C945.5,474.3438 963.5,474.3438 963.5,474.3438 C963.5,474.3438 981.5,474.3438 981.5,484.3438 L981.5,510.3438 C981.5,520.3438 963.5,520.3438 963.5,520.3438 C963.5,520.3438 945.5,520.3438 945.5,510.3438 L945.5,484.3438 " fill="#E2E2F0" style="stroke:#181818;stroke-width:1.5;"/><path d="M945.5,484.3438 C945.5,494.3438 963.5,494.3438 963.5,494.3438 C963.5,494.3438 981.5,494.3438 981.5,484.3438 " fill="none" style="stroke:#181818;stroke-width:1.5;"/><rect fill="#FFFFFF" height="195.1094" style="stroke:#181818;stroke-width:1.0;" width="10" x="484.5" y="214.2734"/><rect fill="#FFFFFF" height="91.0547" style="stroke:#181818;stroke-width:1.0;" width="10" x="719.5" y="244.625"/><rect fill="#FFFFFF" height="30.3516" style="stroke:#181818;stroke-width:1.0;" width="10" x="958.5" y="274.9766"/><polygon fill="#181818" points="237.5,149.5703,247.5,153.5703,237.5,157.5703,241.5,153.5703" style="stroke:#181818;stroke-width:1.0;"/><line style="stroke:#181818;stroke-width:1.0;" x1="35.5" x2="243.5" y1="153.5703" y2="153.5703"/><text fill="#000000" font-family="sans-serif" font-size="13" lengthAdjust="spacing" textLength="108" x="42.5" y="148.7139">1 inserisce dati PT</text><polygon fill="#181818" points="237.5,179.9219,247.5,183.9219,237.5,187.9219,241.5,183.9219" style="stroke:#181818;stroke-width:1.0;"/><line style="stroke:#181818;stroke-width:1.0;" x1="35.5" x2="243.5" y1="183.9219" y2="183.9219"/><text fill="#000000" font-family="sans-serif" font-size="13" lengthAdjust="spacing" textLength="103" x="42.5" y="179.0654">2 clicca "Assumi"</text><polygon fill="#181818" points="472.5,210.2734,482.5,214.2734,472.5,218.2734,476.5,214.2734" style="stroke:#181818;stroke-width:1.0;"/><line style="stroke:#181818;stroke-width:1.0;" x1="249.5" x2="478.5" y1="214.2734" y2="214.2734"/><text fill="#000000" font-family="sans-serif" font-size="13" lengthAdjust="spacing" textLength="165" x="256.5" y="209.417">3 assumiPT(personalTrainer)</text><polygon fill="#181818" points="707.5,240.625,717.5,244.625,707.5,248.625,711.5,244.625" style="stroke:#181818;stroke-width:1.0;"/><line style="stroke:#181818;stroke-width:1.0;" x1="494.5" x2="713.5" y1="244.625" y2="244.625"/><text fill="#000000" font-family="sans-serif" font-size="13" lengthAdjust="spacing" textLength="125" x="501.5" y="239.7686">4 trovaPerId(idTrainer)</text><polygon fill="#181818" points="946.5,270.9766,956.5,274.9766,946.5,278.9766,950.5,274.9766" style="stroke:#181818;stroke-width:1.0;"/><line style="stroke:#181818;stroke-width:1.0;" x1="729.5" x2="952.5" y1="274.9766" y2="274.9766"/><text fill="#000000" font-family="sans-serif" font-size="13" lengthAdjust="spacing" textLength="210" x="736.5" y="270.1201">5 SELECT PT WHERE idTrainer = ?</text><polygon fill="#181818" points="740.5,301.3281,730.5,305.3281,740.5,309.3281,736.5,305.3281" style="stroke:#181818;stroke-width:1.0;"/><line style="stroke:#181818;stroke-width:1.0;stroke-dasharray:2.0,2.0;" x1="734.5" x2="962.5" y1="305.3281" y2="305.3281"/><text fill="#000000" font-family="sans-serif" font-size="13" lengthAdjust="spacing" textLength="102" x="746.5" y="300.4717">6 PT gi&#224; presente</text><polygon fill="#181818" points="505.5,331.6797,495.5,335.6797,505.5,339.6797,501.5,335.6797" style="stroke:#181818;stroke-width:1.0;"/><line style="stroke:#181818;stroke-width:1.0;stroke-dasharray:2.0,2.0;" x1="499.5" x2="723.5" y1="335.6797" y2="335.6797"/><text fill="#000000" font-family="sans-serif" font-size="13" lengthAdjust="spacing" textLength="156" x="511.5" y="330.8232">7 personalTrainer esistente</text><line style="stroke:#181818;stroke-width:1.0;" x1="494.5" x2="536.5" y1="366.0313" y2="366.0313"/><line style="stroke:#181818;stroke-width:1.0;" x1="536.5" x2="536.5" y1="366.0313" y2="379.0313"/><line style="stroke:#181818;stroke-width:1.0;" x1="495.5" x2="536.5" y1="379.0313" y2="379.0313"/><polygon fill="#181818" points="505.5,375.0313,495.5,379.0313,505.5,383.0313,501.5,379.0313" style="stroke:#181818;stroke-width:1.0;"/><text fill="#000000" font-family="sans-serif" font-size="13" lengthAdjust="spacing" textLength="211" x="501.5" y="361.1748">8 verifica che il PT risulti gi&#224; assunto</text><polygon fill="#181818" points="260.5,405.3828,250.5,409.3828,260.5,413.3828,256.5,409.3828" style="stroke:#181818;stroke-width:1.0;"/><line style="stroke:#181818;stroke-width:1.0;stroke-dasharray:2.0,2.0;" x1="254.5" x2="488.5" y1="409.3828" y2="409.3828"/><text fill="#000000" font-family="sans-serif" font-size="13" lengthAdjust="spacing" textLength="211" x="266.5" y="404.5264">9 throw TrainerGiaAssuntoException</text><polygon fill="#181818" points="46.5,435.7344,36.5,439.7344,46.5,443.7344,42.5,439.7344" style="stroke:#181818;stroke-width:1.0;"/><line style="stroke:#181818;stroke-width:1.0;stroke-dasharray:2.0,2.0;" x1="40.5" x2="248.5" y1="439.7344" y2="439.7344"/><text fill="#000000" font-family="sans-serif" font-size="13" lengthAdjust="spacing" textLength="190" x="52.5" y="434.8779">10 mostra errore: PT gi&#224; assunto</text><!--SRC=[RLF9JYj13BptLrXpWaCazaqGD4c6HK8YWW4kIAZJOy1IfplgTWBypVkNzsDu5YQJm2rZkwghN0uJMuI7uJxq8BMCmMcc1SA5zH-GRf_0E8St-lyFT8npnrufRTW7I4OKaEKN9jA2zajD_DmLEdn1SecHoJiSOuZUQOkFX1_FxlHqq8pq-nMsB2lZ7GTlQvJmjA0ICAoR5aC3MHOKEYQMrmhjHMo3oeCcXs6KtfRmQoU-NhN11ZtEfQ4ApNgY8q8IJQ0PYoyn_b9CQaC3fLfJqEjNAk44je5Sn43H80W32TcVSpjWB1cZ8KbbSLDAbAewCh4KBtExrMAdDCutPglYDrMbI3DsxQeEMhWgAqAp1r9SQF5_NMnGyPkYzgpgUG6E1eBQX_li9XlcPSXFLzbT1YqKpk1yYPPj2A3NUV2WFOnPm2WXe2gmE__prBhXGrZp2HWfyZf3etVLxGhH4ImaXrUI7Pjt1BAb8WbcRYMLrPFjiYmZEWP-3tBbZOvBqcaDo3uDpihJxGhgPb0dMMwnJLukOmkcFdBGW258wVTVvni0]--></g></svg>