<?xml version="1.0" encoding="us-ascii" standalone="no"?><svg xmlns="http://www.w3.org/2000/svg" xmlns:xlink="http://www.w3.org/1999/xlink" contentStyleType="text/css" height="951px" preserveAspectRatio="none" style="width:1957px;height:951px;background:#FFFFFF;" version="1.1" viewBox="0 0 1957 951" width="1957px" zoomAndPan="magnify"><defs/><g><text fill="#000000" font-family="sans-serif" font-size="14" font-weight="bold" lengthAdjust="spacing" textLength="207" x="868" y="24.5332">Diagramma ERA - ScriptActive</text><!--class Utente--><g id="elem_Utente"><rect codeLine="15" fill="#F1F1F1" height="184.4844" id="Utente" rx="2.5" ry="2.5" style="stroke:#181818;stroke-width:0.5;" width="247" x="7" y="276.6094"/><text fill="#000000" font-family="sans-serif" font-size="14" lengthAdjust="spacing" textLength="41" x="110" y="296.1426">Utente</text><line style="stroke:#181818;stroke-width:0.5;" x1="8" x2="253" y1="304.2188" y2="304.2188"/><ellipse cx="18" cy="318.5234" fill="#000000" rx="3" ry="3" style="stroke:#000000;stroke-width:1.0;"/><text fill="#000000" font-family="sans-serif" font-size="14" lengthAdjust="spacing" textLength="133" x="27" y="322.752">ID_Utente : INT &#171;PK&#187;</text><line style="stroke:#181818;stroke-width:1.0;" x1="8" x2="253" y1="329.8281" y2="329.8281"/><text fill="#000000" font-family="sans-serif" font-size="14" lengthAdjust="spacing" textLength="235" x="13" y="348.3613">CodiceFiscale : CHAR(16) &#171;UNIQUE&#187;</text><text fill="#000000" font-family="sans-serif" font-size="14" lengthAdjust="spacing" textLength="140" x="13" y="365.9707">Nome : VARCHAR(50)</text><text fill="#000000" font-family="sans-serif" font-size="14" lengthAdjust="spacing" textLength="165" x="13" y="383.5801">Cognome : VARCHAR(50)</text><text fill="#000000" font-family="sans-serif" font-size="14" lengthAdjust="spacing" textLength="216" x="13" y="401.1895">Email : VARCHAR(100) &#171;UNIQUE&#187;</text><text fill="#000000" font-family="sans-serif" font-size="14" lengthAdjust="spacing" textLength="205" x="13" y="418.7988">PasswordHash : VARCHAR(255)</text><text fill="#000000" font-family="sans-serif" font-size="14" lengthAdjust="spacing" textLength="87" x="13" y="436.4082">Ruolo : ENUM</text><text fill="#000000" font-family="sans-serif" font-size="14" lengthAdjust="spacing" textLength="83" x="13" y="454.0176">Stato : ENUM</text></g><!--class Direttore--><g id="elem_Direttore"><rect codeLine="27" fill="#F1F1F1" height="78.8281" id="Direttore" rx="2.5" ry="2.5" style="stroke:#181818;stroke-width:0.5;" width="320" x="349" y="329.1094"/><text fill="#000000" font-family="sans-serif" font-size="14" lengthAdjust="spacing" textLength="55" x="481.5" y="348.6426">Direttore</text><line style="stroke:#181818;stroke-width:0.5;" x1="350" x2="668" y1="356.7188" y2="356.7188"/><ellipse cx="360" cy="371.0234" fill="#000000" rx="3" ry="3" style="stroke:#000000;stroke-width:1.0;"/><text fill="#000000" font-family="sans-serif" font-size="14" lengthAdjust="spacing" textLength="173" x="369" y="375.252">ID_Direttore : INT &#171;PK, FK&#187;</text><line style="stroke:#181818;stroke-width:1.0;" x1="350" x2="668" y1="382.3281" y2="382.3281"/><text fill="#000000" font-family="sans-serif" font-size="14" lengthAdjust="spacing" textLength="308" x="355" y="400.8613">CodiceAutorizzazione : VARCHAR(50) &#171;UNIQUE&#187;</text></g><!--class PersonalTrainer--><g id="elem_PersonalTrainer"><rect codeLine="33" fill="#F1F1F1" height="202.0938" id="PersonalTrainer" rx="2.5" ry="2.5" style="stroke:#181818;stroke-width:0.5;" width="261" x="765" y="45.6094"/><text fill="#000000" font-family="sans-serif" font-size="14" lengthAdjust="spacing" textLength="102" x="844.5" y="65.1426">PersonalTrainer</text><line style="stroke:#181818;stroke-width:0.5;" x1="766" x2="1025" y1="73.2188" y2="73.2188"/><ellipse cx="776" cy="87.5234" fill="#000000" rx="3" ry="3" style="stroke:#000000;stroke-width:1.0;"/><text fill="#000000" font-family="sans-serif" font-size="14" lengthAdjust="spacing" textLength="164" x="785" y="91.752">ID_Trainer : INT &#171;PK, FK&#187;</text><line style="stroke:#181818;stroke-width:1.0;" x1="766" x2="1025" y1="98.8281" y2="98.8281"/><text fill="#000000" font-family="sans-serif" font-size="14" lengthAdjust="spacing" textLength="214" x="771" y="117.3613">Specializzazione : VARCHAR(100)</text><text fill="#000000" font-family="sans-serif" font-size="14" lengthAdjust="spacing" textLength="191" x="771" y="134.9707">TipoContratto : VARCHAR(50)</text><text fill="#000000" font-family="sans-serif" font-size="14" lengthAdjust="spacing" textLength="196" x="771" y="152.5801">StatoContratto : VARCHAR(50)</text><text fill="#000000" font-family="sans-serif" font-size="14" lengthAdjust="spacing" textLength="113" x="771" y="170.1895">Attivo : BOOLEAN</text><text fill="#000000" font-family="sans-serif" font-size="14" lengthAdjust="spacing" textLength="211" x="771" y="187.7988">TipoRetribuzione : VARCHAR(50)</text><text fill="#000000" font-family="sans-serif" font-size="14" lengthAdjust="spacing" textLength="217" x="771" y="205.4082">StipendioMensile : DECIMAL(10,2)</text><text fill="#000000" font-family="sans-serif" font-size="14" lengthAdjust="spacing" textLength="249" x="771" y="223.0176">CompensoPerLezione : DECIMAL(10,2)</text><text fill="#000000" font-family="sans-serif" font-size="14" lengthAdjust="spacing" textLength="147" x="771" y="240.627">ID_Direttore : INT &#171;FK&#187;</text></g><!--class Cliente--><g id="elem_Cliente"><rect codeLine="46" fill="#F1F1F1" height="78.8281" id="Cliente" rx="2.5" ry="2.5" style="stroke:#181818;stroke-width:0.5;" width="188" x="1126.5" y="711.1094"/><text fill="#000000" font-family="sans-serif" font-size="14" lengthAdjust="spacing" textLength="44" x="1198.5" y="730.6426">Cliente</text><line style="stroke:#181818;stroke-width:0.5;" x1="1127.5" x2="1313.5" y1="738.7188" y2="738.7188"/><ellipse cx="1137.5" cy="753.0234" fill="#000000" rx="3" ry="3" style="stroke:#000000;stroke-width:1.0;"/><text fill="#000000" font-family="sans-serif" font-size="14" lengthAdjust="spacing" textLength="162" x="1146.5" y="757.252">ID_Cliente : INT &#171;PK, FK&#187;</text><line style="stroke:#181818;stroke-width:1.0;" x1="1127.5" x2="1313.5" y1="764.3281" y2="764.3281"/><text fill="#000000" font-family="sans-serif" font-size="14" lengthAdjust="spacing" textLength="125" x="1132.5" y="782.8613">ID_Sede : INT &#171;FK&#187;</text></g><!--class Sede--><g id="elem_Sede"><rect codeLine="52" fill="#F1F1F1" height="78.8281" id="Sede" rx="2.5" ry="2.5" style="stroke:#181818;stroke-width:0.5;" width="263" x="764" y="520.1094"/><text fill="#000000" font-family="sans-serif" font-size="14" lengthAdjust="spacing" textLength="33" x="879" y="539.6426">Sede</text><line style="stroke:#181818;stroke-width:0.5;" x1="765" x2="1026" y1="547.7188" y2="547.7188"/><ellipse cx="775" cy="562.0234" fill="#000000" rx="3" ry="3" style="stroke:#000000;stroke-width:1.0;"/><text fill="#000000" font-family="sans-serif" font-size="14" lengthAdjust="spacing" textLength="125" x="784" y="566.252">ID_Sede : INT &#171;PK&#187;</text><line style="stroke:#181818;stroke-width:1.0;" x1="765" x2="1026" y1="573.3281" y2="573.3281"/><text fill="#000000" font-family="sans-serif" font-size="14" lengthAdjust="spacing" textLength="251" x="770" y="591.8613">NomeSede : VARCHAR(100) &#171;UNIQUE&#187;</text></g><!--class SpesaFissa--><g id="elem_SpesaFissa"><rect codeLine="58" fill="#F1F1F1" height="131.6563" id="SpesaFissa" rx="2.5" ry="2.5" style="stroke:#181818;stroke-width:0.5;" width="197" x="1122" y="488.6094"/><text fill="#000000" font-family="sans-serif" font-size="14" lengthAdjust="spacing" textLength="74" x="1183.5" y="508.1426">SpesaFissa</text><line style="stroke:#181818;stroke-width:0.5;" x1="1123" x2="1318" y1="516.2188" y2="516.2188"/><ellipse cx="1133" cy="530.5234" fill="#000000" rx="3" ry="3" style="stroke:#000000;stroke-width:1.0;"/><text fill="#000000" font-family="sans-serif" font-size="14" lengthAdjust="spacing" textLength="132" x="1142" y="534.752">ID_Spesa : INT &#171;PK&#187;</text><line style="stroke:#181818;stroke-width:1.0;" x1="1123" x2="1318" y1="541.8281" y2="541.8281"/><text fill="#000000" font-family="sans-serif" font-size="14" lengthAdjust="spacing" textLength="185" x="1128" y="560.3613">Descrizione : VARCHAR(255)</text><text fill="#000000" font-family="sans-serif" font-size="14" lengthAdjust="spacing" textLength="157" x="1128" y="577.9707">Importo : DECIMAL(10,2)</text><text fill="#000000" font-family="sans-serif" font-size="14" lengthAdjust="spacing" textLength="79" x="1128" y="595.5801">Data : DATE</text><text fill="#000000" font-family="sans-serif" font-size="14" lengthAdjust="spacing" textLength="125" x="1128" y="613.1895">ID_Sede : INT &#171;FK&#187;</text></g><!--class Corso--><g id="elem_Corso"><rect codeLine="67" fill="#F1F1F1" height="202.0938" id="Corso" rx="2.5" ry="2.5" style="stroke:#181818;stroke-width:0.5;" width="160" x="1140.5" y="196.6094"/><text fill="#000000" font-family="sans-serif" font-size="14" lengthAdjust="spacing" textLength="38" x="1201.5" y="216.1426">Corso</text><line style="stroke:#181818;stroke-width:0.5;" x1="1141.5" x2="1299.5" y1="224.2188" y2="224.2188"/><ellipse cx="1151.5" cy="238.5234" fill="#000000" rx="3" ry="3" style="stroke:#000000;stroke-width:1.0;"/><text fill="#000000" font-family="sans-serif" font-size="14" lengthAdjust="spacing" textLength="130" x="1160.5" y="242.752">ID_Corso : INT &#171;PK&#187;</text><line style="stroke:#181818;stroke-width:1.0;" x1="1141.5" x2="1299.5" y1="249.8281" y2="249.8281"/><text fill="#000000" font-family="sans-serif" font-size="14" lengthAdjust="spacing" textLength="148" x="1146.5" y="268.3613">Nome : VARCHAR(100)</text><text fill="#000000" font-family="sans-serif" font-size="14" lengthAdjust="spacing" textLength="135" x="1146.5" y="285.9707">DataOra : DATETIME</text><text fill="#000000" font-family="sans-serif" font-size="14" lengthAdjust="spacing" textLength="147" x="1146.5" y="303.5801">CapienzaMassima : INT</text><text fill="#000000" font-family="sans-serif" font-size="14" lengthAdjust="spacing" textLength="128" x="1146.5" y="321.1895">PostiDisponibili : INT</text><text fill="#000000" font-family="sans-serif" font-size="14" lengthAdjust="spacing" textLength="83" x="1146.5" y="338.7988">Stato : ENUM</text><text fill="#000000" font-family="sans-serif" font-size="14" lengthAdjust="spacing" textLength="125" x="1146.5" y="356.4082">ID_Sede : INT &#171;FK&#187;</text><text fill="#000000" font-family="sans-serif" font-size="14" lengthAdjust="spacing" textLength="138" x="1146.5" y="374.0176">ID_Trainer : INT &#171;FK&#187;</text><text fill="#000000" font-family="sans-serif" font-size="14" lengthAdjust="spacing" textLength="147" x="1146.5" y="391.627">ID_Direttore : INT &#171;FK&#187;</text></g><!--class Abbonamento--><g id="elem_Abbonamento"><rect codeLine="80" fill="#F1F1F1" height="166.875" id="Abbonamento" rx="2.5" ry="2.5" style="stroke:#181818;stroke-width:0.5;" width="212" x="1414" y="778.1094"/><text fill="#000000" font-family="sans-serif" font-size="14" lengthAdjust="spacing" textLength="88" x="1476" y="797.6426">Abbonamento</text><line style="stroke:#181818;stroke-width:0.5;" x1="1415" x2="1625" y1="805.7188" y2="805.7188"/><ellipse cx="1425" cy="820.0234" fill="#000000" rx="3" ry="3" style="stroke:#000000;stroke-width:1.0;"/><text fill="#000000" font-family="sans-serif" font-size="14" lengthAdjust="spacing" textLength="180" x="1434" y="824.252">ID_Abbonamento : INT &#171;PK&#187;</text><line style="stroke:#181818;stroke-width:1.0;" x1="1415" x2="1625" y1="831.3281" y2="831.3281"/><text fill="#000000" font-family="sans-serif" font-size="14" lengthAdjust="spacing" textLength="132" x="1420" y="849.8613">Tipo : VARCHAR(50)</text><text fill="#000000" font-family="sans-serif" font-size="14" lengthAdjust="spacing" textLength="144" x="1420" y="867.4707">Livello : VARCHAR(50)</text><text fill="#000000" font-family="sans-serif" font-size="14" lengthAdjust="spacing" textLength="141" x="1420" y="885.0801">DataScadenza : DATE</text><text fill="#000000" font-family="sans-serif" font-size="14" lengthAdjust="spacing" textLength="200" x="1420" y="902.6895">RinnovoAutomatico : BOOLEAN</text><text fill="#000000" font-family="sans-serif" font-size="14" lengthAdjust="spacing" textLength="134" x="1420" y="920.2988">IBAN : VARCHAR(34)</text><text fill="#000000" font-family="sans-serif" font-size="14" lengthAdjust="spacing" textLength="194" x="1420" y="937.9082">ID_Cliente : INT &#171;FK, UNIQUE&#187;</text></g><!--class Pagamento--><g id="elem_Pagamento"><rect codeLine="91" fill="#F1F1F1" height="131.6563" id="Pagamento" rx="2.5" ry="2.5" style="stroke:#181818;stroke-width:0.5;" width="201" x="1735" y="804.6094"/><text fill="#000000" font-family="sans-serif" font-size="14" lengthAdjust="spacing" textLength="72" x="1799.5" y="824.1426">Pagamento</text><line style="stroke:#181818;stroke-width:0.5;" x1="1736" x2="1935" y1="832.2188" y2="832.2188"/><ellipse cx="1746" cy="846.5234" fill="#000000" rx="3" ry="3" style="stroke:#000000;stroke-width:1.0;"/><text fill="#000000" font-family="sans-serif" font-size="14" lengthAdjust="spacing" textLength="164" x="1755" y="850.752">ID_Pagamento : INT &#171;PK&#187;</text><line style="stroke:#181818;stroke-width:1.0;" x1="1736" x2="1935" y1="857.8281" y2="857.8281"/><text fill="#000000" font-family="sans-serif" font-size="14" lengthAdjust="spacing" textLength="157" x="1741" y="876.3613">Importo : DECIMAL(10,2)</text><text fill="#000000" font-family="sans-serif" font-size="14" lengthAdjust="spacing" textLength="189" x="1741" y="893.9707">DataTransazione : DATETIME</text><text fill="#000000" font-family="sans-serif" font-size="14" lengthAdjust="spacing" textLength="81" x="1741" y="911.5801">Esito : ENUM</text><text fill="#000000" font-family="sans-serif" font-size="14" lengthAdjust="spacing" textLength="180" x="1741" y="929.1895">ID_Abbonamento : INT &#171;FK&#187;</text></g><!--class Prenotazione--><g id="elem_Prenotazione"><rect codeLine="100" fill="#F1F1F1" height="131.6563" id="Prenotazione" rx="2.5" ry="2.5" style="stroke:#181818;stroke-width:0.5;" width="201" x="1419.5" y="298.6094"/><text fill="#000000" font-family="sans-serif" font-size="14" lengthAdjust="spacing" textLength="83" x="1478.5" y="318.1426">Prenotazione</text><line style="stroke:#181818;stroke-width:0.5;" x1="1420.5" x2="1619.5" y1="326.2188" y2="326.2188"/><ellipse cx="1430.5" cy="340.5234" fill="#000000" rx="3" ry="3" style="stroke:#000000;stroke-width:1.0;"/><text fill="#000000" font-family="sans-serif" font-size="14" lengthAdjust="spacing" textLength="175" x="1439.5" y="344.752">ID_Prenotazione : INT &#171;PK&#187;</text><line style="stroke:#181818;stroke-width:1.0;" x1="1420.5" x2="1619.5" y1="351.8281" y2="351.8281"/><text fill="#000000" font-family="sans-serif" font-size="14" lengthAdjust="spacing" textLength="175" x="1425.5" y="370.3613">DataCreazione : DATETIME</text><text fill="#000000" font-family="sans-serif" font-size="14" lengthAdjust="spacing" textLength="83" x="1425.5" y="387.9707">Stato : ENUM</text><text fill="#000000" font-family="sans-serif" font-size="14" lengthAdjust="spacing" textLength="136" x="1425.5" y="405.5801">ID_Cliente : INT &#171;FK&#187;</text><text fill="#000000" font-family="sans-serif" font-size="14" lengthAdjust="spacing" textLength="130" x="1425.5" y="423.1895">ID_Corso : INT &#171;FK&#187;</text></g><!--class SessioneAllenamento--><g id="elem_SessioneAllenamento"><rect codeLine="109" fill="#F1F1F1" height="96.4375" id="SessioneAllenamento" rx="2.5" ry="2.5" style="stroke:#181818;stroke-width:0.5;" width="176" x="1432" y="587.6094"/><text fill="#000000" font-family="sans-serif" font-size="14" lengthAdjust="spacing" textLength="136" x="1452" y="607.1426">SessioneAllenamento</text><line style="stroke:#181818;stroke-width:0.5;" x1="1433" x2="1607" y1="615.2188" y2="615.2188"/><ellipse cx="1443" cy="629.5234" fill="#000000" rx="3" ry="3" style="stroke:#000000;stroke-width:1.0;"/><text fill="#000000" font-family="sans-serif" font-size="14" lengthAdjust="spacing" textLength="150" x="1452" y="633.752">ID_Sessione : INT &#171;PK&#187;</text><line style="stroke:#181818;stroke-width:1.0;" x1="1433" x2="1607" y1="640.8281" y2="640.8281"/><text fill="#000000" font-family="sans-serif" font-size="14" lengthAdjust="spacing" textLength="79" x="1438" y="659.3613">Data : DATE</text><text fill="#000000" font-family="sans-serif" font-size="14" lengthAdjust="spacing" textLength="136" x="1438" y="676.9707">ID_Cliente : INT &#171;FK&#187;</text></g><!--class EsercizioRegistrato--><g id="elem_EsercizioRegistrato"><rect codeLine="116" fill="#F1F1F1" height="166.875" id="EsercizioRegistrato" rx="2.5" ry="2.5" style="stroke:#181818;stroke-width:0.5;" width="229" x="1721" y="547.1094"/><text fill="#000000" font-family="sans-serif" font-size="14" lengthAdjust="spacing" textLength="121" x="1775" y="566.6426">EsercizioRegistrato</text><line style="stroke:#181818;stroke-width:0.5;" x1="1722" x2="1949" y1="574.7188" y2="574.7188"/><ellipse cx="1732" cy="589.0234" fill="#000000" rx="3" ry="3" style="stroke:#000000;stroke-width:1.0;"/><text fill="#000000" font-family="sans-serif" font-size="14" lengthAdjust="spacing" textLength="148" x="1741" y="593.252">ID_Esercizio : INT &#171;PK&#187;</text><line style="stroke:#181818;stroke-width:1.0;" x1="1722" x2="1949" y1="600.3281" y2="600.3281"/><text fill="#000000" font-family="sans-serif" font-size="14" lengthAdjust="spacing" textLength="217" x="1727" y="618.8613">GruppoMuscolare : VARCHAR(50)</text><text fill="#000000" font-family="sans-serif" font-size="14" lengthAdjust="spacing" textLength="188" x="1727" y="636.4707">Macchinario : VARCHAR(100)</text><text fill="#000000" font-family="sans-serif" font-size="14" lengthAdjust="spacing" textLength="66" x="1727" y="654.0801">Serie : INT</text><text fill="#000000" font-family="sans-serif" font-size="14" lengthAdjust="spacing" textLength="97" x="1727" y="671.6895">Ripetizioni : INT</text><text fill="#000000" font-family="sans-serif" font-size="14" lengthAdjust="spacing" textLength="143" x="1727" y="689.2988">Carico : DECIMAL(5,2)</text><text fill="#000000" font-family="sans-serif" font-size="14" lengthAdjust="spacing" textLength="150" x="1727" y="706.9082">ID_Sessione : INT &#171;FK&#187;</text></g><!--link Utente to Direttore--><g id="link_Utente_Direttore"><path codeLine="127" d="M262.17,368.6094 C292.37,368.6094 309.1,368.6094 340.73,368.6094 " fill="none" id="Utente-Direttore" style="stroke:#181818;stroke-width:1.0;"/><line style="stroke:#181818;stroke-width:1.0;" x1="258.17" x2="258.17" y1="372.6094" y2="364.6094"/><line style="stroke:#181818;stroke-width:1.0;" x1="261.17" x2="261.17" y1="372.6094" y2="364.6094"/><line style="stroke:#181818;stroke-width:1.0;" x1="262.17" x2="254.17" y1="368.6094" y2="368.6094"/><line style="stroke:#181818;stroke-width:1.0;" x1="344.73" x2="344.73" y1="364.6094" y2="372.6094"/><line style="stroke:#181818;stroke-width:1.0;" x1="341.73" x2="341.73" y1="364.6094" y2="372.6094"/><line style="stroke:#181818;stroke-width:1.0;" x1="340.73" x2="348.73" y1="368.6094" y2="368.6094"/><text fill="#000000" font-family="sans-serif" font-size="13" lengthAdjust="spacing" textLength="66" x="234.45" y="383.1045">generalizza</text></g><!--link Utente to PersonalTrainer--><g id="link_Utente_PersonalTrainer"><path codeLine="128" d="M262.12,302.8594 C463.22,302.8594 831,302.8594 831,302.8594 C831,302.8594 831,285.8094 831,255.7694 " fill="none" id="Utente-PersonalTrainer" style="stroke:#181818;stroke-width:1.0;"/><line style="stroke:#181818;stroke-width:1.0;" x1="258.12" x2="258.12" y1="306.8594" y2="298.8594"/><line style="stroke:#181818;stroke-width:1.0;" x1="261.12" x2="261.12" y1="306.8594" y2="298.8594"/><line style="stroke:#181818;stroke-width:1.0;" x1="262.12" x2="254.12" y1="302.8594" y2="302.8594"/><line style="stroke:#181818;stroke-width:1.0;" x1="827" x2="835" y1="251.7694" y2="251.7694"/><line style="stroke:#181818;stroke-width:1.0;" x1="827" x2="835" y1="254.7694" y2="254.7694"/><line style="stroke:#181818;stroke-width:1.0;" x1="831" x2="831" y1="255.7694" y2="247.7694"/><text fill="#000000" font-family="sans-serif" font-size="13" lengthAdjust="spacing" textLength="66" x="503.11" y="317.3545">generalizza</text></g><!--link Utente to Cliente--><g id="link_Utente_Cliente"><path codeLine="129" d="M131,468.7594 C131,585.5294 131,763.7794 131,763.7794 C131,763.7794 853.52,763.7794 1118.19,763.7794 " fill="none" id="Utente-Cliente" style="stroke:#181818;stroke-width:1.0;"/><line style="stroke:#181818;stroke-width:1.0;" x1="127" x2="135" y1="464.7594" y2="464.7594"/><line style="stroke:#181818;stroke-width:1.0;" x1="127" x2="135" y1="467.7594" y2="467.7594"/><line style="stroke:#181818;stroke-width:1.0;" x1="131" x2="131" y1="468.7594" y2="460.7594"/><line style="stroke:#181818;stroke-width:1.0;" x1="1122.19" x2="1122.19" y1="759.7794" y2="767.7794"/><line style="stroke:#181818;stroke-width:1.0;" x1="1119.19" x2="1119.19" y1="759.7794" y2="767.7794"/><line style="stroke:#181818;stroke-width:1.0;" x1="1118.19" x2="1126.19" y1="763.7794" y2="763.7794"/><text fill="#000000" font-family="sans-serif" font-size="13" lengthAdjust="spacing" textLength="66" x="410.09" y="778.2745">generalizza</text></g><!--link Direttore to PersonalTrainer--><g id="link_Direttore_PersonalTrainer"><path codeLine="131" d="M677.2,346.4894 C783.67,346.4894 896,346.4894 896,346.4894 C896,346.4894 896,315.2894 896,265.7194 " fill="none" id="Direttore-PersonalTrainer" style="stroke:#181818;stroke-width:1.0;"/><line style="stroke:#181818;stroke-width:1.0;" x1="673.2" x2="673.2" y1="350.4894" y2="342.4894"/><line style="stroke:#181818;stroke-width:1.0;" x1="676.2" x2="676.2" y1="350.4894" y2="342.4894"/><line style="stroke:#181818;stroke-width:1.0;" x1="677.2" x2="669.2" y1="346.4894" y2="346.4894"/><line style="stroke:#181818;stroke-width:1.0;" x1="896" x2="890" y1="255.7194" y2="247.7194"/><line style="stroke:#181818;stroke-width:1.0;" x1="896" x2="902" y1="255.7194" y2="247.7194"/><line style="stroke:#181818;stroke-width:1.0;" x1="896" x2="896" y1="255.7194" y2="247.7194"/><ellipse cx="896" cy="261.7194" fill="none" rx="4" ry="4" style="stroke:#181818;stroke-width:1.0;"/><text fill="#000000" font-family="sans-serif" font-size="13" lengthAdjust="spacing" textLength="49" x="781.98" y="360.9845">gestisce</text></g><!--link Direttore to Corso--><g id="link_Direttore_Corso"><path codeLine="132" d="M677.12,363.8594 C823.62,363.8594 1008.35,363.8594 1122.2,363.8594 " fill="none" id="Direttore-Corso" style="stroke:#181818;stroke-width:1.0;"/><line style="stroke:#181818;stroke-width:1.0;" x1="673.12" x2="673.12" y1="367.8594" y2="359.8594"/><line style="stroke:#181818;stroke-width:1.0;" x1="676.12" x2="676.12" y1="367.8594" y2="359.8594"/><line style="stroke:#181818;stroke-width:1.0;" x1="677.12" x2="669.12" y1="363.8594" y2="363.8594"/><line style="stroke:#181818;stroke-width:1.0;" x1="1132.2" x2="1140.2" y1="363.8594" y2="357.8594"/><line style="stroke:#181818;stroke-width:1.0;" x1="1132.2" x2="1140.2" y1="363.8594" y2="369.8594"/><line style="stroke:#181818;stroke-width:1.0;" x1="1132.2" x2="1140.2" y1="363.8594" y2="363.8594"/><ellipse cx="1126.2" cy="363.8594" fill="none" rx="4" ry="4" style="stroke:#181818;stroke-width:1.0;"/><text fill="#000000" font-family="sans-serif" font-size="13" lengthAdjust="spacing" textLength="47" x="856.66" y="378.3545">pianifica</text></g><!--link Sede to Cliente--><g id="link_Sede_Cliente"><path codeLine="134" d="M896,607.5194 C896,659.9494 896,737.4394 896,737.4394 C896,737.4394 1012.4,737.4394 1108.21,737.4394 " fill="none" id="Sede-Cliente" style="stroke:#181818;stroke-width:1.0;"/><line style="stroke:#181818;stroke-width:1.0;" x1="892" x2="900" y1="603.5194" y2="603.5194"/><line style="stroke:#181818;stroke-width:1.0;" x1="892" x2="900" y1="606.5194" y2="606.5194"/><line style="stroke:#181818;stroke-width:1.0;" x1="896" x2="896" y1="607.5194" y2="599.5194"/><line style="stroke:#181818;stroke-width:1.0;" x1="1118.21" x2="1126.21" y1="737.4394" y2="731.4394"/><line style="stroke:#181818;stroke-width:1.0;" x1="1118.21" x2="1126.21" y1="737.4394" y2="743.4394"/><line style="stroke:#181818;stroke-width:1.0;" x1="1118.21" x2="1126.21" y1="737.4394" y2="737.4394"/><ellipse cx="1112.21" cy="737.4394" fill="none" rx="4" ry="4" style="stroke:#181818;stroke-width:1.0;"/><text fill="#000000" font-family="sans-serif" font-size="13" lengthAdjust="spacing" textLength="49" x="892.14" y="751.9345">assegna</text></g><!--link Sede to Corso--><g id="link_Sede_Corso"><path codeLine="135" d="M961,512.0194 C961,459.4694 961,381.2294 961,381.2294 C961,381.2294 1045.96,381.2294 1122.17,381.2294 " fill="none" id="Sede-Corso" style="stroke:#181818;stroke-width:1.0;"/><line style="stroke:#181818;stroke-width:1.0;" x1="965" x2="957" y1="516.0194" y2="516.0194"/><line style="stroke:#181818;stroke-width:1.0;" x1="965" x2="957" y1="513.0194" y2="513.0194"/><line style="stroke:#181818;stroke-width:1.0;" x1="961" x2="961" y1="512.0194" y2="520.0194"/><line style="stroke:#181818;stroke-width:1.0;" x1="1132.17" x2="1140.17" y1="381.2294" y2="375.2294"/><line style="stroke:#181818;stroke-width:1.0;" x1="1132.17" x2="1140.17" y1="381.2294" y2="387.2294"/><line style="stroke:#181818;stroke-width:1.0;" x1="1132.17" x2="1140.17" y1="381.2294" y2="381.2294"/><ellipse cx="1126.17" cy="381.2294" fill="none" rx="4" ry="4" style="stroke:#181818;stroke-width:1.0;"/><text fill="#000000" font-family="sans-serif" font-size="13" lengthAdjust="spacing" textLength="35" x="945.19" y="395.7245">ospita</text></g><!--link Sede to SpesaFissa--><g id="link_Sede_SpesaFissa"><path codeLine="136" d="M1035.22,559.6094 C1066.72,559.6094 1073.81,559.6094 1103.54,559.6094 " fill="none" id="Sede-SpesaFissa" style="stroke:#181818;stroke-width:1.0;"/><line style="stroke:#181818;stroke-width:1.0;" x1="1031.22" x2="1031.22" y1="563.6094" y2="555.6094"/><line style="stroke:#181818;stroke-width:1.0;" x1="1034.22" x2="1034.22" y1="563.6094" y2="555.6094"/><line style="stroke:#181818;stroke-width:1.0;" x1="1035.22" x2="1027.22" y1="559.6094" y2="559.6094"/><line style="stroke:#181818;stroke-width:1.0;" x1="1113.54" x2="1121.54" y1="559.6094" y2="553.6094"/><line style="stroke:#181818;stroke-width:1.0;" x1="1113.54" x2="1121.54" y1="559.6094" y2="565.6094"/><line style="stroke:#181818;stroke-width:1.0;" x1="1113.54" x2="1121.54" y1="559.6094" y2="559.6094"/><ellipse cx="1107.54" cy="559.6094" fill="none" rx="4" ry="4" style="stroke:#181818;stroke-width:1.0;"/><text fill="#000000" font-family="sans-serif" font-size="13" lengthAdjust="spacing" textLength="43" x="1030.38" y="574.1045">registra</text></g><!--link PersonalTrainer to Corso--><g id="link_PersonalTrainer_Corso"><path codeLine="138" d="M1034.29,222.1094 C1072.91,222.1094 1088.03,222.1094 1122.44,222.1094 " fill="none" id="PersonalTrainer-Corso" style="stroke:#181818;stroke-width:1.0;"/><line style="stroke:#181818;stroke-width:1.0;" x1="1030.29" x2="1030.29" y1="226.1094" y2="218.1094"/><line style="stroke:#181818;stroke-width:1.0;" x1="1033.29" x2="1033.29" y1="226.1094" y2="218.1094"/><line style="stroke:#181818;stroke-width:1.0;" x1="1034.29" x2="1026.29" y1="222.1094" y2="222.1094"/><line style="stroke:#181818;stroke-width:1.0;" x1="1132.44" x2="1140.44" y1="222.1094" y2="216.1094"/><line style="stroke:#181818;stroke-width:1.0;" x1="1132.44" x2="1140.44" y1="222.1094" y2="228.1094"/><line style="stroke:#181818;stroke-width:1.0;" x1="1132.44" x2="1140.44" y1="222.1094" y2="222.1094"/><ellipse cx="1126.44" cy="222.1094" fill="none" rx="4" ry="4" style="stroke:#181818;stroke-width:1.0;"/><text fill="#000000" font-family="sans-serif" font-size="13" lengthAdjust="spacing" textLength="28" x="1054.36" y="236.6045">tiene</text></g><!--link Cliente to Abbonamento--><g id="link_Cliente_Abbonamento"><path codeLine="140" d="M1322.85,784.1094 C1354.32,784.1094 1366.58,784.1094 1398.87,784.1094 " fill="none" id="Cliente-Abbonamento" style="stroke:#181818;stroke-width:1.0;"/><line style="stroke:#181818;stroke-width:1.0;" x1="1318.85" x2="1318.85" y1="788.1094" y2="780.1094"/><line style="stroke:#181818;stroke-width:1.0;" x1="1321.85" x2="1321.85" y1="788.1094" y2="780.1094"/><line style="stroke:#181818;stroke-width:1.0;" x1="1322.85" x2="1314.85" y1="784.1094" y2="784.1094"/><line style="stroke:#181818;stroke-width:1.0;" x1="1402.87" x2="1413.87" y1="784.1094" y2="784.1094"/><ellipse cx="1402.87" cy="784.1094" fill="none" rx="4" ry="4" style="stroke:#181818;stroke-width:1.0;"/><line style="stroke:#181818;stroke-width:1.0;" x1="1409.87" x2="1409.87" y1="780.1094" y2="788.1094"/><text fill="#000000" font-family="sans-serif" font-size="13" lengthAdjust="spacing" textLength="62" x="1301.36" y="798.6045">sottoscrive</text></g><!--link Abbonamento to Pagamento--><g id="link_Abbonamento_Pagamento"><path codeLine="141" d="M1634.37,870.6094 C1669.44,870.6094 1682.3,870.6094 1716.92,870.6094 " fill="none" id="Abbonamento-Pagamento" style="stroke:#181818;stroke-width:1.0;"/><line style="stroke:#181818;stroke-width:1.0;" x1="1630.37" x2="1630.37" y1="874.6094" y2="866.6094"/><line style="stroke:#181818;stroke-width:1.0;" x1="1633.37" x2="1633.37" y1="874.6094" y2="866.6094"/><line style="stroke:#181818;stroke-width:1.0;" x1="1634.37" x2="1626.37" y1="870.6094" y2="870.6094"/><line style="stroke:#181818;stroke-width:1.0;" x1="1726.92" x2="1734.92" y1="870.6094" y2="864.6094"/><line style="stroke:#181818;stroke-width:1.0;" x1="1726.92" x2="1734.92" y1="870.6094" y2="876.6094"/><line style="stroke:#181818;stroke-width:1.0;" x1="1726.92" x2="1734.92" y1="870.6094" y2="870.6094"/><ellipse cx="1720.92" cy="870.6094" fill="none" rx="4" ry="4" style="stroke:#181818;stroke-width:1.0;"/><text fill="#000000" font-family="sans-serif" font-size="13" lengthAdjust="spacing" textLength="39" x="1640.65" y="885.1045">genera</text></g><!--link Cliente to Prenotazione--><g id="link_Cliente_Prenotazione"><path codeLine="143" d="M1322.53,735.4394 C1376.64,735.4394 1426,735.4394 1426,735.4394 C1426,735.4394 1426,555.5694 1426,448.9094 " fill="none" id="Cliente-Prenotazione" style="stroke:#181818;stroke-width:1.0;"/><line style="stroke:#181818;stroke-width:1.0;" x1="1318.53" x2="1318.53" y1="739.4394" y2="731.4394"/><line style="stroke:#181818;stroke-width:1.0;" x1="1321.53" x2="1321.53" y1="739.4394" y2="731.4394"/><line style="stroke:#181818;stroke-width:1.0;" x1="1322.53" x2="1314.53" y1="735.4394" y2="735.4394"/><line style="stroke:#181818;stroke-width:1.0;" x1="1426" x2="1420" y1="438.9094" y2="430.9094"/><line style="stroke:#181818;stroke-width:1.0;" x1="1426" x2="1432" y1="438.9094" y2="430.9094"/><line style="stroke:#181818;stroke-width:1.0;" x1="1426" x2="1426" y1="438.9094" y2="430.9094"/><ellipse cx="1426" cy="444.9094" fill="none" rx="4" ry="4" style="stroke:#181818;stroke-width:1.0;"/><text fill="#000000" font-family="sans-serif" font-size="13" lengthAdjust="spacing" textLength="42" x="1383" y="653.4045">effettua</text></g><!--link Corso to Prenotazione--><g id="link_Corso_Prenotazione"><path codeLine="144" d="M1308.76,348.6094 C1345.23,348.6094 1362.78,348.6094 1401.41,348.6094 " fill="none" id="Corso-Prenotazione" style="stroke:#181818;stroke-width:1.0;"/><line style="stroke:#181818;stroke-width:1.0;" x1="1304.76" x2="1304.76" y1="352.6094" y2="344.6094"/><line style="stroke:#181818;stroke-width:1.0;" x1="1307.76" x2="1307.76" y1="352.6094" y2="344.6094"/><line style="stroke:#181818;stroke-width:1.0;" x1="1308.76" x2="1300.76" y1="348.6094" y2="348.6094"/><line style="stroke:#181818;stroke-width:1.0;" x1="1411.41" x2="1419.41" y1="348.6094" y2="342.6094"/><line style="stroke:#181818;stroke-width:1.0;" x1="1411.41" x2="1419.41" y1="348.6094" y2="354.6094"/><line style="stroke:#181818;stroke-width:1.0;" x1="1411.41" x2="1419.41" y1="348.6094" y2="348.6094"/><ellipse cx="1405.41" cy="348.6094" fill="none" rx="4" ry="4" style="stroke:#181818;stroke-width:1.0;"/><text fill="#000000" font-family="sans-serif" font-size="13" lengthAdjust="spacing" textLength="33" x="1326.08" y="363.1045">riceve</text></g><!--link Cliente to SessioneAllenamento--><g id="link_Cliente_SessioneAllenamento"><path codeLine="146" d="M1322.85,756.7794 C1410.64,756.7794 1520,756.7794 1520,756.7794 C1520,756.7794 1520,735.6394 1520,701.8494 " fill="none" id="Cliente-SessioneAllenamento" style="stroke:#181818;stroke-width:1.0;"/><line style="stroke:#181818;stroke-width:1.0;" x1="1318.85" x2="1318.85" y1="760.7794" y2="752.7794"/><line style="stroke:#181818;stroke-width:1.0;" x1="1321.85" x2="1321.85" y1="760.7794" y2="752.7794"/><line style="stroke:#181818;stroke-width:1.0;" x1="1322.85" x2="1314.85" y1="756.7794" y2="756.7794"/><line style="stroke:#181818;stroke-width:1.0;" x1="1520" x2="1514" y1="691.8494" y2="683.8494"/><line style="stroke:#181818;stroke-width:1.0;" x1="1520" x2="1526" y1="691.8494" y2="683.8494"/><line style="stroke:#181818;stroke-width:1.0;" x1="1520" x2="1520" y1="691.8494" y2="683.8494"/><ellipse cx="1520" cy="697.8494" fill="none" rx="4" ry="4" style="stroke:#181818;stroke-width:1.0;"/><text fill="#000000" font-family="sans-serif" font-size="13" lengthAdjust="spacing" textLength="43" x="1409.89" y="771.2745">registra</text></g><!--link SessioneAllenamento to EsercizioRegistrato--><g id="link_SessioneAllenamento_EsercizioRegistrato"><path codeLine="147" d="M1616.3,635.6094 C1651.21,635.6094 1665.79,635.6094 1702.92,635.6094 " fill="none" id="SessioneAllenamento-EsercizioRegistrato" style="stroke:#181818;stroke-width:1.0;"/><line style="stroke:#181818;stroke-width:1.0;" x1="1612.3" x2="1612.3" y1="639.6094" y2="631.6094"/><line style="stroke:#181818;stroke-width:1.0;" x1="1615.3" x2="1615.3" y1="639.6094" y2="631.6094"/><line style="stroke:#181818;stroke-width:1.0;" x1="1616.3" x2="1608.3" y1="635.6094" y2="635.6094"/><line style="stroke:#181818;stroke-width:1.0;" x1="1712.92" x2="1720.92" y1="635.6094" y2="629.6094"/><line style="stroke:#181818;stroke-width:1.0;" x1="1712.92" x2="1720.92" y1="635.6094" y2="641.6094"/><line style="stroke:#181818;stroke-width:1.0;" x1="1712.92" x2="1720.92" y1="635.6094" y2="635.6094"/><ellipse cx="1706.92" cy="635.6094" fill="none" rx="4" ry="4" style="stroke:#181818;stroke-width:1.0;"/><text fill="#000000" font-family="sans-serif" font-size="13" lengthAdjust="spacing" textLength="49" x="1614.61" y="650.1045">contiene</text></g><!--SRC=[ZLRVRziu37xtNo7iwNPOW6wx7B1Y6E0wxXPSa_QIzEvnK6t68MfBXgHqM9lzxqVvfsmhkxq44KcH_4X-b0sQ7DW2UQPuKN0MRq8sOzj4OMd2nE0J144EUyECP0gpWs4fAY25546W7r6Kd2uoVU2f_8OYOtkUQt0qEGemtqjWKfc3T1H2fg2XP1yk7A7Yuh4IpXqX28FcEti96BlYoMEcv56aaSobOlyUq82LIvM2gcLNEHa5Fu83fi0IL4bE61eVh-uD_ODNZ6jM_wtS_iwMYw_D-P8jrplsyUFTNvy-aMesevz8ffZ0DUg4vzOY-X9kVdlxvsiokryl_xwFAzErBApodt1JwUSNhwkhcV39uu9ZxaZVNboCtDrnhRyHhYzS7np3T_EvlRyv4bWIn-lx5HstXflk-AF7kw1k6IDL3RaxzQXxKG_y3RkUW0-FP8JFp_oPMZ-2u-RjnBu3fQNW-Kvn6W9LPJ2IzNcqWdDPR4j8aEU-36pfo6A7fOoaC8gRgXJ3UbS5EgyE3Ssw5L_Ttjx4uRhnjm6ZyE7emLovn194Yd85GcCr68iuMgx26qhfpRkw-mMPQ4cmRw3rCZRoTg72xXGpoh6RtEP_NxnMSAvuPBA5zBnpgwmyLrQTsy4TbmzsqXlbkVbrlPUWEP57ypf6TtGYMPatr08qBQDn0neIB8kIrehqr7J1ZVMt27VnB-2F94rbNLhxpobiTJnNWkaCsh2tgesyMwviz8YNr9vdlY92Oz70j0INsk02TIa5Fc2EdM90vZFPCnzfUit_3rJuy414BEXO8tVEFNvNwAk2vSY45pVqQkJvL6wBiqruQclHzsQ3GiWdQVTBmGqcGn8khyAru-Zz7mrXnXD_JHFltK4ySp1sfnvXB_BX-_c0KVc5xjQHq_5OuwY1laAEEtAdG4XJ-wlJTGHEngxKInbABLBWIsmwMTD2jYCqdFtfog1X9lzXdeCxHXwvkr1gvTcq1vJrfkQa46jGYLqD6yXGsyLUf-2HzobqIcyEdzMnBENgg1EPSpLT-IkU90SKNA6SadyB2g4ZyOOU1rCjhfxO4LrCt6cQTo_0f3GjskQpv7IQpKudvl8w0-9-_IIEhCQlxCzi-ogxDa4VoDh95wzFsbywWQbjEpebSe5xJCXVjS5QTHUIDY9aWW-rpMMfIpH3bVDqN3BLT3S8ngcD71cAHf-0RTHAUs93Hcf90EnBGn-yhgO5xso9kamZVoziH4lOxwacHnxKMVYDQ1hW2IQkV1noyFhKpKtVw5-oX3vxwXhy1m00]--></g></svg>