<?xml version="1.0" encoding="us-ascii" standalone="no"?><svg xmlns="http://www.w3.org/2000/svg" xmlns:xlink="http://www.w3.org/1999/xlink" contentStyleType="text/css" height="1744px" preserveAspectRatio="none" style="width:1462px;height:1744px;background:#FFFFFF;" version="1.1" viewBox="0 0 1462 1744" width="1462px" zoomAndPan="magnify"><defs/><g><text fill="#000000" font-family="sans-serif" font-size="14" font-weight="bold" lengthAdjust="spacing" textLength="233" x="607.5" y="32.5332">Modello di Dominio - ScriptActive</text><!--class Utente--><g id="elem_Utente"><rect codeLine="13" fill="#F1F1F1" height="227.6563" id="Utente" rx="2.5" ry="2.5" style="stroke:#181818;stroke-width:0.5;" width="89" x="7" y="1360.6094"/><text fill="#000000" font-family="sans-serif" font-size="14" font-style="italic" lengthAdjust="spacing" textLength="42" x="30.5" y="1388.1426">Utente</text><line style="stroke:#181818;stroke-width:0.5;" x1="8" x2="95" y1="1404.2188" y2="1404.2188"/><text fill="#000000" font-family="sans-serif" font-size="14" lengthAdjust="spacing" textLength="11" x="21" y="1430.752">Id</text><text fill="#000000" font-family="sans-serif" font-size="14" lengthAdjust="spacing" textLength="36" x="21" y="1464.3613">Nome</text><text fill="#000000" font-family="sans-serif" font-size="14" lengthAdjust="spacing" textLength="61" x="21" y="1497.9707">Cognome</text><text fill="#000000" font-family="sans-serif" font-size="14" lengthAdjust="spacing" textLength="34" x="21" y="1531.5801">Email</text><text fill="#000000" font-family="sans-serif" font-size="14" lengthAdjust="spacing" textLength="33" x="21" y="1565.1895">Stato</text><line style="stroke:#181818;stroke-width:0.5;" x1="8" x2="95" y1="1580.2656" y2="1580.2656"/></g><!--class Cliente--><g id="elem_Cliente"><rect codeLine="21" fill="#F1F1F1" height="126.8281" id="Cliente" rx="2.5" ry="2.5" style="stroke:#181818;stroke-width:0.5;" width="148" x="452" y="712.1094"/><text fill="#000000" font-family="sans-serif" font-size="14" lengthAdjust="spacing" textLength="44" x="504" y="739.6426">Cliente</text><line style="stroke:#181818;stroke-width:0.5;" x1="453" x2="599" y1="755.7188" y2="755.7188"/><text fill="#000000" font-family="sans-serif" font-size="14" lengthAdjust="spacing" textLength="93" x="466" y="782.252">Codice Fiscale</text><text fill="#000000" font-family="sans-serif" font-size="14" lengthAdjust="spacing" textLength="120" x="466" y="815.8613">Tipo Abbonamento</text><line style="stroke:#181818;stroke-width:0.5;" x1="453" x2="599" y1="830.9375" y2="830.9375"/></g><!--class PersonalTrainer--><g id="elem_PersonalTrainer"><rect codeLine="26" fill="#F1F1F1" height="227.6563" id="PersonalTrainer" rx="2.5" ry="2.5" style="stroke:#181818;stroke-width:0.5;" width="130" x="711" y="1485.6094"/><text fill="#000000" font-family="sans-serif" font-size="14" lengthAdjust="spacing" textLength="106" x="723" y="1513.1426">Personal Trainer</text><line style="stroke:#181818;stroke-width:0.5;" x1="712" x2="840" y1="1529.2188" y2="1529.2188"/><text fill="#000000" font-family="sans-serif" font-size="14" lengthAdjust="spacing" textLength="61" x="725" y="1555.752">Id Trainer</text><text fill="#000000" font-family="sans-serif" font-size="14" lengthAdjust="spacing" textLength="102" x="725" y="1589.3613">Specializzazione</text><text fill="#000000" font-family="sans-serif" font-size="14" lengthAdjust="spacing" textLength="91" x="725" y="1622.9707">Tipo Contratto</text><text fill="#000000" font-family="sans-serif" font-size="14" lengthAdjust="spacing" textLength="96" x="725" y="1656.5801">Stato Contratto</text><text fill="#000000" font-family="sans-serif" font-size="14" lengthAdjust="spacing" textLength="35" x="725" y="1690.1895">Attivo</text><line style="stroke:#181818;stroke-width:0.5;" x1="712" x2="840" y1="1705.2656" y2="1705.2656"/></g><!--class Direttore--><g id="elem_Direttore"><rect codeLine="34" fill="#F1F1F1" height="93.2188" id="Direttore" rx="2.5" ry="2.5" style="stroke:#181818;stroke-width:0.5;" width="166" x="191" y="1428.1094"/><text fill="#000000" font-family="sans-serif" font-size="14" lengthAdjust="spacing" textLength="55" x="246.5" y="1455.6426">Direttore</text><line style="stroke:#181818;stroke-width:0.5;" x1="192" x2="356" y1="1471.7188" y2="1471.7188"/><text fill="#000000" font-family="sans-serif" font-size="14" lengthAdjust="spacing" textLength="138" x="205" y="1498.252">Codice Autorizzazione</text><line style="stroke:#181818;stroke-width:0.5;" x1="192" x2="356" y1="1513.3281" y2="1513.3281"/></g><!--class Abbonamento--><g id="elem_Abbonamento"><rect codeLine="38" fill="#F1F1F1" height="261.2656" id="Abbonamento" rx="2.5" ry="2.5" style="stroke:#181818;stroke-width:0.5;" width="154" x="991.5" y="483.1094"/><text fill="#000000" font-family="sans-serif" font-size="14" lengthAdjust="spacing" textLength="88" x="1024.5" y="510.6426">Abbonamento</text><line style="stroke:#181818;stroke-width:0.5;" x1="992.5" x2="1144.5" y1="526.7188" y2="526.7188"/><text fill="#000000" font-family="sans-serif" font-size="14" lengthAdjust="spacing" textLength="103" x="1005.5" y="553.252">Id Abbonamento</text><text fill="#000000" font-family="sans-serif" font-size="14" lengthAdjust="spacing" textLength="58" x="1005.5" y="586.8613">Tipologia</text><text fill="#000000" font-family="sans-serif" font-size="14" lengthAdjust="spacing" textLength="40" x="1005.5" y="620.4707">Livello</text><text fill="#000000" font-family="sans-serif" font-size="14" lengthAdjust="spacing" textLength="96" x="1005.5" y="654.0801">Data Scadenza</text><text fill="#000000" font-family="sans-serif" font-size="14" lengthAdjust="spacing" textLength="126" x="1005.5" y="687.6895">Rinnovo Automatico</text><text fill="#000000" font-family="sans-serif" font-size="14" lengthAdjust="spacing" textLength="30" x="1005.5" y="721.2988">IBAN</text><line style="stroke:#181818;stroke-width:0.5;" x1="992.5" x2="1144.5" y1="736.375" y2="736.375"/></g><!--class Pagamento--><g id="elem_Pagamento"><rect codeLine="47" fill="#F1F1F1" height="227.6563" id="Pagamento" rx="2.5" ry="2.5" style="stroke:#181818;stroke-width:0.5;" width="140" x="706" y="311.6094"/><text fill="#000000" font-family="sans-serif" font-size="14" lengthAdjust="spacing" textLength="72" x="740" y="339.1426">Pagamento</text><line style="stroke:#181818;stroke-width:0.5;" x1="707" x2="845" y1="355.2188" y2="355.2188"/><text fill="#000000" font-family="sans-serif" font-size="14" lengthAdjust="spacing" textLength="87" x="720" y="381.752">Id Pagamento</text><text fill="#000000" font-family="sans-serif" font-size="14" lengthAdjust="spacing" textLength="47" x="720" y="415.3613">Importo</text><text fill="#000000" font-family="sans-serif" font-size="14" lengthAdjust="spacing" textLength="112" x="720" y="448.9707">Data Transazione</text><text fill="#000000" font-family="sans-serif" font-size="14" lengthAdjust="spacing" textLength="31" x="720" y="482.5801">Esito</text><text fill="#000000" font-family="sans-serif" font-size="14" lengthAdjust="spacing" textLength="30" x="720" y="516.1895">IBAN</text><line style="stroke:#181818;stroke-width:0.5;" x1="707" x2="845" y1="531.2656" y2="531.2656"/></g><!--class Prenotazione--><g id="elem_Prenotazione"><rect codeLine="55" fill="#F1F1F1" height="126.8281" id="Prenotazione" rx="2.5" ry="2.5" style="stroke:#181818;stroke-width:0.5;" width="126" x="713" y="1029.1094"/><text fill="#000000" font-family="sans-serif" font-size="14" lengthAdjust="spacing" textLength="83" x="734.5" y="1056.6426">Prenotazione</text><line style="stroke:#181818;stroke-width:0.5;" x1="714" x2="838" y1="1072.7188" y2="1072.7188"/><text fill="#000000" font-family="sans-serif" font-size="14" lengthAdjust="spacing" textLength="98" x="727" y="1099.252">Id Prenotazione</text><text fill="#000000" font-family="sans-serif" font-size="14" lengthAdjust="spacing" textLength="33" x="727" y="1132.8613">Stato</text><line style="stroke:#181818;stroke-width:0.5;" x1="714" x2="838" y1="1147.9375" y2="1147.9375"/></g><!--class Corso--><g id="elem_Corso"><rect codeLine="60" fill="#F1F1F1" height="294.875" id="Corso" rx="2.5" ry="2.5" style="stroke:#181818;stroke-width:0.5;" width="146" x="995.5" y="962.1094"/><text fill="#000000" font-family="sans-serif" font-size="14" lengthAdjust="spacing" textLength="38" x="1049.5" y="989.6426">Corso</text><line style="stroke:#181818;stroke-width:0.5;" x1="996.5" x2="1140.5" y1="1005.7188" y2="1005.7188"/><text fill="#000000" font-family="sans-serif" font-size="14" lengthAdjust="spacing" textLength="11" x="1009.5" y="1032.252">Id</text><text fill="#000000" font-family="sans-serif" font-size="14" lengthAdjust="spacing" textLength="36" x="1009.5" y="1065.8613">Nome</text><text fill="#000000" font-family="sans-serif" font-size="14" lengthAdjust="spacing" textLength="58" x="1009.5" y="1099.4707">Data Ora</text><text fill="#000000" font-family="sans-serif" font-size="14" lengthAdjust="spacing" textLength="58" x="1009.5" y="1133.0801">Tipologia</text><text fill="#000000" font-family="sans-serif" font-size="14" lengthAdjust="spacing" textLength="99" x="1009.5" y="1166.6895">Posti Disponibili</text><text fill="#000000" font-family="sans-serif" font-size="14" lengthAdjust="spacing" textLength="118" x="1009.5" y="1200.2988">Capienza Massima</text><text fill="#000000" font-family="sans-serif" font-size="14" lengthAdjust="spacing" textLength="33" x="1009.5" y="1233.9082">Stato</text><line style="stroke:#181818;stroke-width:0.5;" x1="996.5" x2="1140.5" y1="1248.9844" y2="1248.9844"/></g><!--class Sede--><g id="elem_Sede"><rect codeLine="70" fill="#F1F1F1" height="126.8281" id="Sede" rx="2.5" ry="2.5" style="stroke:#181818;stroke-width:0.5;" width="64" x="744" y="812.1094"/><text fill="#000000" font-family="sans-serif" font-size="14" lengthAdjust="spacing" textLength="33" x="759.5" y="839.6426">Sede</text><line style="stroke:#181818;stroke-width:0.5;" x1="745" x2="807" y1="855.7188" y2="855.7188"/><text fill="#000000" font-family="sans-serif" font-size="14" lengthAdjust="spacing" textLength="11" x="758" y="882.252">Id</text><text fill="#000000" font-family="sans-serif" font-size="14" lengthAdjust="spacing" textLength="36" x="758" y="915.8613">Nome</text><line style="stroke:#181818;stroke-width:0.5;" x1="745" x2="807" y1="930.9375" y2="930.9375"/></g><!--class SessioneAllenamento--><g id="elem_SessioneAllenamento"><rect codeLine="75" fill="#F1F1F1" height="160.4375" id="SessioneAllenamento" rx="2.5" ry="2.5" style="stroke:#181818;stroke-width:0.5;" width="162" x="695" y="61.6094"/><text fill="#000000" font-family="sans-serif" font-size="14" lengthAdjust="spacing" textLength="140" x="706" y="89.1426">Sessione Allenamento</text><line style="stroke:#181818;stroke-width:0.5;" x1="696" x2="856" y1="105.2188" y2="105.2188"/><text fill="#000000" font-family="sans-serif" font-size="14" lengthAdjust="spacing" textLength="73" x="709" y="131.752">Id Sessione</text><text fill="#000000" font-family="sans-serif" font-size="14" lengthAdjust="spacing" textLength="30" x="709" y="165.3613">Data</text><text fill="#000000" font-family="sans-serif" font-size="14" lengthAdjust="spacing" textLength="59" x="709" y="198.9707">Id Cliente</text><line style="stroke:#181818;stroke-width:0.5;" x1="696" x2="856" y1="214.0469" y2="214.0469"/></g><!--class DatiFormPojo--><g id="elem_DatiFormPojo"><rect codeLine="81" fill="#F1F1F1" height="160.4375" id="DatiFormPojo" rx="2.5" ry="2.5" style="stroke:#181818;stroke-width:0.5;" width="124" x="1006.5" y="61.6094"/><text fill="#000000" font-family="sans-serif" font-size="14" lengthAdjust="spacing" textLength="62" x="1037.5" y="89.1426">Dati Form</text><line style="stroke:#181818;stroke-width:0.5;" x1="1007.5" x2="1129.5" y1="105.2188" y2="105.2188"/><text fill="#000000" font-family="sans-serif" font-size="14" lengthAdjust="spacing" textLength="96" x="1020.5" y="131.752">Nome Esercizio</text><text fill="#000000" font-family="sans-serif" font-size="14" lengthAdjust="spacing" textLength="44" x="1020.5" y="165.3613">Carichi</text><text fill="#000000" font-family="sans-serif" font-size="14" lengthAdjust="spacing" textLength="64" x="1020.5" y="198.9707">Ripetizioni</text><line style="stroke:#181818;stroke-width:0.5;" x1="1007.5" x2="1129.5" y1="214.0469" y2="214.0469"/></g><!--class RetribuzioneTotale--><g id="elem_RetribuzioneTotale"><rect codeLine="87" fill="#F1F1F1" height="93.2188" id="RetribuzioneTotale" rx="2.5" ry="2.5" style="stroke:#181818;stroke-width:0.5;" width="145" x="453.5" y="1611.1094"/><text fill="#000000" font-family="sans-serif" font-size="14" lengthAdjust="spacing" textLength="123" x="464.5" y="1638.6426">Retribuzione Totale</text><line style="stroke:#181818;stroke-width:0.5;" x1="454.5" x2="597.5" y1="1654.7188" y2="1654.7188"/><text fill="#000000" font-family="sans-serif" font-size="14" lengthAdjust="spacing" textLength="92" x="467.5" y="1681.252">Totale Mensile</text><line style="stroke:#181818;stroke-width:0.5;" x1="454.5" x2="597.5" y1="1696.3281" y2="1696.3281"/></g><!--class TipoAbbonamento--><g id="elem_TipoAbbonamento"><rect codeLine="91" fill="#F1F1F1" height="126.8281" id="TipoAbbonamento" rx="2.5" ry="2.5" style="stroke:#181818;stroke-width:0.5;" width="138" x="1298.5" y="721.1094"/><text fill="#000000" font-family="sans-serif" font-size="14" lengthAdjust="spacing" textLength="116" x="1309.5" y="748.6426">TipoAbbonamento</text><line style="stroke:#181818;stroke-width:0.5;" x1="1299.5" x2="1435.5" y1="764.7188" y2="764.7188"/><text fill="#000000" font-family="sans-serif" font-size="14" lengthAdjust="spacing" textLength="36" x="1312.5" y="791.252">BASE</text><text fill="#000000" font-family="sans-serif" font-size="14" lengthAdjust="spacing" textLength="62" x="1312.5" y="824.8613">PREMIUM</text><line style="stroke:#181818;stroke-width:0.5;" x1="1299.5" x2="1435.5" y1="839.9375" y2="839.9375"/></g><!--class LivelloAbbonamento--><g id="elem_LivelloAbbonamento"><rect codeLine="96" fill="#F1F1F1" height="160.4375" id="LivelloAbbonamento" rx="2.5" ry="2.5" style="stroke:#181818;stroke-width:0.5;" width="150" x="1292.5" y="470.6094"/><text fill="#000000" font-family="sans-serif" font-size="14" lengthAdjust="spacing" textLength="128" x="1303.5" y="498.1426">LivelloAbbonamento</text><line style="stroke:#181818;stroke-width:0.5;" x1="1293.5" x2="1441.5" y1="514.2188" y2="514.2188"/><text fill="#000000" font-family="sans-serif" font-size="14" lengthAdjust="spacing" textLength="58" x="1306.5" y="540.752">MENSILE</text><text fill="#000000" font-family="sans-serif" font-size="14" lengthAdjust="spacing" textLength="92" x="1306.5" y="574.3613">SEMESTRALE</text><text fill="#000000" font-family="sans-serif" font-size="14" lengthAdjust="spacing" textLength="62" x="1306.5" y="607.9707">ANNUALE</text><line style="stroke:#181818;stroke-width:0.5;" x1="1293.5" x2="1441.5" y1="623.0469" y2="623.0469"/></g><!--class StatoCorso--><g id="elem_StatoCorso"><rect codeLine="102" fill="#F1F1F1" height="126.8281" id="StatoCorso" rx="2.5" ry="2.5" style="stroke:#181818;stroke-width:0.5;" width="106" x="1314.5" y="1046.1094"/><text fill="#000000" font-family="sans-serif" font-size="14" lengthAdjust="spacing" textLength="71" x="1332" y="1073.6426">StatoCorso</text><line style="stroke:#181818;stroke-width:0.5;" x1="1315.5" x2="1419.5" y1="1089.7188" y2="1089.7188"/><text fill="#000000" font-family="sans-serif" font-size="14" lengthAdjust="spacing" textLength="50" x="1328.5" y="1116.252">ATTIVO</text><text fill="#000000" font-family="sans-serif" font-size="14" lengthAdjust="spacing" textLength="78" x="1328.5" y="1149.8613">COMPLETO</text><line style="stroke:#181818;stroke-width:0.5;" x1="1315.5" x2="1419.5" y1="1164.9375" y2="1164.9375"/></g><!--class StrategiaRetribuzione--><g id="elem_StrategiaRetribuzione"><rect codeLine="107" fill="#F1F1F1" height="126.8281" id="StrategiaRetribuzione" rx="2.5" ry="2.5" style="stroke:#181818;stroke-width:0.5;" width="233" x="952" y="1536.1094"/><text fill="#000000" font-family="sans-serif" font-size="14" font-style="italic" lengthAdjust="spacing" textLength="137" x="1000" y="1563.6426">StrategiaRetribuzione</text><line style="stroke:#181818;stroke-width:0.5;" x1="953" x2="1184" y1="1579.7188" y2="1579.7188"/><line style="stroke:#181818;stroke-width:0.5;" x1="953" x2="1184" y1="1587.7188" y2="1587.7188"/><text fill="#000000" font-family="sans-serif" font-size="14" lengthAdjust="spacing" textLength="205" x="966" y="1614.252">calcolaStipendio(numeroLezioni)</text><text fill="#000000" font-family="sans-serif" font-size="14" lengthAdjust="spacing" textLength="117" x="966" y="1647.8613">getTipoContratto()</text></g><!--class RetribuzioneFissa--><g id="elem_RetribuzioneFissa"><rect codeLine="112" fill="#F1F1F1" height="93.2188" id="RetribuzioneFissa" rx="2.5" ry="2.5" style="stroke:#181818;stroke-width:0.5;" width="135" x="1300" y="1644.1094"/><text fill="#000000" font-family="sans-serif" font-size="14" lengthAdjust="spacing" textLength="113" x="1311" y="1671.6426">RetribuzioneFissa</text><line style="stroke:#181818;stroke-width:0.5;" x1="1301" x2="1434" y1="1687.7188" y2="1687.7188"/><text fill="#000000" font-family="sans-serif" font-size="14" lengthAdjust="spacing" textLength="95" x="1314" y="1714.252">Stipendio Base</text><line style="stroke:#181818;stroke-width:0.5;" x1="1301" x2="1434" y1="1729.3281" y2="1729.3281"/></g><!--class RetribuzioneProvvigione--><g id="elem_RetribuzioneProvvigione"><rect codeLine="116" fill="#F1F1F1" height="93.2188" id="RetribuzioneProvvigione" rx="2.5" ry="2.5" style="stroke:#181818;stroke-width:0.5;" width="175" x="1280" y="1461.1094"/><text fill="#000000" font-family="sans-serif" font-size="14" lengthAdjust="spacing" textLength="153" x="1291" y="1488.6426">RetribuzioneProvvigione</text><line style="stroke:#181818;stroke-width:0.5;" x1="1281" x2="1454" y1="1504.7188" y2="1504.7188"/><text fill="#000000" font-family="sans-serif" font-size="14" lengthAdjust="spacing" textLength="118" x="1294" y="1531.252">Quota Per Lezione</text><line style="stroke:#181818;stroke-width:0.5;" x1="1281" x2="1454" y1="1546.3281" y2="1546.3281"/></g><!--reverse link Utente to Cliente--><g id="link_Utente_Cliente"><path codeLine="120" d="M114.34,1394.3594 C228.29,1394.3594 502,1394.3594 502,1394.3594 C502,1394.3594 502,997.0994 502,839.2094 " fill="none" id="Utente-backto-Cliente" style="stroke:#181818;stroke-width:1.0;"/><polygon fill="none" points="96.34,1394.3594,114.34,1400.3594,114.34,1388.3594,96.34,1394.3594" style="stroke:#181818;stroke-width:1.0;"/></g><!--reverse link Utente to PersonalTrainer--><g id="link_Utente_PersonalTrainer"><path codeLine="121" d="M114,1554.8594 C237.3,1554.8594 565.78,1554.8594 710.84,1554.8594 " fill="none" id="Utente-backto-PersonalTrainer" style="stroke:#181818;stroke-width:1.0;"/><polygon fill="none" points="96,1554.8594,114,1560.8594,114,1548.8594,96,1554.8594" style="stroke:#181818;stroke-width:1.0;"/></g><!--reverse link Utente to Direttore--><g id="link_Utente_Direttore"><path codeLine="122" d="M114.26,1474.6094 C141.29,1474.6094 158.59,1474.6094 190.6,1474.6094 " fill="none" id="Utente-backto-Direttore" style="stroke:#181818;stroke-width:1.0;"/><polygon fill="none" points="96.26,1474.6094,114.26,1480.6094,114.26,1468.6094,96.26,1474.6094" style="stroke:#181818;stroke-width:1.0;"/></g><!--reverse link StrategiaRetribuzione to RetribuzioneFissa--><g id="link_StrategiaRetribuzione_RetribuzioneFissa"><path codeLine="124" d="M1203.39,1653.6094 C1242.2,1653.6094 1266.11,1653.6094 1299.92,1653.6094 " fill="none" id="StrategiaRetribuzione-backto-RetribuzioneFissa" style="stroke:#181818;stroke-width:1.0;stroke-dasharray:7.0,7.0;"/><polygon fill="none" points="1185.39,1653.6094,1203.39,1659.6094,1203.39,1647.6094,1185.39,1653.6094" style="stroke:#181818;stroke-width:1.0;"/></g><!--reverse link StrategiaRetribuzione to RetribuzioneProvvigione--><g id="link_StrategiaRetribuzione_RetribuzioneProvvigione"><path codeLine="125" d="M1203.39,1545.1094 C1234.83,1545.1094 1250.31,1545.1094 1279.86,1545.1094 " fill="none" id="StrategiaRetribuzione-backto-RetribuzioneProvvigione" style="stroke:#181818;stroke-width:1.0;stroke-dasharray:7.0,7.0;"/><polygon fill="none" points="1185.39,1545.1094,1203.39,1551.1094,1203.39,1539.1094,1185.39,1545.1094" style="stroke:#181818;stroke-width:1.0;"/></g><!--link Cliente to Abbonamento--><g id="link_Cliente_Abbonamento"><path codeLine="127" d="M600.01,736.1094 C702.51,736.1094 880.8,736.1094 985.07,736.1094 " fill="none" id="Cliente-to-Abbonamento" style="stroke:#181818;stroke-width:1.0;"/><polygon fill="#181818" points="991.07,736.1094,982.07,732.1094,986.07,736.1094,982.07,740.1094,991.07,736.1094" style="stroke:#181818;stroke-width:1.0;"/><text fill="#000000" font-family="sans-serif" font-size="13" lengthAdjust="spacing" textLength="62" x="724.54" y="758.6045">sottoscrive</text><text fill="#000000" font-family="sans-serif" font-size="13" lengthAdjust="spacing" textLength="7" x="615.893" y="755.4622">1</text><text fill="#000000" font-family="sans-serif" font-size="13" lengthAdjust="spacing" textLength="7" x="968.4276" y="769.5105">1</text></g><!--link Cliente to Prenotazione--><g id="link_Cliente_Prenotazione"><path codeLine="128" d="M600.21,830.1094 C659.95,830.1094 734,830.1094 734,830.1094 C734,830.1094 734,945.3794 734,1023.0694 " fill="none" id="Cliente-to-Prenotazione" style="stroke:#181818;stroke-width:1.0;"/><polygon fill="#181818" points="734,1029.0694,738,1020.0694,734,1024.0694,730,1020.0694,734,1029.0694" style="stroke:#181818;stroke-width:1.0;"/><text fill="#000000" font-family="sans-serif" font-size="13" lengthAdjust="spacing" textLength="42" x="683" y="885.1845">effettua</text><text fill="#000000" font-family="sans-serif" font-size="13" lengthAdjust="spacing" textLength="7" x="616.1114" y="858.1278">1</text><text fill="#000000" font-family="sans-serif" font-size="13" lengthAdjust="spacing" textLength="20" x="699.8125" y="1010.3889">0..*</text></g><!--link Cliente to SessioneAllenamento--><g id="link_Cliente_SessioneAllenamento"><path codeLine="129" d="M600.22,720.1094 C647.91,720.1094 701,720.1094 701,720.1094 C701,720.1094 701,386.5694 701,227.7394 " fill="none" id="Cliente-to-SessioneAllenamento" style="stroke:#181818;stroke-width:1.0;"/><polygon fill="#181818" points="701,221.7394,697,230.7394,701,226.7394,705,230.7394,701,221.7394" style="stroke:#181818;stroke-width:1.0;"/><text fill="#000000" font-family="sans-serif" font-size="13" lengthAdjust="spacing" textLength="43" x="649" y="509.8145">registra</text><text fill="#000000" font-family="sans-serif" font-size="13" lengthAdjust="spacing" textLength="7" x="599.724" y="693.1306">1</text><text fill="#000000" font-family="sans-serif" font-size="13" lengthAdjust="spacing" textLength="20" x="665.0078" y="251.492">0..*</text></g><!--link Cliente to Pagamento--><g id="link_Cliente_Pagamento"><path codeLine="130" d="M600.01,728.1094 C656.25,728.1094 724,728.1094 724,728.1094 C724,728.1094 724,631.6294 724,545.9694 " fill="none" id="Cliente-to-Pagamento" style="stroke:#181818;stroke-width:1.0;"/><polygon fill="#181818" points="724,539.9694,720,548.9694,724,544.9694,728,548.9694,724,539.9694" style="stroke:#181818;stroke-width:1.0;"/><text fill="#000000" font-family="sans-serif" font-size="13" lengthAdjust="spacing" textLength="42" x="673" y="718.5345">effettua</text><text fill="#000000" font-family="sans-serif" font-size="13" lengthAdjust="spacing" textLength="7" x="615.893" y="711.7747">1</text><text fill="#000000" font-family="sans-serif" font-size="13" lengthAdjust="spacing" textLength="20" x="692.1719" y="568.6126">0..*</text></g><!--link Cliente to Sede--><g id="link_Cliente_Sede"><path codeLine="131" d="M600.33,821.1094 C648.12,821.1094 701.79,821.1094 737.85,821.1094 " fill="none" id="Cliente-to-Sede" style="stroke:#181818;stroke-width:1.0;"/><polygon fill="#181818" points="743.85,821.1094,734.85,817.1094,738.85,821.1094,734.85,825.1094,743.85,821.1094" style="stroke:#181818;stroke-width:1.0;"/><text fill="#000000" font-family="sans-serif" font-size="13" lengthAdjust="spacing" textLength="87" x="681.09" y="809.6045">sede principale</text><text fill="#000000" font-family="sans-serif" font-size="13" lengthAdjust="spacing" textLength="7" x="615.9742" y="813.2551">1</text><text fill="#000000" font-family="sans-serif" font-size="13" lengthAdjust="spacing" textLength="22" x="706.0177" y="836.7493">0..1</text></g><!--link Abbonamento to TipoAbbonamento--><g id="link_Abbonamento_TipoAbbonamento"><path codeLine="133" d="M1145.89,732.6094 C1193.04,732.6094 1246.78,732.6094 1292.34,732.6094 " fill="none" id="Abbonamento-to-TipoAbbonamento" style="stroke:#181818;stroke-width:1.0;"/><polygon fill="#181818" points="1298.34,732.6094,1289.34,728.6094,1293.34,732.6094,1289.34,736.6094,1298.34,732.6094" style="stroke:#181818;stroke-width:1.0;"/><text fill="#000000" font-family="sans-serif" font-size="13" lengthAdjust="spacing" textLength="21" x="1192.12" y="755.1045">tipo</text><text fill="#000000" font-family="sans-serif" font-size="13" lengthAdjust="spacing" textLength="7" x="1161.529" y="765.7097">1</text><text fill="#000000" font-family="sans-serif" font-size="13" lengthAdjust="spacing" textLength="7" x="1275.4" y="750.5865">1</text></g><!--link Abbonamento to LivelloAbbonamento--><g id="link_Abbonamento_LivelloAbbonamento"><path codeLine="134" d="M1145.89,556.8594 C1190.96,556.8594 1241.54,556.8594 1286.24,556.8594 " fill="none" id="Abbonamento-to-LivelloAbbonamento" style="stroke:#181818;stroke-width:1.0;"/><polygon fill="#181818" points="1292.24,556.8594,1283.24,552.8594,1287.24,556.8594,1283.24,560.8594,1292.24,556.8594" style="stroke:#181818;stroke-width:1.0;"/><text fill="#000000" font-family="sans-serif" font-size="13" lengthAdjust="spacing" textLength="31" x="1179.07" y="579.3545">livello</text><text fill="#000000" font-family="sans-serif" font-size="13" lengthAdjust="spacing" textLength="7" x="1161.529" y="574.8562">1</text><text fill="#000000" font-family="sans-serif" font-size="13" lengthAdjust="spacing" textLength="7" x="1269.5129" y="580.3323">1</text></g><!--link Pagamento to Abbonamento--><g id="link_Pagamento_Abbonamento"><path codeLine="135" d="M846.06,511.3594 C889.83,511.3594 940.24,511.3594 985.3,511.3594 " fill="none" id="Pagamento-to-Abbonamento" style="stroke:#181818;stroke-width:1.0;"/><polygon fill="#181818" points="991.3,511.3594,982.3,507.3594,986.3,511.3594,982.3,515.3594,991.3,511.3594" style="stroke:#181818;stroke-width:1.0;"/><text fill="#000000" font-family="sans-serif" font-size="13" lengthAdjust="spacing" textLength="28" x="927.68" y="533.8545">paga</text><text fill="#000000" font-family="sans-serif" font-size="13" lengthAdjust="spacing" textLength="20" x="861.9028" y="541.9476">0..*</text><text fill="#000000" font-family="sans-serif" font-size="13" lengthAdjust="spacing" textLength="7" x="968.4002" y="525.1767">1</text></g><!--link Prenotazione to Corso--><g id="link_Prenotazione_Corso"><path codeLine="137" d="M839.11,1092.6094 C885.04,1092.6094 941.36,1092.6094 989.45,1092.6094 " fill="none" id="Prenotazione-to-Corso" style="stroke:#181818;stroke-width:1.0;"/><polygon fill="#181818" points="995.45,1092.6094,986.45,1088.6094,990.45,1092.6094,986.45,1096.6094,995.45,1092.6094" style="stroke:#181818;stroke-width:1.0;"/><text fill="#000000" font-family="sans-serif" font-size="13" lengthAdjust="spacing" textLength="37" x="926.28" y="1115.1045">riserva</text><text fill="#000000" font-family="sans-serif" font-size="13" lengthAdjust="spacing" textLength="20" x="855.0943" y="1115.7053">0..*</text><text fill="#000000" font-family="sans-serif" font-size="13" lengthAdjust="spacing" textLength="7" x="972.3913" y="1114.0319">1</text></g><!--link Corso to StatoCorso--><g id="link_Corso_StatoCorso"><path codeLine="138" d="M1141.64,1109.6094 C1195.07,1109.6094 1260.27,1109.6094 1308.33,1109.6094 " fill="none" id="Corso-to-StatoCorso" style="stroke:#181818;stroke-width:1.0;"/><polygon fill="#181818" points="1314.33,1109.6094,1305.33,1105.6094,1309.33,1109.6094,1305.33,1113.6094,1314.33,1109.6094" style="stroke:#181818;stroke-width:1.0;"/><text fill="#000000" font-family="sans-serif" font-size="13" lengthAdjust="spacing" textLength="29" x="1189.99" y="1132.1045">stato</text><text fill="#000000" font-family="sans-serif" font-size="13" lengthAdjust="spacing" textLength="7" x="1157.4428" y="1132.6015">1</text><text fill="#000000" font-family="sans-serif" font-size="13" lengthAdjust="spacing" textLength="7" x="1291.4483" y="1133.0864">1</text></g><!--link PersonalTrainer to Corso--><g id="link_PersonalTrainer_Corso"><path codeLine="140" d="M841.3,1510.8594 C934.1,1510.8594 1093,1510.8594 1093,1510.8594 C1093,1510.8594 1093,1377.7194 1093,1263.3094 " fill="none" id="PersonalTrainer-to-Corso" style="stroke:#181818;stroke-width:1.0;"/><polygon fill="#181818" points="1093,1257.3094,1089,1266.3094,1093,1262.3094,1097,1266.3094,1093,1257.3094" style="stroke:#181818;stroke-width:1.0;"/><text fill="#000000" font-family="sans-serif" font-size="13" lengthAdjust="spacing" textLength="45" x="1039" y="1498.4345">insegna</text><text fill="#000000" font-family="sans-serif" font-size="13" lengthAdjust="spacing" textLength="7" x="857.22" y="1524.888">1</text><text fill="#000000" font-family="sans-serif" font-size="13" lengthAdjust="spacing" textLength="20" x="1065.2945" y="1286.2329">0..*</text></g><!--link PersonalTrainer to StrategiaRetribuzione--><g id="link_PersonalTrainer_StrategiaRetribuzione"><path codeLine="141" d="M841.28,1599.6094 C873.86,1599.6094 908.27,1599.6094 945.93,1599.6094 " fill="none" id="PersonalTrainer-to-StrategiaRetribuzione" style="stroke:#181818;stroke-width:1.0;"/><polygon fill="#181818" points="951.93,1599.6094,942.93,1595.6094,946.93,1599.6094,942.93,1603.6094,951.93,1599.6094" style="stroke:#181818;stroke-width:1.0;"/><text fill="#000000" font-family="sans-serif" font-size="13" lengthAdjust="spacing" textLength="51" x="836.61" y="1588.1045">contratto</text><text fill="#000000" font-family="sans-serif" font-size="13" lengthAdjust="spacing" textLength="7" x="857.1979" y="1622.7903">1</text><text fill="#000000" font-family="sans-serif" font-size="13" lengthAdjust="spacing" textLength="7" x="929.1257" y="1622.0954">1</text></g><!--link Direttore to PersonalTrainer--><g id="link_Direttore_PersonalTrainer"><path codeLine="143" d="M357.18,1497.4394 C456.37,1497.4394 614.11,1497.4394 704.68,1497.4394 " fill="none" id="Direttore-to-PersonalTrainer" style="stroke:#181818;stroke-width:1.0;"/><polygon fill="#181818" points="710.68,1497.4394,701.68,1493.4394,705.68,1497.4394,701.68,1501.4394,710.68,1497.4394" style="stroke:#181818;stroke-width:1.0;"/><text fill="#000000" font-family="sans-serif" font-size="13" lengthAdjust="spacing" textLength="49" x="542.93" y="1519.9345">gestisce</text><text fill="#000000" font-family="sans-serif" font-size="13" lengthAdjust="spacing" textLength="7" x="373.0207" y="1522.1556">1</text><text fill="#000000" font-family="sans-serif" font-size="13" lengthAdjust="spacing" textLength="20" x="674.9989" y="1511.0227">0..*</text></g><!--link Direttore to Corso--><g id="link_Direttore_Corso"><path codeLine="144" d="M357.24,1444.6094 C556.61,1444.6094 1045,1444.6094 1045,1444.6094 C1045,1444.6094 1045,1353.2594 1045,1263.5194 " fill="none" id="Direttore-to-Corso" style="stroke:#181818;stroke-width:1.0;"/><polygon fill="#181818" points="1045,1257.5194,1041,1266.5194,1045,1262.5194,1049,1266.5194,1045,1257.5194" style="stroke:#181818;stroke-width:1.0;"/><text fill="#000000" font-family="sans-serif" font-size="13" lengthAdjust="spacing" textLength="47" x="738.67" y="1467.1045">pianifica</text><text fill="#000000" font-family="sans-serif" font-size="13" lengthAdjust="spacing" textLength="7" x="373.0857" y="1464.9506">1</text><text fill="#000000" font-family="sans-serif" font-size="13" lengthAdjust="spacing" textLength="20" x="1015.1195" y="1286.4525">0..*</text></g><!--link Direttore to RetribuzioneTotale--><g id="link_Direttore_RetribuzioneTotale"><path codeLine="145" d="M357.11,1509.2794 C438.7,1509.2794 551,1509.2794 551,1509.2794 C551,1509.2794 551,1561.5794 551,1605.0794 " fill="none" id="Direttore-to-RetribuzioneTotale" style="stroke:#181818;stroke-width:1.0;"/><polygon fill="#181818" points="551,1611.0794,555,1602.0794,551,1606.0794,547,1602.0794,551,1611.0794" style="stroke:#181818;stroke-width:1.0;"/><text fill="#000000" font-family="sans-serif" font-size="13" lengthAdjust="spacing" textLength="41" x="454.96" y="1531.7745">calcola</text><text fill="#000000" font-family="sans-serif" font-size="13" lengthAdjust="spacing" textLength="7" x="370.3064" y="1550.752">1</text><text fill="#000000" font-family="sans-serif" font-size="13" lengthAdjust="spacing" textLength="7" x="537.8141" y="1592.1809">1</text></g><!--link RetribuzioneTotale to PersonalTrainer--><g id="link_RetribuzioneTotale_PersonalTrainer"><path codeLine="146" d="M598.65,1657.6094 C634.11,1657.6094 670.44,1657.6094 704.85,1657.6094 " fill="none" id="RetribuzioneTotale-to-PersonalTrainer" style="stroke:#181818;stroke-width:1.0;"/><polygon fill="#181818" points="710.85,1657.6094,701.85,1653.6094,705.85,1657.6094,701.85,1661.6094,710.85,1657.6094" style="stroke:#181818;stroke-width:1.0;"/><text fill="#000000" font-family="sans-serif" font-size="13" lengthAdjust="spacing" textLength="43" x="602.75" y="1646.1045">somma</text><text fill="#000000" font-family="sans-serif" font-size="13" lengthAdjust="spacing" textLength="7" x="614.4076" y="1680.5856">1</text><text fill="#000000" font-family="sans-serif" font-size="13" lengthAdjust="spacing" textLength="20" x="674.9248" y="1686.1908">0..*</text></g><!--link Sede to Corso--><g id="link_Sede_Corso"><path codeLine="148" d="M776,939.1194 C776,967.9094 776,995.6094 776,995.6094 C776,995.6094 902.81,995.6094 989.44,995.6094 " fill="none" id="Sede-to-Corso" style="stroke:#181818;stroke-width:1.0;"/><polygon fill="#181818" points="995.44,995.6094,986.44,991.6094,990.44,995.6094,986.44,999.6094,995.44,995.6094" style="stroke:#181818;stroke-width:1.0;"/><text fill="#000000" font-family="sans-serif" font-size="13" lengthAdjust="spacing" textLength="35" x="866.48" y="1018.1045">ospita</text><text fill="#000000" font-family="sans-serif" font-size="13" lengthAdjust="spacing" textLength="7" x="759.868" y="968.467">1</text><text fill="#000000" font-family="sans-serif" font-size="13" lengthAdjust="spacing" textLength="20" x="959.6145" y="1008.7031">0..*</text></g><!--reverse link SessioneAllenamento to DatiFormPojo--><g id="link_SessioneAllenamento_DatiFormPojo"><path codeLine="150" d="M869.09,141.6094 C916.26,141.6094 962.8,141.6094 1006.31,141.6094 " fill="none" id="SessioneAllenamento-backto-DatiFormPojo" style="stroke:#181818;stroke-width:1.0;"/><polygon fill="#181818" points="857.09,141.6094,863.09,145.6094,869.09,141.6094,863.09,137.6094,857.09,141.6094" style="stroke:#181818;stroke-width:1.0;"/><text fill="#000000" font-family="sans-serif" font-size="13" lengthAdjust="spacing" textLength="49" x="873.7" y="130.1045">contiene</text><text fill="#000000" font-family="sans-serif" font-size="13" lengthAdjust="spacing" textLength="7" x="873.047" y="164.4758">1</text><text fill="#000000" font-family="sans-serif" font-size="13" lengthAdjust="spacing" textLength="20" x="970.4163" y="164.6753">1..*</text></g><!--SRC=[ZLLBZzCm4BxxLrWz0L9Nx049AeIKtIrIfMstRBhSNMVQ3ZXsPBj55FZlZ9r7tJGLNE9uF8zlFi-CFNe5V6uAKChm0lc3AL6ZuMEUIukLpwJ70p2cOEEvDzpYTkT9qG8T6CsO-uww4bQKN2hXNEQznVNUmqmQdUCH-Dj4nUr4ONwWtlADK0wI4uKQ_CyAkB5-Pv83JTWSLFn3wiSA_JqAtoN2IXH5SFsUxR00Bj5AHSZ5sdahfA_nyHSFsWF_nJYV5VHPc19ekJTRNVzDIu6ArjmBRzWVncgxUuMTuRqfK0B_Z4uA5MnMM1cUhTT6YvAq4hFH4gmZiU8hAoX7E-B2yLROo1eqhKe8Ne54eV1u54UYkOjnRpGbuob20_1CGkJZ8Gd-GDT49_OCTROdoSbnfvp0R_6a6TK0bDcYeFz7AWgg6Ffx45vGhOW2z36SFAFMvc1Yc59ub45fTfSjJf6MOdiUfnE4RLbH2NIUYHBjEWwc3ls0FmlQ-5gfSvd81YxJ4FyNDH03FbdHotLfdAV6G5SPZMjK6BWK5OQ4-PpSOIakG-HGzAliL1Gva5L0coa53SEnCDg3HDvcr1urG6jXKvM9Qpf3_jdOCleBkx1Pcc-rem24Q0GhaRY9cLYKEumtLu4FKes9lsU83LsJko9A5KJFgRmMH__DxnoqGnLnWTwNaSz-WTrb-JJG-poTprxcdMfJMdtj-NIHpnw3GJwTJ_FLSnOtsMBn4lvQwtWBf-lDLglPrwUGvjDy-JXTFGL59CRiHb0lvA5rWAxvBCjWI8qjZHAv9r9qWUOLEGTh7Y7oyveqjk13Lbt_lNfzOYrrHrF2YUYpSyRlX8DXxQKrXmDkEnnVzaHec1Uy3XtDcXdsyVTut5L0AkkDbxEpRYOmDfpznzytDvS9_AzoWf-nTcQERaTyFFuKr_HU9zmPmkBefQ4tvaBxxStDcz5vTqyuR3Q4Vo-kgGzrq8HRGXwUWQj1kf7qZmYtexgp2NfOAejQOXLU0PPcbcRSh_q9fpemLzK7wdz2psCzRqyu6-33j5QanjWPSptzkaM86AHPSA1Supx5aNGI9Hk76-k_MpqMMstK3hPQN5UFxeVgQS9bzvwnq_FLlwsUtmar8yre9-6wJOkjGg5nWr8CgT8wCDScxJHW0uV_XEPCIUy3YrLp1PDn5VgeSrcxmUGDzUteDfgS3VIQBIfIghw_]--></g></svg>